{"glyphs":{"0":{"ha":810,"x_min":44,"x_max":765,"o":"m 389 10 q 207 65 285 10 q 87 222 129 119 q 44 471 44 325 q 90 735 44 624 q 215 908 135 847 q 406 969 296 969 q 596 912 515 969 q 721 749 676 854 q 765 500 765 644 q 719 236 765 346 q 588 68 672 126 q 389 10 504 10 m 410 222 q 505 290 469 222 q 540 497 540 358 q 505 690 540 628 q 410 753 469 753 q 315 690 351 753 q 279 497 279 628 q 315 290 279 358 q 410 222 351 222 z "},"1":{"ha":493,"x_min":18,"x_max":428,"o":"m 283 961 q 344 942 321 961 q 385 878 368 924 q 417 732 406 825 q 428 506 428 639 q 420 338 428 422 q 400 185 413 254 q 371 75 388 115 q 331 6 353 26 q 274 -15 308 -15 q 215 8 238 -15 q 181 85 193 32 q 166 188 171 128 q 161 315 161 249 q 170 464 161 386 q 195 616 179 542 q 231 753 211 690 l 253 746 q 172 671 217 697 q 85 644 126 644 q 36 663 54 644 q 18 714 18 681 q 42 800 18 757 q 105 880 65 843 q 191 939 144 917 q 283 961 238 961 z "},"2":{"ha":640,"x_min":29,"x_max":611,"o":"m 301 954 q 535 878 458 954 q 611 681 611 803 q 569 504 611 586 q 438 347 526 422 q 213 196 350 272 l 219 231 q 499 204 415 238 q 582 99 582 171 q 547 13 582 43 q 439 -18 511 -18 q 344 -13 397 -18 q 238 1 292 -8 q 139 22 185 11 q 55 65 81 39 q 29 139 29 90 q 49 211 29 176 q 110 289 68 246 q 224 396 153 332 q 317 488 283 449 q 365 559 351 526 q 379 622 379 592 q 352 692 379 667 q 269 718 325 718 q 220 712 244 718 q 172 699 196 706 q 121 692 149 692 q 57 713 79 692 q 35 772 35 735 q 68 862 35 821 q 161 928 101 903 q 301 954 221 954 z "},"3":{"ha":649,"x_min":36,"x_max":604,"o":"m 317 968 q 462 941 399 968 q 562 860 525 914 q 599 724 599 806 q 540 565 599 635 q 357 464 481 496 l 350 481 q 542 407 479 468 q 604 247 604 346 q 567 114 604 174 q 458 19 531 54 q 278 -15 386 -15 q 133 3 186 -15 q 58 53 79 22 q 36 122 36 85 q 60 192 36 164 q 132 219 85 219 q 193 210 161 219 q 257 201 225 201 q 331 222 304 201 q 357 275 357 243 q 347 315 357 299 q 309 345 336 332 q 229 371 282 358 q 155 400 179 382 q 131 454 131 418 q 158 519 131 494 q 238 564 185 544 q 332 616 304 589 q 360 676 360 643 q 337 726 360 710 q 272 743 314 743 q 205 734 238 743 q 136 725 172 725 q 67 746 90 725 q 43 806 43 767 q 77 885 43 849 q 173 945 111 922 q 317 968 235 968 z "},"4":{"ha":717,"x_min":18,"x_max":697,"o":"m 392 -25 q 310 7 338 -25 q 283 99 283 39 q 294 179 283 136 q 324 264 306 222 l 332 244 q 243 219 296 229 q 138 210 190 210 q 47 240 76 210 q 18 325 18 269 q 38 459 18 382 q 90 617 58 536 q 157 761 121 697 q 283 928 217 868 q 439 989 349 989 q 558 940 524 989 q 593 799 593 892 q 578 624 593 724 q 533 424 563 525 l 515 439 q 552 449 533 446 q 585 453 571 453 q 697 344 697 453 q 663 260 697 289 q 571 231 628 231 q 531 234 550 231 q 496 243 511 238 l 511 250 q 521 192 517 226 q 525 125 525 157 q 490 13 525 51 q 392 -25 456 -25 m 250 424 q 307 444 282 424 q 350 501 332 465 q 377 583 368 538 q 386 679 386 629 q 376 739 386 719 q 346 758 365 758 q 292 735 318 758 q 245 672 267 711 q 211 588 224 633 q 199 497 199 542 q 213 441 199 458 q 250 424 228 424 z "},"5":{"ha":649,"x_min":36,"x_max":604,"o":"m 604 825 q 569 741 604 774 q 468 708 533 708 q 406 712 442 708 q 333 721 369 715 q 265 732 296 726 l 294 751 q 283 626 293 690 q 258 517 274 561 l 219 536 q 306 544 263 544 q 529 474 456 544 q 603 283 603 404 q 566 131 603 199 q 456 24 529 64 q 271 -15 382 -15 q 130 3 182 -15 q 57 53 78 22 q 36 125 36 85 q 62 194 36 167 q 135 222 88 222 q 201 214 165 222 q 268 206 236 206 q 347 227 319 206 q 374 285 374 249 q 345 351 374 331 q 264 372 317 372 q 219 371 243 372 q 179 369 194 369 q 103 392 128 369 q 79 474 79 415 q 83 590 79 522 q 94 724 88 658 q 108 833 101 790 q 150 926 119 894 q 244 958 181 958 q 322 956 278 958 q 410 951 367 954 q 486 942 453 947 q 604 825 604 922 z "},"6":{"ha":711,"x_min":31,"x_max":681,"o":"m 629 878 q 547 723 629 803 q 297 569 464 643 l 261 568 q 320 583 290 579 q 376 588 350 588 q 545 549 478 588 q 647 446 613 511 q 681 297 681 381 q 638 128 681 199 q 524 22 596 58 q 360 -14 451 -14 q 173 24 246 -14 q 65 131 100 63 q 31 288 31 199 q 51 449 31 371 q 113 604 71 526 q 221 764 156 682 q 333 886 281 839 q 434 956 386 933 q 526 978 482 978 q 601 951 574 978 q 629 878 629 924 m 360 431 q 265 394 299 431 q 232 303 232 358 q 263 226 232 254 q 347 197 294 197 q 436 233 404 197 q 468 326 468 269 q 438 403 468 376 q 360 431 408 431 z "},"7":{"ha":624,"x_min":18,"x_max":604,"o":"m 189 960 q 315 956 246 960 q 447 947 383 953 q 563 908 522 939 q 604 814 604 878 q 588 707 604 782 q 529 524 571 632 q 432 277 476 379 q 347 110 388 175 q 265 15 307 46 q 174 -15 224 -15 q 106 10 131 -15 q 82 83 82 35 q 99 174 82 118 q 144 293 115 231 q 219 438 175 358 q 317 599 264 517 q 429 757 371 682 l 442 726 q 299 710 375 715 q 165 706 224 704 q 18 818 18 708 q 64 926 18 892 q 189 960 110 960 z "},"8":{"ha":763,"x_min":44,"x_max":718,"o":"m 392 979 q 626 910 547 979 q 706 710 706 840 q 655 546 706 613 q 522 446 604 479 l 517 493 q 665 415 613 474 q 718 254 718 356 q 630 55 718 125 q 349 -15 542 -15 q 169 15 236 -15 q 74 101 103 46 q 44 228 44 157 q 108 401 44 332 q 288 494 171 469 l 292 436 q 131 504 193 442 q 68 682 68 567 q 111 848 68 782 q 228 947 154 914 q 392 979 301 979 m 486 674 q 456 744 486 722 q 383 765 426 765 q 292 736 324 765 q 260 658 260 707 q 283 589 260 614 q 360 564 306 564 q 454 590 422 564 q 486 674 486 617 m 386 400 q 290 367 322 400 q 257 288 257 333 q 286 215 257 238 q 372 193 315 193 q 471 223 440 193 q 501 303 501 253 q 478 374 501 347 q 386 400 454 400 z "},"9":{"ha":722,"x_min":31,"x_max":692,"o":"m 54 119 q 87 197 54 168 q 178 226 119 226 q 229 224 200 226 q 276 222 258 222 q 385 245 346 222 q 442 307 425 268 q 458 394 458 346 q 454 439 458 418 l 488 421 q 399 380 447 392 q 308 368 351 368 q 155 405 217 368 q 62 506 93 442 q 31 649 31 569 q 69 828 31 754 q 176 940 107 901 q 333 978 244 978 q 596 857 500 978 q 692 515 692 736 q 662 299 692 396 q 579 136 632 203 q 435 22 518 58 q 258 -14 351 -14 q 105 22 156 -14 q 54 119 54 58 m 354 767 q 265 734 300 767 q 229 644 229 701 q 260 563 229 594 q 349 531 292 531 q 435 565 403 531 q 468 654 468 599 q 439 735 468 703 q 354 767 410 767 z "},"A":{"ha":796,"x_min":33,"x_max":763,"o":"m 143 -10 q 62 27 90 -10 q 33 161 33 64 q 44 292 33 215 q 76 457 56 369 q 122 631 96 544 q 181 792 149 718 q 258 933 221 882 q 337 1005 296 983 q 424 1026 378 1026 q 549 974 492 1026 q 654 799 607 922 q 709 611 685 715 q 748 397 733 507 q 763 183 763 286 q 726 37 763 83 q 625 -10 690 -10 q 534 32 567 -10 q 492 169 501 74 q 486 299 486 232 q 492 429 486 367 l 549 324 q 455 305 511 308 q 338 308 399 301 q 226 333 278 314 l 322 426 q 315 292 324 357 q 296 174 307 228 q 265 73 283 114 q 219 11 247 32 q 143 -10 190 -10 m 414 482 q 501 508 472 482 q 529 585 529 535 q 521 656 529 617 q 497 731 513 694 q 462 792 482 768 q 417 815 442 815 q 372 791 393 815 q 336 729 351 767 q 312 650 321 692 q 303 575 303 608 q 331 506 303 531 q 414 482 360 482 z "},"Á":{"ha":796,"x_min":33,"x_max":763,"o":"m 143 -10 q 62 27 90 -10 q 33 161 33 64 q 44 292 33 215 q 76 457 56 369 q 122 631 96 544 q 181 792 149 718 q 258 933 221 882 q 337 1005 296 983 q 424 1026 378 1026 q 549 974 492 1026 q 654 799 607 922 q 709 611 685 715 q 748 397 733 507 q 763 183 763 286 q 726 37 763 83 q 625 -10 690 -10 q 534 32 567 -10 q 492 169 501 74 q 486 299 486 232 q 492 429 486 367 l 549 324 q 455 305 511 308 q 338 308 399 301 q 226 333 278 314 l 322 426 q 315 292 324 357 q 296 174 307 228 q 265 73 283 114 q 219 11 247 32 q 143 -10 190 -10 m 414 482 q 501 508 472 482 q 529 585 529 535 q 521 656 529 617 q 497 731 513 694 q 462 792 482 768 q 417 815 442 815 q 372 791 393 815 q 336 729 351 767 q 312 650 321 692 q 303 575 303 608 q 331 506 303 531 q 414 482 360 482 m 317 1082 q 344 1133 317 1106 q 417 1193 372 1160 q 501 1249 463 1228 q 571 1271 540 1271 q 623 1253 601 1271 q 657 1213 644 1236 q 669 1169 669 1189 q 643 1124 669 1142 q 569 1090 617 1106 q 492 1067 532 1078 q 416 1051 451 1057 q 357 1046 381 1046 q 328 1057 339 1046 q 317 1082 317 1068 z "},"Ă":{"ha":796,"x_min":33,"x_max":763,"o":"m 143 -10 q 62 27 90 -10 q 33 161 33 64 q 44 292 33 215 q 76 457 56 369 q 122 631 96 544 q 181 792 149 718 q 258 933 221 882 q 337 1005 296 983 q 424 1026 378 1026 q 549 974 492 1026 q 654 799 607 922 q 709 611 685 715 q 748 397 733 507 q 763 183 763 286 q 726 37 763 83 q 625 -10 690 -10 q 534 32 567 -10 q 492 169 501 74 q 486 299 486 232 q 492 429 486 367 l 549 324 q 455 305 511 308 q 338 308 399 301 q 226 333 278 314 l 322 426 q 315 292 324 357 q 296 174 307 228 q 265 73 283 114 q 219 11 247 32 q 143 -10 190 -10 m 414 482 q 501 508 472 482 q 529 585 529 535 q 521 656 529 617 q 497 731 513 694 q 462 792 482 768 q 417 815 442 815 q 372 791 393 815 q 336 729 351 767 q 312 650 321 692 q 303 575 303 608 q 331 506 303 531 q 414 482 360 482 m 439 1047 q 296 1096 347 1047 q 244 1210 244 1144 q 306 1276 244 1276 q 376 1211 363 1276 q 396 1167 383 1182 q 438 1153 408 1153 q 475 1165 463 1153 q 494 1206 488 1178 q 521 1268 504 1246 q 572 1290 538 1290 q 618 1271 603 1290 q 633 1217 633 1251 q 611 1133 633 1172 q 545 1071 589 1094 q 439 1047 501 1047 z "},"Ǎ":{"ha":796,"x_min":33,"x_max":763,"o":"m 143 -10 q 62 27 90 -10 q 33 161 33 64 q 44 292 33 215 q 76 457 56 369 q 122 631 96 544 q 181 792 149 718 q 258 933 221 882 q 337 1005 296 983 q 424 1026 378 1026 q 549 974 492 1026 q 654 799 607 922 q 709 611 685 715 q 748 397 733 507 q 763 183 763 286 q 726 37 763 83 q 625 -10 690 -10 q 534 32 567 -10 q 492 169 501 74 q 486 299 486 232 q 492 429 486 367 l 549 324 q 455 305 511 308 q 338 308 399 301 q 226 333 278 314 l 322 426 q 315 292 324 357 q 296 174 307 228 q 265 73 283 114 q 219 11 247 32 q 143 -10 190 -10 m 414 482 q 501 508 472 482 q 529 585 529 535 q 521 656 529 617 q 497 731 513 694 q 462 792 482 768 q 417 815 442 815 q 372 791 393 815 q 336 729 351 767 q 312 650 321 692 q 303 575 303 608 q 331 506 303 531 q 414 482 360 482 m 446 1060 q 382 1078 417 1060 q 310 1124 347 1096 q 249 1182 271 1154 q 226 1240 226 1210 q 244 1283 226 1267 q 290 1300 263 1300 q 364 1261 325 1300 q 446 1136 403 1222 l 422 1144 q 492 1253 453 1213 q 569 1293 531 1293 q 629 1272 606 1293 q 653 1215 653 1251 q 632 1160 653 1185 q 574 1110 611 1135 q 503 1074 539 1088 q 446 1060 467 1060 z "},"Â":{"ha":796,"x_min":33,"x_max":763,"o":"m 143 -10 q 62 27 90 -10 q 33 161 33 64 q 44 292 33 215 q 76 457 56 369 q 122 631 96 544 q 181 792 149 718 q 258 933 221 882 q 337 1005 296 983 q 424 1026 378 1026 q 549 974 492 1026 q 654 799 607 922 q 709 611 685 715 q 748 397 733 507 q 763 183 763 286 q 726 37 763 83 q 625 -10 690 -10 q 534 32 567 -10 q 492 169 501 74 q 486 299 486 232 q 492 429 486 367 l 549 324 q 455 305 511 308 q 338 308 399 301 q 226 333 278 314 l 322 426 q 315 292 324 357 q 296 174 307 228 q 265 73 283 114 q 219 11 247 32 q 143 -10 190 -10 m 414 482 q 501 508 472 482 q 529 585 529 535 q 521 656 529 617 q 497 731 513 694 q 462 792 482 768 q 417 815 442 815 q 372 791 393 815 q 336 729 351 767 q 312 650 321 692 q 303 575 303 608 q 331 506 303 531 q 414 482 360 482 m 446 1286 q 503 1272 467 1286 q 574 1235 539 1257 q 632 1185 611 1210 q 653 1131 653 1161 q 629 1074 653 1094 q 569 1053 606 1053 q 492 1092 531 1053 q 422 1201 453 1132 l 446 1210 q 364 1085 403 1124 q 290 1046 325 1046 q 244 1063 263 1046 q 226 1106 226 1079 q 249 1164 226 1136 q 310 1222 271 1192 q 382 1269 347 1251 q 446 1286 417 1286 z "},"Ä":{"ha":796,"x_min":33,"x_max":763,"o":"m 143 -10 q 62 27 90 -10 q 33 161 33 64 q 44 292 33 215 q 76 457 56 369 q 122 631 96 544 q 181 792 149 718 q 258 933 221 882 q 337 1005 296 983 q 424 1026 378 1026 q 549 974 492 1026 q 654 799 607 922 q 709 611 685 715 q 748 397 733 507 q 763 183 763 286 q 726 37 763 83 q 625 -10 690 -10 q 534 32 567 -10 q 492 169 501 74 q 486 299 486 232 q 492 429 486 367 l 549 324 q 455 305 511 308 q 338 308 399 301 q 226 333 278 314 l 322 426 q 315 292 324 357 q 296 174 307 228 q 265 73 283 114 q 219 11 247 32 q 143 -10 190 -10 m 414 482 q 501 508 472 482 q 529 585 529 535 q 521 656 529 617 q 497 731 513 694 q 462 792 482 768 q 417 815 442 815 q 372 791 393 815 q 336 729 351 767 q 312 650 321 692 q 303 575 303 608 q 331 506 303 531 q 414 482 360 482 m 289 1053 q 210 1082 235 1053 q 185 1150 185 1111 q 218 1231 185 1203 q 311 1260 251 1260 q 390 1228 364 1260 q 415 1154 415 1197 q 380 1078 415 1104 q 289 1053 344 1053 m 585 1274 q 667 1242 642 1274 q 692 1168 692 1210 q 660 1087 692 1114 q 571 1060 629 1060 q 490 1090 517 1060 q 463 1164 463 1121 q 496 1245 463 1217 q 585 1274 529 1274 z "},"À":{"ha":796,"x_min":33,"x_max":763,"o":"m 143 -10 q 62 27 90 -10 q 33 161 33 64 q 44 292 33 215 q 76 457 56 369 q 122 631 96 544 q 181 792 149 718 q 258 933 221 882 q 337 1005 296 983 q 424 1026 378 1026 q 549 974 492 1026 q 654 799 607 922 q 709 611 685 715 q 748 397 733 507 q 763 183 763 286 q 726 37 763 83 q 625 -10 690 -10 q 534 32 567 -10 q 492 169 501 74 q 486 299 486 232 q 492 429 486 367 l 549 324 q 455 305 511 308 q 338 308 399 301 q 226 333 278 314 l 322 426 q 315 292 324 357 q 296 174 307 228 q 265 73 283 114 q 219 11 247 32 q 143 -10 190 -10 m 414 482 q 501 508 472 482 q 529 585 529 535 q 521 656 529 617 q 497 731 513 694 q 462 792 482 768 q 417 815 442 815 q 372 791 393 815 q 336 729 351 767 q 312 650 321 692 q 303 575 303 608 q 331 506 303 531 q 414 482 360 482 m 563 1082 q 552 1057 563 1068 q 522 1046 542 1046 q 464 1051 500 1046 q 388 1067 428 1057 q 310 1090 349 1078 q 237 1124 264 1106 q 210 1169 210 1142 q 222 1213 210 1189 q 258 1253 235 1236 q 308 1271 281 1271 q 378 1249 339 1271 q 463 1193 417 1228 q 535 1133 508 1160 q 563 1082 563 1106 z "},"Ā":{"ha":796,"x_min":33,"x_max":763,"o":"m 143 -10 q 62 27 90 -10 q 33 161 33 64 q 44 292 33 215 q 76 457 56 369 q 122 631 96 544 q 181 792 149 718 q 258 933 221 882 q 337 1005 296 983 q 424 1026 378 1026 q 549 974 492 1026 q 654 799 607 922 q 709 611 685 715 q 748 397 733 507 q 763 183 763 286 q 726 37 763 83 q 625 -10 690 -10 q 534 32 567 -10 q 492 169 501 74 q 486 299 486 232 q 492 429 486 367 l 549 324 q 455 305 511 308 q 338 308 399 301 q 226 333 278 314 l 322 426 q 315 292 324 357 q 296 174 307 228 q 265 73 283 114 q 219 11 247 32 q 143 -10 190 -10 m 414 482 q 501 508 472 482 q 529 585 529 535 q 521 656 529 617 q 497 731 513 694 q 462 792 482 768 q 417 815 442 815 q 372 791 393 815 q 336 729 351 767 q 312 650 321 692 q 303 575 303 608 q 331 506 303 531 q 414 482 360 482 m 294 1054 q 214 1076 240 1054 q 188 1132 188 1097 q 211 1188 188 1167 q 290 1221 235 1208 q 380 1235 331 1229 q 478 1242 429 1240 q 569 1244 528 1244 q 663 1223 635 1244 q 690 1167 690 1201 q 666 1108 690 1129 q 593 1076 642 1086 q 499 1065 554 1071 q 389 1057 443 1060 q 294 1054 335 1054 z "},"Ą":{"ha":796,"x_min":33,"x_max":763,"o":"m 143 -10 q 62 27 90 -10 q 33 161 33 64 q 44 292 33 215 q 76 457 56 369 q 122 631 96 544 q 181 792 149 718 q 258 933 221 882 q 337 1005 296 983 q 424 1026 378 1026 q 549 974 492 1026 q 654 799 607 922 q 709 611 685 715 q 748 397 733 507 q 763 183 763 286 q 726 37 763 83 q 625 -10 690 -10 q 534 32 567 -10 q 492 169 501 74 q 486 299 486 232 q 492 429 486 367 l 549 324 q 455 305 511 308 q 338 308 399 301 q 226 333 278 314 l 322 426 q 315 292 324 357 q 296 174 307 228 q 265 73 283 114 q 219 11 247 32 q 143 -10 190 -10 m 414 482 q 501 508 472 482 q 529 585 529 535 q 521 656 529 617 q 497 731 513 694 q 462 792 482 768 q 417 815 442 815 q 372 791 393 815 q 336 729 351 767 q 312 650 321 692 q 303 575 303 608 q 331 506 303 531 q 414 482 360 482 m 615 -293 q 499 -261 544 -293 q 453 -167 453 -229 q 490 -61 453 -112 q 611 39 526 -10 l 722 42 q 629 -51 664 -3 q 594 -126 594 -100 q 604 -147 594 -142 q 631 -153 614 -153 q 654 -151 642 -153 q 682 -150 667 -150 q 727 -166 713 -150 q 742 -210 742 -182 q 709 -272 742 -251 q 615 -293 676 -293 z "},"Å":{"ha":796,"x_min":33,"x_max":763,"o":"m 143 -10 q 62 27 90 -10 q 33 161 33 64 q 44 292 33 215 q 76 457 56 369 q 122 631 96 544 q 181 792 149 718 q 258 933 221 882 q 337 1005 296 983 q 424 1026 378 1026 q 549 974 492 1026 q 654 799 607 922 q 709 611 685 715 q 748 397 733 507 q 763 183 763 286 q 726 37 763 83 q 625 -10 690 -10 q 534 32 567 -10 q 492 169 501 74 q 486 299 486 232 q 492 429 486 367 l 549 324 q 455 305 511 308 q 338 308 399 301 q 226 333 278 314 l 322 426 q 315 292 324 357 q 296 174 307 228 q 265 73 283 114 q 219 11 247 32 q 143 -10 190 -10 m 414 482 q 501 508 472 482 q 529 585 529 535 q 521 656 529 617 q 497 731 513 694 q 462 792 482 768 q 417 815 442 815 q 372 791 393 815 q 336 729 351 767 q 312 650 321 692 q 303 575 303 608 q 331 506 303 531 q 414 482 360 482 m 436 1043 q 313 1073 363 1043 q 264 1165 264 1103 q 313 1270 264 1229 q 453 1311 361 1311 q 574 1273 536 1311 q 613 1182 613 1235 q 565 1082 613 1121 q 436 1043 518 1043 m 428 1122 q 493 1135 467 1122 q 519 1176 519 1149 q 500 1220 519 1204 q 439 1236 481 1236 q 377 1217 397 1236 q 357 1175 357 1197 q 376 1137 357 1151 q 428 1122 396 1122 z "},"Ã":{"ha":796,"x_min":33,"x_max":763,"o":"m 143 -10 q 62 27 90 -10 q 33 161 33 64 q 44 292 33 215 q 76 457 56 369 q 122 631 96 544 q 181 792 149 718 q 258 933 221 882 q 337 1005 296 983 q 424 1026 378 1026 q 549 974 492 1026 q 654 799 607 922 q 709 611 685 715 q 748 397 733 507 q 763 183 763 286 q 726 37 763 83 q 625 -10 690 -10 q 534 32 567 -10 q 492 169 501 74 q 486 299 486 232 q 492 429 486 367 l 549 324 q 455 305 511 308 q 338 308 399 301 q 226 333 278 314 l 322 426 q 315 292 324 357 q 296 174 307 228 q 265 73 283 114 q 219 11 247 32 q 143 -10 190 -10 m 414 482 q 501 508 472 482 q 529 585 529 535 q 521 656 529 617 q 497 731 513 694 q 462 792 482 768 q 417 815 442 815 q 372 791 393 815 q 336 729 351 767 q 312 650 321 692 q 303 575 303 608 q 331 506 303 531 q 414 482 360 482 m 358 1256 q 441 1235 404 1256 q 511 1179 478 1215 q 528 1171 521 1169 q 536 1182 535 1172 q 567 1253 549 1231 q 621 1276 586 1276 q 681 1213 681 1276 q 665 1144 681 1183 q 617 1076 650 1106 q 531 1047 585 1047 q 449 1074 485 1047 q 379 1147 414 1100 q 363 1158 371 1160 q 350 1136 354 1157 q 320 1060 340 1083 q 264 1038 300 1038 q 216 1058 235 1038 q 197 1107 197 1079 q 218 1178 197 1144 q 275 1234 239 1213 q 358 1256 311 1256 z "},"Æ":{"ha":1125,"x_min":33,"x_max":1099,"o":"m 143 -10 q 62 27 90 -10 q 33 161 33 64 q 45 290 33 215 q 78 450 57 365 q 127 619 99 535 q 189 779 156 704 q 270 925 231 871 q 353 1003 310 979 q 443 1026 396 1026 q 567 974 513 1026 q 658 799 621 922 l 549 313 q 455 294 511 297 q 338 297 399 290 q 226 322 278 303 l 322 426 q 315 292 324 357 q 296 174 307 228 q 265 73 283 114 q 219 11 247 32 q 143 -10 190 -10 m 407 471 q 488 501 461 471 q 515 590 515 532 q 509 674 515 632 q 492 750 503 715 q 465 806 481 785 q 429 826 449 826 q 381 801 404 826 q 340 734 358 775 q 313 648 322 693 q 303 565 303 603 q 329 495 303 519 q 407 471 356 471 m 925 1022 q 1059 992 1019 1022 q 1099 903 1099 961 q 1050 807 1099 839 q 896 775 1001 775 q 803 777 854 775 q 694 785 751 779 l 717 804 q 726 690 729 751 q 703 574 722 629 l 690 583 q 761 598 721 592 q 846 608 801 604 q 926 613 890 613 q 1033 585 1003 613 q 1064 519 1064 558 q 1028 447 1064 476 q 903 417 992 417 q 792 422 849 417 q 681 438 735 428 l 699 454 q 720 368 714 417 q 724 270 726 319 q 708 183 721 221 l 693 200 q 774 226 729 215 q 867 242 819 236 q 957 247 915 247 q 1062 223 1028 247 q 1096 142 1096 199 q 1078 78 1096 106 q 1017 31 1060 50 q 953 10 990 19 q 876 -3 917 1 q 793 -8 835 -8 q 640 17 701 -8 q 551 90 579 42 q 515 202 528 133 q 501 390 501 271 l 547 490 l 608 785 l 575 897 q 661 969 608 942 q 782 1010 714 997 q 925 1022 850 1022 z "},"B":{"ha":779,"x_min":64,"x_max":731,"o":"m 319 -7 q 181 23 235 -7 q 101 115 128 53 q 72 234 81 164 q 64 396 64 304 q 74 642 64 543 q 103 803 85 740 q 147 906 122 865 q 254 994 185 963 q 447 1026 324 1026 q 609 997 549 1026 q 697 919 669 968 q 724 810 724 871 q 672 657 724 717 q 535 563 619 597 l 535 557 q 678 495 626 549 q 731 340 731 442 q 696 201 731 264 q 602 91 661 138 q 469 19 543 44 q 319 -7 396 -7 m 369 181 q 451 200 415 181 q 506 254 486 219 q 526 333 526 289 q 494 415 526 382 q 394 447 463 447 q 310 413 343 447 q 276 304 276 379 q 300 210 276 239 q 369 181 324 181 m 376 608 q 481 648 439 608 q 522 750 522 688 q 494 823 522 796 q 414 850 467 850 q 322 818 357 850 q 286 714 286 786 q 310 633 286 657 q 376 608 335 608 z "},"C":{"ha":776,"x_min":44,"x_max":757,"o":"m 474 -15 q 233 44 329 -15 q 91 210 138 103 q 44 460 44 317 q 98 737 44 618 q 252 921 151 856 q 494 986 353 986 q 687 935 617 986 q 757 803 757 885 q 724 712 757 746 q 628 678 690 678 q 575 687 600 678 q 524 704 550 696 q 461 713 497 713 q 372 691 413 713 q 306 619 331 669 q 282 485 282 569 q 330 308 282 360 q 458 256 378 256 q 513 260 483 256 q 569 268 542 264 q 613 272 596 272 q 701 242 668 272 q 735 153 735 213 q 669 31 735 78 q 474 -15 603 -15 z "},"Ć":{"ha":776,"x_min":44,"x_max":757,"o":"m 474 -15 q 233 44 329 -15 q 91 210 138 103 q 44 460 44 317 q 98 737 44 618 q 252 921 151 856 q 494 986 353 986 q 687 935 617 986 q 757 803 757 885 q 724 712 757 746 q 628 678 690 678 q 575 687 600 678 q 524 704 550 696 q 461 713 497 713 q 372 691 413 713 q 306 619 331 669 q 282 485 282 569 q 330 308 282 360 q 458 256 378 256 q 513 260 483 256 q 569 268 542 264 q 613 272 596 272 q 701 242 668 272 q 735 153 735 213 q 669 31 735 78 q 474 -15 603 -15 m 331 1082 q 358 1133 331 1106 q 431 1193 386 1160 q 515 1249 476 1228 q 585 1271 554 1271 q 637 1253 615 1271 q 671 1213 658 1236 q 683 1169 683 1189 q 657 1124 683 1142 q 583 1090 631 1106 q 506 1067 546 1078 q 430 1051 465 1057 q 371 1046 394 1046 q 342 1057 353 1046 q 331 1082 331 1068 z "},"Č":{"ha":776,"x_min":44,"x_max":757,"o":"m 474 -15 q 233 44 329 -15 q 91 210 138 103 q 44 460 44 317 q 98 737 44 618 q 252 921 151 856 q 494 986 353 986 q 687 935 617 986 q 757 803 757 885 q 724 712 757 746 q 628 678 690 678 q 575 687 600 678 q 524 704 550 696 q 461 713 497 713 q 372 691 413 713 q 306 619 331 669 q 282 485 282 569 q 330 308 282 360 q 458 256 378 256 q 513 260 483 256 q 569 268 542 264 q 613 272 596 272 q 701 242 668 272 q 735 153 735 213 q 669 31 735 78 q 474 -15 603 -15 m 460 1060 q 396 1078 431 1060 q 324 1124 361 1096 q 263 1182 285 1154 q 240 1240 240 1210 q 258 1283 240 1267 q 304 1300 276 1300 q 378 1261 339 1300 q 460 1136 417 1222 l 436 1144 q 506 1253 467 1213 q 583 1293 544 1293 q 643 1272 619 1293 q 667 1215 667 1251 q 646 1160 667 1185 q 588 1110 625 1135 q 517 1074 553 1088 q 460 1060 481 1060 z "},"Ç":{"ha":776,"x_min":44,"x_max":757,"o":"m 474 -15 q 233 44 329 -15 q 91 210 138 103 q 44 460 44 317 q 98 737 44 618 q 252 921 151 856 q 494 986 353 986 q 687 935 617 986 q 757 803 757 885 q 724 712 757 746 q 628 678 690 678 q 575 687 600 678 q 524 704 550 696 q 461 713 497 713 q 372 691 413 713 q 306 619 331 669 q 282 485 282 569 q 330 308 282 360 q 458 256 378 256 q 513 260 483 256 q 569 268 542 264 q 613 272 596 272 q 701 242 668 272 q 735 153 735 213 q 669 31 735 78 q 474 -15 603 -15 m 350 -289 q 267 -228 267 -289 q 287 -181 267 -196 q 333 -161 307 -167 q 381 -153 357 -157 q 417 -149 404 -150 q 437 -139 429 -144 q 444 -124 444 -133 q 435 -106 444 -112 q 399 -96 425 -99 q 324 -72 349 -86 q 300 -29 300 -57 q 319 6 300 -4 q 365 15 338 15 q 456 -2 411 15 q 531 -53 501 -19 q 561 -135 561 -86 q 533 -211 561 -176 q 458 -267 506 -246 q 350 -289 411 -289 z "},"Ċ":{"ha":776,"x_min":44,"x_max":757,"o":"m 474 -15 q 233 44 329 -15 q 91 210 138 103 q 44 460 44 317 q 98 737 44 618 q 252 921 151 856 q 494 986 353 986 q 687 935 617 986 q 757 803 757 885 q 724 712 757 746 q 628 678 690 678 q 575 687 600 678 q 524 704 550 696 q 461 713 497 713 q 372 691 413 713 q 306 619 331 669 q 282 485 282 569 q 330 308 282 360 q 458 256 378 256 q 513 260 483 256 q 569 268 542 264 q 613 272 596 272 q 701 242 668 272 q 735 153 735 213 q 669 31 735 78 q 474 -15 603 -15 m 465 1290 q 558 1256 529 1290 q 586 1176 586 1221 q 551 1090 586 1121 q 454 1060 517 1060 q 363 1093 393 1060 q 332 1172 332 1126 q 369 1260 332 1231 q 465 1290 406 1290 z "},"D":{"ha":857,"x_min":25,"x_max":813,"o":"m 235 -32 q 119 -19 160 -32 q 64 16 79 -7 q 47 69 49 39 q 84 149 47 117 q 219 188 121 181 l 186 150 q 166 303 172 215 q 161 486 160 392 q 169 667 163 581 q 192 814 176 753 l 333 811 q 260 790 304 799 q 169 781 215 781 q 60 806 94 781 q 25 875 25 831 q 91 982 25 943 q 294 1021 157 1021 q 578 960 463 1021 q 753 792 693 900 q 813 542 813 685 q 772 312 813 417 q 654 130 731 207 q 472 10 578 53 q 235 -32 365 -32 m 421 229 q 489 262 454 229 q 547 358 524 294 q 571 511 571 421 q 556 633 571 581 q 517 722 540 686 q 465 777 493 758 q 411 796 438 796 q 377 767 389 796 q 360 679 365 739 q 356 525 356 619 q 369 303 356 376 q 421 229 382 229 z "},"Ð":{"ha":857,"x_min":25,"x_max":813,"o":"m 235 -32 q 119 -19 160 -32 q 64 16 79 -7 q 47 69 49 39 q 84 149 47 117 q 219 188 121 181 l 186 150 q 166 303 172 215 q 161 486 160 392 q 169 667 163 581 q 192 814 176 753 l 333 811 q 260 790 304 799 q 169 781 215 781 q 60 806 94 781 q 25 875 25 831 q 91 982 25 943 q 294 1021 157 1021 q 578 960 463 1021 q 753 792 693 900 q 813 542 813 685 q 772 312 813 417 q 654 130 731 207 q 472 10 578 53 q 235 -32 365 -32 m 132 400 q 66 419 88 400 q 44 472 44 439 q 65 527 44 506 q 133 560 86 549 q 208 573 167 568 q 292 581 249 578 q 371 583 336 583 q 448 563 425 583 q 471 506 471 542 q 385 419 471 438 q 306 410 353 414 q 212 403 258 406 q 132 400 165 400 m 421 229 q 489 262 454 229 q 547 358 524 294 q 571 511 571 421 q 556 633 571 581 q 517 722 540 686 q 465 777 493 758 q 411 796 438 796 q 377 767 389 796 q 360 679 365 739 q 356 525 356 619 q 369 303 356 376 q 421 229 382 229 z "},"Ď":{"ha":857,"x_min":25,"x_max":813,"o":"m 235 -32 q 119 -19 160 -32 q 64 16 79 -7 q 47 69 49 39 q 84 149 47 117 q 219 188 121 181 l 186 150 q 166 303 172 215 q 161 486 160 392 q 169 667 163 581 q 192 814 176 753 l 333 811 q 260 790 304 799 q 169 781 215 781 q 60 806 94 781 q 25 875 25 831 q 91 982 25 943 q 294 1021 157 1021 q 578 960 463 1021 q 753 792 693 900 q 813 542 813 685 q 772 312 813 417 q 654 130 731 207 q 472 10 578 53 q 235 -32 365 -32 m 421 229 q 489 262 454 229 q 547 358 524 294 q 571 511 571 421 q 556 633 571 581 q 517 722 540 686 q 465 777 493 758 q 411 796 438 796 q 377 767 389 796 q 360 679 365 739 q 356 525 356 619 q 369 303 356 376 q 421 229 382 229 m 438 1060 q 374 1078 408 1060 q 301 1124 339 1096 q 240 1182 263 1154 q 218 1240 218 1210 q 236 1283 218 1267 q 282 1300 254 1300 q 356 1261 317 1300 q 438 1136 394 1222 l 414 1144 q 483 1253 444 1213 q 561 1293 522 1293 q 621 1272 597 1293 q 644 1215 644 1251 q 624 1160 644 1185 q 565 1110 603 1135 q 494 1074 531 1088 q 438 1060 458 1060 z "},"Đ":{"ha":857,"x_min":25,"x_max":813,"o":"m 235 -32 q 119 -19 160 -32 q 64 16 79 -7 q 47 69 49 39 q 84 149 47 117 q 219 188 121 181 l 186 150 q 166 303 172 215 q 161 486 160 392 q 169 667 163 581 q 192 814 176 753 l 333 811 q 260 790 304 799 q 169 781 215 781 q 60 806 94 781 q 25 875 25 831 q 91 982 25 943 q 294 1021 157 1021 q 578 960 463 1021 q 753 792 693 900 q 813 542 813 685 q 772 312 813 417 q 654 130 731 207 q 472 10 578 53 q 235 -32 365 -32 m 132 400 q 66 419 88 400 q 44 472 44 439 q 65 527 44 506 q 133 560 86 549 q 208 573 167 568 q 292 581 249 578 q 371 583 336 583 q 448 563 425 583 q 471 506 471 542 q 385 419 471 438 q 306 410 353 414 q 212 403 258 406 q 132 400 165 400 m 421 229 q 489 262 454 229 q 547 358 524 294 q 571 511 571 421 q 556 633 571 581 q 517 722 540 686 q 465 777 493 758 q 411 796 438 796 q 377 767 389 796 q 360 679 365 739 q 356 525 356 619 q 369 303 356 376 q 421 229 382 229 z "},"E":{"ha":692,"x_min":64,"x_max":667,"o":"m 492 1022 q 626 992 586 1022 q 667 903 667 961 q 617 807 667 839 q 464 775 568 775 q 370 777 422 775 q 261 785 318 779 l 283 804 q 294 690 297 751 q 271 574 290 629 l 258 583 q 328 598 288 592 q 413 608 369 604 q 493 613 457 613 q 601 585 569 613 q 632 519 632 558 q 595 447 632 476 q 469 417 558 417 q 358 422 415 417 q 247 438 301 428 l 267 454 q 287 369 281 418 q 290 270 293 319 q 275 183 288 221 l 260 200 q 342 226 296 215 q 435 242 388 236 q 524 247 482 247 q 629 223 594 247 q 664 142 664 199 q 645 78 664 106 q 583 31 626 50 q 520 10 557 19 q 442 -3 483 1 q 361 -8 401 -8 q 207 17 268 -8 q 118 90 146 42 q 77 224 90 142 q 64 449 64 306 q 74 669 64 582 q 101 810 83 756 q 142 897 119 865 q 228 969 175 942 q 349 1010 282 997 q 492 1022 417 1022 z "},"É":{"ha":692,"x_min":64,"x_max":667,"o":"m 492 1022 q 626 992 586 1022 q 667 903 667 961 q 617 807 667 839 q 464 775 568 775 q 370 777 422 775 q 261 785 318 779 l 283 804 q 294 690 297 751 q 271 574 290 629 l 258 583 q 328 598 288 592 q 413 608 369 604 q 493 613 457 613 q 601 585 569 613 q 632 519 632 558 q 595 447 632 476 q 469 417 558 417 q 358 422 415 417 q 247 438 301 428 l 267 454 q 287 369 281 418 q 290 270 293 319 q 275 183 288 221 l 260 200 q 342 226 296 215 q 435 242 388 236 q 524 247 482 247 q 629 223 594 247 q 664 142 664 199 q 645 78 664 106 q 583 31 626 50 q 520 10 557 19 q 442 -3 483 1 q 361 -8 401 -8 q 207 17 268 -8 q 118 90 146 42 q 77 224 90 142 q 64 449 64 306 q 74 669 64 582 q 101 810 83 756 q 142 897 119 865 q 228 969 175 942 q 349 1010 282 997 q 492 1022 417 1022 m 271 1082 q 299 1133 271 1106 q 371 1193 326 1160 q 456 1249 417 1228 q 525 1271 494 1271 q 577 1253 556 1271 q 611 1213 599 1236 q 624 1169 624 1189 q 597 1124 624 1142 q 524 1090 571 1106 q 446 1067 486 1078 q 370 1051 406 1057 q 311 1046 335 1046 q 282 1057 293 1046 q 271 1082 271 1068 z "},"Ě":{"ha":692,"x_min":64,"x_max":667,"o":"m 492 1022 q 626 992 586 1022 q 667 903 667 961 q 617 807 667 839 q 464 775 568 775 q 370 777 422 775 q 261 785 318 779 l 283 804 q 294 690 297 751 q 271 574 290 629 l 258 583 q 328 598 288 592 q 413 608 369 604 q 493 613 457 613 q 601 585 569 613 q 632 519 632 558 q 595 447 632 476 q 469 417 558 417 q 358 422 415 417 q 247 438 301 428 l 267 454 q 287 369 281 418 q 290 270 293 319 q 275 183 288 221 l 260 200 q 342 226 296 215 q 435 242 388 236 q 524 247 482 247 q 629 223 594 247 q 664 142 664 199 q 645 78 664 106 q 583 31 626 50 q 520 10 557 19 q 442 -3 483 1 q 361 -8 401 -8 q 207 17 268 -8 q 118 90 146 42 q 77 224 90 142 q 64 449 64 306 q 74 669 64 582 q 101 810 83 756 q 142 897 119 865 q 228 969 175 942 q 349 1010 282 997 q 492 1022 417 1022 m 400 1060 q 336 1078 371 1060 q 264 1124 301 1096 q 203 1182 225 1154 q 181 1240 181 1210 q 199 1283 181 1267 q 244 1300 217 1300 q 318 1261 279 1300 q 400 1136 357 1222 l 376 1144 q 446 1253 407 1213 q 524 1293 485 1293 q 583 1272 560 1293 q 607 1215 607 1251 q 586 1160 607 1185 q 528 1110 565 1135 q 457 1074 493 1088 q 400 1060 421 1060 z "},"Ê":{"ha":692,"x_min":64,"x_max":667,"o":"m 492 1022 q 626 992 586 1022 q 667 903 667 961 q 617 807 667 839 q 464 775 568 775 q 370 777 422 775 q 261 785 318 779 l 283 804 q 294 690 297 751 q 271 574 290 629 l 258 583 q 328 598 288 592 q 413 608 369 604 q 493 613 457 613 q 601 585 569 613 q 632 519 632 558 q 595 447 632 476 q 469 417 558 417 q 358 422 415 417 q 247 438 301 428 l 267 454 q 287 369 281 418 q 290 270 293 319 q 275 183 288 221 l 260 200 q 342 226 296 215 q 435 242 388 236 q 524 247 482 247 q 629 223 594 247 q 664 142 664 199 q 645 78 664 106 q 583 31 626 50 q 520 10 557 19 q 442 -3 483 1 q 361 -8 401 -8 q 207 17 268 -8 q 118 90 146 42 q 77 224 90 142 q 64 449 64 306 q 74 669 64 582 q 101 810 83 756 q 142 897 119 865 q 228 969 175 942 q 349 1010 282 997 q 492 1022 417 1022 m 400 1286 q 457 1272 421 1286 q 528 1235 493 1257 q 586 1185 565 1210 q 607 1131 607 1161 q 583 1074 607 1094 q 524 1053 560 1053 q 446 1092 485 1053 q 376 1201 407 1132 l 400 1210 q 318 1085 357 1124 q 244 1046 279 1046 q 199 1063 217 1046 q 181 1106 181 1079 q 203 1164 181 1136 q 264 1222 225 1192 q 336 1269 301 1251 q 400 1286 371 1286 z "},"Ë":{"ha":692,"x_min":64,"x_max":667,"o":"m 492 1022 q 626 992 586 1022 q 667 903 667 961 q 617 807 667 839 q 464 775 568 775 q 370 777 422 775 q 261 785 318 779 l 283 804 q 294 690 297 751 q 271 574 290 629 l 258 583 q 328 598 288 592 q 413 608 369 604 q 493 613 457 613 q 601 585 569 613 q 632 519 632 558 q 595 447 632 476 q 469 417 558 417 q 358 422 415 417 q 247 438 301 428 l 267 454 q 287 369 281 418 q 290 270 293 319 q 275 183 288 221 l 260 200 q 342 226 296 215 q 435 242 388 236 q 524 247 482 247 q 629 223 594 247 q 664 142 664 199 q 645 78 664 106 q 583 31 626 50 q 520 10 557 19 q 442 -3 483 1 q 361 -8 401 -8 q 207 17 268 -8 q 118 90 146 42 q 77 224 90 142 q 64 449 64 306 q 74 669 64 582 q 101 810 83 756 q 142 897 119 865 q 228 969 175 942 q 349 1010 282 997 q 492 1022 417 1022 m 244 1053 q 165 1082 190 1053 q 140 1150 140 1111 q 174 1231 140 1203 q 267 1260 207 1260 q 345 1228 319 1260 q 371 1154 371 1197 q 335 1078 371 1104 q 244 1053 300 1053 m 540 1274 q 622 1242 597 1274 q 647 1168 647 1210 q 616 1087 647 1114 q 526 1060 585 1060 q 445 1090 472 1060 q 418 1164 418 1121 q 451 1245 418 1217 q 540 1274 485 1274 z "},"Ė":{"ha":692,"x_min":64,"x_max":667,"o":"m 492 1022 q 626 992 586 1022 q 667 903 667 961 q 617 807 667 839 q 464 775 568 775 q 370 777 422 775 q 261 785 318 779 l 283 804 q 294 690 297 751 q 271 574 290 629 l 258 583 q 328 598 288 592 q 413 608 369 604 q 493 613 457 613 q 601 585 569 613 q 632 519 632 558 q 595 447 632 476 q 469 417 558 417 q 358 422 415 417 q 247 438 301 428 l 267 454 q 287 369 281 418 q 290 270 293 319 q 275 183 288 221 l 260 200 q 342 226 296 215 q 435 242 388 236 q 524 247 482 247 q 629 223 594 247 q 664 142 664 199 q 645 78 664 106 q 583 31 626 50 q 520 10 557 19 q 442 -3 483 1 q 361 -8 401 -8 q 207 17 268 -8 q 118 90 146 42 q 77 224 90 142 q 64 449 64 306 q 74 669 64 582 q 101 810 83 756 q 142 897 119 865 q 228 969 175 942 q 349 1010 282 997 q 492 1022 417 1022 m 406 1290 q 498 1256 469 1290 q 526 1176 526 1221 q 492 1090 526 1121 q 394 1060 457 1060 q 303 1093 333 1060 q 272 1172 272 1126 q 309 1260 272 1231 q 406 1290 346 1290 z "},"È":{"ha":692,"x_min":64,"x_max":667,"o":"m 492 1022 q 626 992 586 1022 q 667 903 667 961 q 617 807 667 839 q 464 775 568 775 q 370 777 422 775 q 261 785 318 779 l 283 804 q 294 690 297 751 q 271 574 290 629 l 258 583 q 328 598 288 592 q 413 608 369 604 q 493 613 457 613 q 601 585 569 613 q 632 519 632 558 q 595 447 632 476 q 469 417 558 417 q 358 422 415 417 q 247 438 301 428 l 267 454 q 287 369 281 418 q 290 270 293 319 q 275 183 288 221 l 260 200 q 342 226 296 215 q 435 242 388 236 q 524 247 482 247 q 629 223 594 247 q 664 142 664 199 q 645 78 664 106 q 583 31 626 50 q 520 10 557 19 q 442 -3 483 1 q 361 -8 401 -8 q 207 17 268 -8 q 118 90 146 42 q 77 224 90 142 q 64 449 64 306 q 74 669 64 582 q 101 810 83 756 q 142 897 119 865 q 228 969 175 942 q 349 1010 282 997 q 492 1022 417 1022 m 517 1082 q 506 1057 517 1068 q 476 1046 496 1046 q 418 1051 454 1046 q 342 1067 382 1057 q 264 1090 303 1078 q 191 1124 218 1106 q 164 1169 164 1142 q 176 1213 164 1189 q 212 1253 189 1236 q 263 1271 235 1271 q 332 1249 293 1271 q 417 1193 371 1228 q 490 1133 463 1160 q 517 1082 517 1106 z "},"Ē":{"ha":692,"x_min":64,"x_max":667,"o":"m 492 1022 q 626 992 586 1022 q 667 903 667 961 q 617 807 667 839 q 464 775 568 775 q 370 777 422 775 q 261 785 318 779 l 283 804 q 294 690 297 751 q 271 574 290 629 l 258 583 q 328 598 288 592 q 413 608 369 604 q 493 613 457 613 q 601 585 569 613 q 632 519 632 558 q 595 447 632 476 q 469 417 558 417 q 358 422 415 417 q 247 438 301 428 l 267 454 q 287 369 281 418 q 290 270 293 319 q 275 183 288 221 l 260 200 q 342 226 296 215 q 435 242 388 236 q 524 247 482 247 q 629 223 594 247 q 664 142 664 199 q 645 78 664 106 q 583 31 626 50 q 520 10 557 19 q 442 -3 483 1 q 361 -8 401 -8 q 207 17 268 -8 q 118 90 146 42 q 77 224 90 142 q 64 449 64 306 q 74 669 64 582 q 101 810 83 756 q 142 897 119 865 q 228 969 175 942 q 349 1010 282 997 q 492 1022 417 1022 m 250 1054 q 169 1076 196 1054 q 143 1132 143 1097 q 167 1188 143 1167 q 246 1221 190 1208 q 335 1235 286 1229 q 434 1242 385 1240 q 525 1244 483 1244 q 618 1223 590 1244 q 646 1167 646 1201 q 622 1108 646 1129 q 549 1076 597 1086 q 454 1065 510 1071 q 344 1057 399 1060 q 250 1054 290 1054 z "},"Ę":{"ha":692,"x_min":64,"x_max":667,"o":"m 492 1022 q 626 992 586 1022 q 667 903 667 961 q 617 807 667 839 q 464 775 568 775 q 370 777 422 775 q 261 785 318 779 l 283 804 q 294 690 297 751 q 271 574 290 629 l 258 583 q 328 598 288 592 q 413 608 369 604 q 493 613 457 613 q 601 585 569 613 q 632 519 632 558 q 595 447 632 476 q 469 417 558 417 q 358 422 415 417 q 247 438 301 428 l 267 454 q 287 369 281 418 q 290 270 293 319 q 275 183 288 221 l 260 200 q 342 226 296 215 q 435 242 388 236 q 524 247 482 247 q 629 223 594 247 q 664 142 664 199 q 645 78 664 106 q 583 31 626 50 q 520 10 557 19 q 442 -3 483 1 q 361 -8 401 -8 q 207 17 268 -8 q 118 90 146 42 q 77 224 90 142 q 64 449 64 306 q 74 669 64 582 q 101 810 83 756 q 142 897 119 865 q 228 969 175 942 q 349 1010 282 997 q 492 1022 417 1022 m 493 -293 q 376 -261 422 -293 q 331 -167 331 -229 q 367 -61 331 -112 q 489 39 404 -10 l 600 42 q 507 -51 542 -3 q 472 -126 472 -100 q 482 -147 472 -142 q 508 -153 492 -153 q 532 -151 519 -153 q 560 -150 544 -150 q 605 -166 590 -150 q 619 -210 619 -182 q 587 -272 619 -251 q 493 -293 554 -293 z "},"F":{"ha":649,"x_min":64,"x_max":629,"o":"m 461 994 q 591 961 553 994 q 629 872 629 928 q 576 772 629 804 q 411 740 522 740 q 346 742 382 740 q 271 749 310 744 l 282 772 q 291 680 292 735 q 279 574 290 625 l 265 590 q 470 560 394 582 q 577 505 546 539 q 608 424 608 471 q 582 353 608 382 q 500 325 556 325 q 380 352 444 325 q 247 432 315 379 l 285 431 q 308 348 297 400 q 327 236 319 296 q 335 124 335 176 q 301 3 335 42 q 211 -36 268 -36 q 143 -17 171 -36 q 100 42 115 3 q 74 178 83 86 q 64 407 64 269 q 86 717 64 603 q 143 881 108 832 q 224 945 172 919 q 338 983 275 971 q 461 994 400 994 z "},"G":{"ha":842,"x_min":44,"x_max":826,"o":"m 608 379 q 551 374 578 375 q 501 374 525 374 q 398 391 426 374 q 369 449 369 408 q 387 499 369 476 q 438 538 404 521 q 530 565 474 554 q 647 576 586 576 q 779 556 732 576 q 826 486 826 536 q 799 423 826 449 q 710 390 772 397 l 608 379 m 717 410 q 771 329 754 372 q 788 244 788 286 q 753 120 788 179 q 648 23 719 61 q 461 -15 576 -15 q 228 44 321 -15 q 90 212 135 104 q 44 464 44 319 q 105 749 44 625 q 275 944 165 874 q 532 1014 385 1014 q 709 969 647 1014 q 771 850 771 924 q 740 774 771 801 q 649 747 708 747 q 603 751 628 747 q 553 759 579 756 q 497 763 526 763 q 379 733 433 763 q 293 638 325 704 q 261 461 261 572 q 288 307 261 367 q 364 219 315 247 q 474 192 413 192 q 546 206 521 192 q 581 250 571 221 q 592 322 592 279 q 588 367 592 342 q 575 418 583 393 l 717 410 z "},"Ğ":{"ha":842,"x_min":44,"x_max":826,"o":"m 608 379 q 551 374 578 375 q 501 374 525 374 q 398 391 426 374 q 369 449 369 408 q 387 499 369 476 q 438 538 404 521 q 530 565 474 554 q 647 576 586 576 q 779 556 732 576 q 826 486 826 536 q 799 423 826 449 q 710 390 772 397 l 608 379 m 717 410 q 771 329 754 372 q 788 244 788 286 q 753 120 788 179 q 648 23 719 61 q 461 -15 576 -15 q 228 44 321 -15 q 90 212 135 104 q 44 464 44 319 q 105 749 44 625 q 275 944 165 874 q 532 1014 385 1014 q 709 969 647 1014 q 771 850 771 924 q 740 774 771 801 q 649 747 708 747 q 603 751 628 747 q 553 759 579 756 q 497 763 526 763 q 379 733 433 763 q 293 638 325 704 q 261 461 261 572 q 288 307 261 367 q 364 219 315 247 q 474 192 413 192 q 546 206 521 192 q 581 250 571 221 q 592 322 592 279 q 588 367 592 342 q 575 418 583 393 l 717 410 m 456 1047 q 313 1096 364 1047 q 261 1210 261 1144 q 322 1276 261 1276 q 393 1211 379 1276 q 413 1167 400 1182 q 454 1153 425 1153 q 492 1165 479 1153 q 511 1206 504 1178 q 538 1268 521 1246 q 589 1290 554 1290 q 635 1271 619 1290 q 650 1217 650 1251 q 628 1133 650 1172 q 562 1071 606 1094 q 456 1047 518 1047 z "},"Ģ":{"ha":842,"x_min":44,"x_max":826,"o":"m 608 379 q 551 374 578 375 q 501 374 525 374 q 398 391 426 374 q 369 449 369 408 q 387 499 369 476 q 438 538 404 521 q 530 565 474 554 q 647 576 586 576 q 779 556 732 576 q 826 486 826 536 q 799 423 826 449 q 710 390 772 397 l 608 379 m 717 410 q 771 329 754 372 q 788 244 788 286 q 753 120 788 179 q 648 23 719 61 q 461 -15 576 -15 q 228 44 321 -15 q 90 212 135 104 q 44 464 44 319 q 105 749 44 625 q 275 944 165 874 q 532 1014 385 1014 q 709 969 647 1014 q 771 850 771 924 q 740 774 771 801 q 649 747 708 747 q 603 751 628 747 q 553 759 579 756 q 497 763 526 763 q 379 733 433 763 q 293 638 325 704 q 261 461 261 572 q 288 307 261 367 q 364 219 315 247 q 474 192 413 192 q 546 206 521 192 q 581 250 571 221 q 592 322 592 279 q 588 367 592 342 q 575 418 583 393 l 717 410 m 443 -250 q 347 -225 375 -250 q 319 -154 319 -200 q 331 -103 319 -128 q 367 -63 342 -79 q 439 -47 393 -47 q 522 -76 490 -47 q 554 -165 554 -104 q 540 -239 554 -199 q 499 -311 526 -279 q 455 -351 476 -337 q 414 -365 433 -365 q 388 -358 399 -365 q 378 -336 378 -351 q 389 -301 378 -324 q 438 -239 400 -278 l 443 -250 z "},"Ġ":{"ha":842,"x_min":44,"x_max":826,"o":"m 608 379 q 551 374 578 375 q 501 374 525 374 q 398 391 426 374 q 369 449 369 408 q 387 499 369 476 q 438 538 404 521 q 530 565 474 554 q 647 576 586 576 q 779 556 732 576 q 826 486 826 536 q 799 423 826 449 q 710 390 772 397 l 608 379 m 717 410 q 771 329 754 372 q 788 244 788 286 q 753 120 788 179 q 648 23 719 61 q 461 -15 576 -15 q 228 44 321 -15 q 90 212 135 104 q 44 464 44 319 q 105 749 44 625 q 275 944 165 874 q 532 1014 385 1014 q 709 969 647 1014 q 771 850 771 924 q 740 774 771 801 q 649 747 708 747 q 603 751 628 747 q 553 759 579 756 q 497 763 526 763 q 379 733 433 763 q 293 638 325 704 q 261 461 261 572 q 288 307 261 367 q 364 219 315 247 q 474 192 413 192 q 546 206 521 192 q 581 250 571 221 q 592 322 592 279 q 588 367 592 342 q 575 418 583 393 l 717 410 m 467 1290 q 559 1256 531 1290 q 588 1176 588 1221 q 553 1090 588 1121 q 456 1060 518 1060 q 364 1093 394 1060 q 333 1172 333 1126 q 370 1260 333 1231 q 467 1290 407 1290 z "},"H":{"ha":849,"x_min":64,"x_max":785,"o":"m 236 1021 q 311 989 285 1021 q 338 889 338 957 q 320 734 338 821 q 272 569 303 647 l 242 593 q 418 615 328 617 q 583 588 508 614 l 550 579 q 525 745 533 663 q 517 892 517 828 q 543 996 517 963 q 622 1029 569 1029 q 707 994 676 1029 q 753 888 738 960 q 776 726 768 821 q 785 532 785 631 q 778 334 785 435 q 758 146 772 233 q 712 29 744 65 q 618 -7 679 -7 q 531 31 557 -7 q 504 161 504 68 q 517 320 504 238 q 551 483 529 403 l 589 444 q 422 423 510 422 q 251 444 335 424 l 263 488 q 315 319 293 406 q 338 144 338 232 q 304 25 338 61 q 213 -11 271 -11 q 132 17 163 -11 q 88 117 101 44 q 70 266 76 176 q 64 454 64 356 q 74 685 64 574 q 103 878 85 797 q 151 985 119 949 q 236 1021 182 1021 z "},"Ħ":{"ha":849,"x_min":-44,"x_max":890,"o":"m 213 -11 q 132 17 163 -11 q 88 117 101 44 q 70 266 76 176 q 64 454 64 356 q 74 685 64 574 q 103 878 85 797 q 151 985 119 949 q 236 1021 182 1021 q 311 989 285 1021 q 338 889 338 957 q 320 734 338 821 q 272 569 303 647 l 242 593 q 418 615 328 617 q 583 588 508 614 l 550 579 q 525 745 533 663 q 517 892 517 828 q 542 996 517 963 q 622 1029 568 1029 q 707 994 676 1029 q 753 888 738 960 q 776 726 768 821 q 785 532 785 631 q 778 334 785 435 q 758 146 772 233 q 712 29 744 65 q 618 -7 679 -7 q 531 31 557 -7 q 504 161 504 68 q 517 320 504 238 q 551 483 529 403 l 589 444 q 422 423 510 422 q 251 444 335 424 l 263 488 q 315 319 293 406 q 338 144 338 232 q 304 25 338 61 q 213 -11 271 -11 m 71 696 q -18 715 8 696 q -44 767 -44 733 q -21 820 -44 797 q 71 854 3 843 q 221 870 135 863 q 404 884 307 878 q 595 894 501 890 q 767 899 689 899 q 863 878 836 899 q 890 822 890 857 q 865 768 890 790 q 782 738 840 746 q 656 724 729 731 q 503 713 583 718 q 341 704 422 708 q 190 698 260 700 q 71 696 119 696 z "},"I":{"ha":410,"x_min":64,"x_max":346,"o":"m 211 1035 q 283 1003 256 1035 q 324 900 311 972 q 340 750 335 843 q 346 551 346 657 q 340 372 346 457 q 324 214 335 288 q 278 83 310 121 q 199 44 247 44 q 122 75 150 44 q 81 179 93 106 q 69 308 74 228 q 64 482 64 389 q 72 715 64 608 q 94 893 81 822 q 137 1001 110 968 q 211 1035 164 1035 z "},"Ĳ":{"ha":1157,"x_min":64,"x_max":1138,"o":"m 211 1035 q 283 1003 256 1035 q 324 900 311 972 q 340 750 335 843 q 346 551 346 657 q 340 372 346 457 q 324 214 335 288 q 278 83 310 121 q 199 44 247 44 q 122 75 150 44 q 81 179 93 106 q 69 308 74 228 q 64 482 64 389 q 72 715 64 608 q 94 893 81 822 q 137 1001 110 968 q 211 1035 164 1035 m 807 785 q 719 763 760 771 q 643 756 678 756 q 564 778 592 756 q 536 844 536 800 q 558 913 536 881 q 626 971 581 946 q 737 1009 671 994 q 888 1024 803 1024 q 992 1015 947 1024 q 1067 992 1038 1007 q 1121 949 1104 974 q 1138 890 1138 924 q 1110 820 1138 846 q 1019 794 1082 794 q 981 797 1001 794 q 940 801 961 799 l 807 785 m 936 854 q 1038 644 1001 764 q 1075 397 1075 525 q 1040 189 1075 282 q 931 40 1006 96 q 736 -15 857 -15 q 505 71 582 -15 q 428 310 428 157 q 451 452 428 394 q 510 540 474 510 q 592 571 547 571 q 659 544 636 571 q 682 472 682 518 q 674 403 682 440 q 665 331 665 365 q 685 234 665 264 q 747 204 706 204 q 831 263 807 204 q 854 421 854 321 q 837 610 854 518 q 781 800 819 703 l 936 854 z "},"Í":{"ha":417,"x_min":64,"x_max":438,"o":"m 217 58 q 147 93 174 58 q 101 210 119 128 q 82 343 90 267 q 69 496 74 419 q 64 631 64 572 q 78 860 64 779 q 121 974 92 942 q 196 1007 150 1007 q 264 972 238 1007 q 308 856 290 936 q 326 753 318 811 q 340 631 335 694 q 349 510 346 568 q 351 410 351 451 q 341 214 351 292 q 301 97 331 136 q 217 58 272 58 m 85 1063 q 113 1113 85 1086 q 185 1174 140 1140 q 269 1230 231 1208 q 339 1251 308 1251 q 391 1234 369 1251 q 425 1193 413 1217 q 438 1150 438 1169 q 411 1104 438 1122 q 338 1071 385 1086 q 260 1048 300 1058 q 184 1032 219 1038 q 125 1026 149 1026 q 96 1038 107 1026 q 85 1063 85 1049 z "},"Î":{"ha":417,"x_min":18,"x_max":397,"o":"m 217 58 q 147 93 174 58 q 101 210 119 128 q 82 343 90 267 q 69 496 74 419 q 64 631 64 572 q 78 860 64 779 q 121 974 92 942 q 196 1007 150 1007 q 264 972 238 1007 q 308 856 290 936 q 326 753 318 811 q 340 631 335 694 q 349 510 346 568 q 351 410 351 451 q 341 214 351 292 q 301 97 331 136 q 217 58 272 58 m 214 1267 q 266 1252 232 1267 q 332 1214 300 1238 q 381 1166 364 1190 q 397 1111 397 1142 q 374 1054 397 1075 q 319 1033 351 1033 q 249 1073 282 1033 q 190 1182 217 1113 l 214 1190 q 147 1065 178 1104 q 82 1026 115 1026 q 36 1043 54 1026 q 18 1086 18 1060 q 36 1144 18 1117 q 86 1200 54 1171 q 154 1250 122 1233 q 214 1267 186 1267 z "},"Ï":{"ha":417,"x_min":8,"x_max":407,"o":"m 217 58 q 147 93 174 58 q 101 210 119 128 q 82 343 90 267 q 69 496 74 419 q 64 631 64 572 q 78 860 64 779 q 121 974 92 942 q 196 1007 150 1007 q 264 972 238 1007 q 308 856 290 936 q 326 753 318 811 q 340 631 335 694 q 349 510 346 568 q 351 410 351 451 q 341 214 351 292 q 301 97 331 136 q 217 58 272 58 m 88 1033 q 27 1063 46 1033 q 8 1131 8 1092 q 35 1212 8 1183 q 111 1240 63 1240 q 171 1209 151 1240 q 190 1135 190 1178 q 163 1059 190 1085 q 88 1033 135 1033 m 322 1254 q 387 1222 367 1254 q 407 1149 407 1190 q 382 1067 407 1094 q 310 1040 357 1040 q 246 1071 267 1040 q 225 1144 225 1101 q 252 1226 225 1197 q 322 1254 279 1254 z "},"İ":{"ha":410,"x_min":64,"x_max":346,"o":"m 211 1035 q 283 1003 256 1035 q 324 900 311 972 q 340 750 335 843 q 346 551 346 657 q 340 372 346 457 q 324 214 335 288 q 278 83 310 121 q 199 44 247 44 q 122 75 150 44 q 81 179 93 106 q 69 308 74 228 q 64 482 64 389 q 72 715 64 608 q 94 893 81 822 q 137 1001 110 968 q 211 1035 164 1035 m 217 1299 q 309 1264 281 1299 q 338 1185 338 1229 q 303 1099 338 1129 q 206 1068 268 1068 q 114 1101 144 1068 q 83 1181 83 1135 q 120 1269 83 1239 q 217 1299 157 1299 z "},"Ì":{"ha":417,"x_min":-22,"x_max":351,"o":"m 217 58 q 147 93 174 58 q 101 210 119 128 q 82 343 90 267 q 69 496 74 419 q 64 631 64 572 q 78 860 64 779 q 121 974 92 942 q 196 1007 150 1007 q 264 972 238 1007 q 308 856 290 936 q 326 753 318 811 q 340 631 335 694 q 349 510 346 568 q 351 410 351 451 q 341 214 351 292 q 301 97 331 136 q 217 58 272 58 m 331 1063 q 320 1038 331 1049 q 290 1026 310 1026 q 232 1032 268 1026 q 156 1048 196 1038 q 78 1071 117 1058 q 5 1104 32 1086 q -22 1150 -22 1122 q -10 1193 -22 1169 q 26 1234 3 1217 q 76 1251 49 1251 q 146 1230 107 1251 q 231 1174 185 1208 q 303 1113 276 1140 q 331 1063 331 1086 z "},"Ī":{"ha":410,"x_min":-47,"x_max":457,"o":"m 211 1035 q 283 1003 256 1035 q 324 900 311 972 q 340 750 335 843 q 346 551 346 657 q 340 372 346 457 q 324 214 335 288 q 278 83 310 121 q 199 44 247 44 q 122 75 150 44 q 81 179 93 106 q 69 308 74 228 q 64 482 64 389 q 72 715 64 608 q 94 893 81 822 q 137 1001 110 968 q 211 1035 164 1035 m 60 1063 q -21 1084 6 1063 q -47 1140 -47 1106 q -24 1196 -47 1175 q 56 1229 0 1217 q 145 1243 96 1238 q 244 1251 194 1249 q 335 1253 293 1253 q 428 1231 400 1253 q 456 1175 456 1210 q 431 1116 456 1138 q 358 1085 407 1094 q 264 1074 319 1079 q 154 1065 208 1068 q 60 1063 100 1063 z "},"Į":{"ha":410,"x_min":-6,"x_max":346,"o":"m 211 1035 q 283 1003 256 1035 q 324 900 311 972 q 340 750 335 843 q 346 551 346 657 q 340 372 346 457 q 324 214 335 288 q 278 83 310 121 q 199 44 247 44 q 122 75 150 44 q 81 179 93 106 q 69 308 74 228 q 64 482 64 389 q 72 715 64 608 q 94 893 81 822 q 137 1001 110 968 q 211 1035 164 1035 m 157 -265 q 40 -233 86 -265 q -6 -139 -6 -201 q 31 -33 -6 -85 q 153 67 68 18 l 264 69 q 171 -24 206 25 q 136 -99 136 -72 q 146 -119 136 -114 q 172 -125 156 -125 q 196 -124 183 -125 q 224 -122 208 -122 q 269 -138 254 -122 q 283 -182 283 -154 q 251 -244 283 -224 q 157 -265 218 -265 z "},"J":{"ha":747,"x_min":18,"x_max":728,"o":"m 397 785 q 309 763 350 771 q 233 756 268 756 q 154 778 182 756 q 126 844 126 800 q 149 913 126 881 q 217 971 171 946 q 327 1009 261 994 q 478 1024 393 1024 q 583 1015 538 1024 q 657 992 628 1007 q 711 949 694 974 q 728 890 728 924 q 700 820 728 846 q 610 794 672 794 q 572 797 592 794 q 531 801 551 799 l 397 785 m 526 854 q 628 644 592 764 q 665 397 665 525 q 631 189 665 282 q 522 40 596 96 q 326 -15 447 -15 q 95 71 172 -15 q 18 310 18 157 q 41 452 18 394 q 101 540 64 510 q 182 571 138 571 q 249 544 226 571 q 272 472 272 518 q 264 403 272 440 q 256 331 256 365 q 276 234 256 264 q 338 204 296 204 q 421 263 397 204 q 444 421 444 321 q 427 610 444 518 q 371 800 410 703 l 526 854 z "},"K":{"ha":768,"x_min":64,"x_max":746,"o":"m 174 -14 q 122 5 142 -14 q 92 64 103 24 q 72 202 81 107 q 64 413 64 297 q 71 656 64 538 q 94 864 78 774 q 132 965 107 932 q 206 997 157 997 q 263 979 239 997 q 299 918 286 961 q 313 797 313 875 q 310 723 313 764 q 303 632 307 682 l 308 632 q 443 862 382 778 q 556 981 504 946 q 650 1017 608 1017 q 721 985 696 1017 q 746 910 746 954 q 659 726 746 825 q 382 499 572 628 l 393 529 q 637 300 556 403 q 718 106 718 197 q 690 30 718 58 q 610 1 661 1 q 511 38 561 1 q 409 160 461 74 q 297 392 357 246 l 292 392 q 296 335 294 364 q 297 278 297 306 q 270 56 297 126 q 174 -14 243 -14 z "},"Ķ":{"ha":768,"x_min":64,"x_max":746,"o":"m 174 -14 q 122 5 142 -14 q 92 64 103 24 q 72 202 81 107 q 64 413 64 297 q 71 656 64 538 q 94 864 78 774 q 132 965 107 932 q 206 997 157 997 q 263 979 239 997 q 299 918 286 961 q 313 797 313 875 q 310 723 313 764 q 303 632 307 682 l 308 632 q 443 862 382 778 q 556 981 504 946 q 650 1017 608 1017 q 721 985 696 1017 q 746 910 746 954 q 659 726 746 825 q 382 499 572 628 l 393 529 q 637 300 556 403 q 718 106 718 197 q 690 30 718 58 q 610 1 661 1 q 511 38 561 1 q 409 160 461 74 q 297 392 357 246 l 292 392 q 296 335 294 364 q 297 278 297 306 q 270 56 297 126 q 174 -14 243 -14 m 396 -250 q 300 -225 328 -250 q 272 -154 272 -200 q 283 -103 272 -128 q 320 -63 294 -79 q 392 -47 346 -47 q 475 -76 443 -47 q 507 -165 507 -104 q 493 -239 507 -199 q 451 -311 479 -279 q 408 -351 429 -337 q 367 -365 386 -365 q 341 -358 351 -365 q 331 -336 331 -351 q 342 -301 331 -324 q 390 -239 353 -278 l 396 -250 z "},"L":{"ha":668,"x_min":64,"x_max":650,"o":"m 310 -8 q 185 17 229 -8 q 114 96 140 42 q 76 237 89 146 q 64 481 64 328 q 71 698 64 594 q 88 858 78 801 q 132 972 101 938 q 211 1007 163 1007 q 283 973 257 1007 q 321 883 310 939 q 332 758 332 826 q 315 458 332 610 q 268 181 297 307 l 249 192 q 340 258 290 231 q 441 299 390 285 q 535 313 492 313 q 621 284 592 313 q 650 203 650 256 q 618 112 650 154 q 529 40 586 69 q 464 15 501 26 q 387 -2 426 4 q 310 -8 347 -8 z "},"Ĺ":{"ha":668,"x_min":64,"x_max":650,"o":"m 310 -8 q 185 17 229 -8 q 114 96 140 42 q 76 237 89 146 q 64 481 64 328 q 71 698 64 594 q 88 858 78 801 q 132 972 101 938 q 211 1007 163 1007 q 283 973 257 1007 q 321 883 310 939 q 332 758 332 826 q 315 458 332 610 q 268 181 297 307 l 249 192 q 340 258 290 231 q 441 299 390 285 q 535 313 492 313 q 621 284 592 313 q 650 203 650 256 q 618 112 650 154 q 529 40 586 69 q 464 15 501 26 q 387 -2 426 4 q 310 -8 347 -8 m 219 1082 q 247 1133 219 1106 q 319 1193 275 1160 q 404 1249 365 1228 q 474 1271 443 1271 q 526 1253 504 1271 q 560 1213 547 1236 q 572 1169 572 1189 q 546 1124 572 1142 q 472 1090 519 1106 q 394 1067 435 1078 q 319 1051 354 1057 q 260 1046 283 1046 q 231 1057 242 1046 q 219 1082 219 1068 z "},"Ľ":{"ha":668,"x_min":64,"x_max":671,"o":"m 310 -8 q 185 17 229 -8 q 114 96 140 42 q 76 237 89 146 q 64 481 64 328 q 71 698 64 594 q 88 858 78 801 q 132 972 101 938 q 211 1007 163 1007 q 283 973 257 1007 q 321 883 310 939 q 332 758 332 826 q 315 458 332 610 q 268 181 297 307 l 249 192 q 340 258 290 231 q 441 299 390 285 q 535 313 492 313 q 621 284 592 313 q 650 203 650 256 q 618 112 650 154 q 529 40 586 69 q 464 15 501 26 q 387 -2 426 4 q 310 -8 347 -8 m 457 757 q 442 810 442 771 q 451 907 442 850 q 471 992 461 953 q 501 1054 481 1031 q 548 1077 519 1075 q 605 1069 576 1079 q 650 1046 633 1060 q 669 1001 671 1028 q 643 929 668 974 q 606 866 628 899 q 563 806 583 833 q 526 761 542 779 q 492 745 513 746 q 457 757 472 744 z "},"Ļ":{"ha":668,"x_min":64,"x_max":650,"o":"m 310 -8 q 185 17 229 -8 q 114 96 140 42 q 76 237 89 146 q 64 481 64 328 q 71 698 64 594 q 88 858 78 801 q 132 972 101 938 q 211 1007 163 1007 q 283 973 257 1007 q 321 883 310 939 q 332 758 332 826 q 315 458 332 610 q 268 181 297 307 l 249 192 q 340 258 290 231 q 441 299 390 285 q 535 313 492 313 q 621 284 592 313 q 650 203 650 256 q 618 112 650 154 q 529 40 586 69 q 464 15 501 26 q 387 -2 426 4 q 310 -8 347 -8 m 351 -250 q 256 -225 283 -250 q 228 -154 228 -200 q 239 -103 228 -128 q 276 -63 250 -79 q 347 -47 301 -47 q 431 -76 399 -47 q 463 -165 463 -104 q 449 -239 463 -199 q 407 -311 435 -279 q 363 -351 385 -337 q 322 -365 342 -365 q 297 -358 307 -365 q 286 -336 286 -351 q 297 -301 286 -324 q 346 -239 308 -278 l 351 -250 z "},"Ł":{"ha":678,"x_min":-75,"x_max":660,"o":"m 78 250 q -3 208 29 210 q -56 231 -35 206 q -72 288 -75 254 q -22 371 -68 321 q 67 467 19 418 q 165 567 114 517 q 272 669 217 618 q 386 769 328 719 q 474 815 440 814 q 529 790 507 817 q 547 733 551 765 q 501 656 542 700 q 401 553 456 607 q 291 444 347 499 q 180 340 235 389 q 78 250 125 290 m 321 -8 q 196 17 240 -8 q 124 96 151 42 q 88 237 100 146 q 75 481 75 328 q 81 698 75 594 q 97 858 88 801 q 143 972 113 938 q 221 1007 174 1007 q 293 973 267 1007 q 331 883 319 939 q 343 758 343 826 q 325 458 343 610 q 278 181 307 307 l 258 192 q 351 258 301 231 q 452 299 401 285 q 544 313 503 313 q 631 284 601 313 q 660 203 660 256 q 628 112 660 154 q 539 40 597 69 q 474 15 511 26 q 398 -2 438 4 q 321 -8 358 -8 z "},"M":{"ha":940,"x_min":64,"x_max":876,"o":"m 728 -11 q 665 6 692 -11 q 622 64 638 22 q 607 181 607 106 q 614 366 607 267 q 632 567 621 465 q 653 764 643 669 l 647 764 q 564 490 610 579 q 461 400 518 400 q 397 433 425 400 q 342 547 368 465 q 286 775 315 629 l 281 775 q 292 637 286 710 q 305 490 299 564 q 315 350 311 417 q 318 231 318 283 q 307 127 318 174 q 268 53 296 81 q 193 26 240 26 q 96 74 128 26 q 64 232 64 122 q 67 364 64 289 q 77 519 71 439 q 92 676 83 600 q 108 808 100 751 q 158 955 126 911 q 244 999 190 999 q 322 965 285 999 q 396 849 360 932 q 467 617 432 765 l 472 617 q 538 859 504 769 q 606 987 571 949 q 678 1025 642 1025 q 767 980 736 1025 q 818 851 799 935 q 850 660 838 769 q 869 437 863 551 q 876 224 876 322 q 836 42 876 94 q 728 -11 796 -11 z "},"N":{"ha":893,"x_min":64,"x_max":828,"o":"m 233 988 q 319 948 278 988 q 405 825 361 908 q 497 611 449 742 q 600 299 544 481 l 606 299 q 589 431 597 360 q 574 573 581 501 q 565 707 568 644 q 561 814 561 769 q 588 976 561 926 q 667 1025 614 1025 q 728 1005 706 1025 q 768 947 751 985 q 815 738 801 871 q 828 435 828 606 q 816 202 828 296 q 773 61 804 108 q 682 14 742 14 q 608 38 644 14 q 535 115 571 63 q 460 252 499 167 q 379 460 421 338 q 290 744 338 582 l 285 744 q 304 588 296 678 q 317 404 313 497 q 322 233 322 311 q 292 46 322 101 q 196 -10 261 -10 q 94 48 125 -10 q 64 226 64 106 q 67 385 64 296 q 78 568 71 474 q 94 749 85 663 q 138 929 110 871 q 233 988 167 988 z "},"Ń":{"ha":893,"x_min":64,"x_max":828,"o":"m 233 988 q 319 948 278 988 q 405 825 361 908 q 497 611 449 742 q 600 299 544 481 l 606 299 q 589 431 597 360 q 574 573 581 501 q 565 707 568 644 q 561 814 561 769 q 588 976 561 926 q 667 1025 614 1025 q 728 1005 706 1025 q 768 947 751 985 q 815 738 801 871 q 828 435 828 606 q 816 202 828 296 q 773 61 804 108 q 682 14 742 14 q 608 38 644 14 q 535 115 571 63 q 460 252 499 167 q 379 460 421 338 q 290 744 338 582 l 285 744 q 304 588 296 678 q 317 404 313 497 q 322 233 322 311 q 292 46 322 101 q 196 -10 261 -10 q 94 48 125 -10 q 64 226 64 106 q 67 385 64 296 q 78 568 71 474 q 94 749 85 663 q 138 929 110 871 q 233 988 167 988 m 319 1082 q 347 1133 319 1106 q 419 1193 375 1160 q 504 1249 465 1228 q 574 1271 543 1271 q 626 1253 604 1271 q 660 1213 647 1236 q 672 1169 672 1189 q 646 1124 672 1142 q 572 1090 619 1106 q 494 1067 535 1078 q 419 1051 454 1057 q 360 1046 383 1046 q 331 1057 342 1046 q 319 1082 319 1068 z "},"Ň":{"ha":893,"x_min":64,"x_max":828,"o":"m 233 988 q 319 948 278 988 q 405 825 361 908 q 497 611 449 742 q 600 299 544 481 l 606 299 q 589 431 597 360 q 574 573 581 501 q 565 707 568 644 q 561 814 561 769 q 588 976 561 926 q 667 1025 614 1025 q 728 1005 706 1025 q 768 947 751 985 q 815 738 801 871 q 828 435 828 606 q 816 202 828 296 q 773 61 804 108 q 682 14 742 14 q 608 38 644 14 q 535 115 571 63 q 460 252 499 167 q 379 460 421 338 q 290 744 338 582 l 285 744 q 304 588 296 678 q 317 404 313 497 q 322 233 322 311 q 292 46 322 101 q 196 -10 261 -10 q 94 48 125 -10 q 64 226 64 106 q 67 385 64 296 q 78 568 71 474 q 94 749 85 663 q 138 929 110 871 q 233 988 167 988 m 449 1060 q 385 1078 419 1060 q 313 1124 350 1096 q 251 1182 274 1154 q 229 1240 229 1210 q 247 1283 229 1267 q 293 1300 265 1300 q 367 1261 328 1300 q 449 1136 406 1222 l 425 1144 q 494 1253 456 1213 q 572 1293 533 1293 q 632 1272 608 1293 q 656 1215 656 1251 q 635 1160 656 1185 q 576 1110 614 1135 q 506 1074 542 1088 q 449 1060 469 1060 z "},"Ņ":{"ha":893,"x_min":64,"x_max":828,"o":"m 233 988 q 319 948 278 988 q 405 825 361 908 q 497 611 449 742 q 600 299 544 481 l 606 299 q 589 431 597 360 q 574 573 581 501 q 565 707 568 644 q 561 814 561 769 q 588 976 561 926 q 667 1025 614 1025 q 728 1005 706 1025 q 768 947 751 985 q 815 738 801 871 q 828 435 828 606 q 816 202 828 296 q 773 61 804 108 q 682 14 742 14 q 608 38 644 14 q 535 115 571 63 q 460 252 499 167 q 379 460 421 338 q 290 744 338 582 l 285 744 q 304 588 296 678 q 317 404 313 497 q 322 233 322 311 q 292 46 322 101 q 196 -10 261 -10 q 94 48 125 -10 q 64 226 64 106 q 67 385 64 296 q 78 568 71 474 q 94 749 85 663 q 138 929 110 871 q 233 988 167 988 m 451 -250 q 356 -225 383 -250 q 328 -154 328 -200 q 339 -103 328 -128 q 376 -63 350 -79 q 447 -47 401 -47 q 531 -76 499 -47 q 563 -165 563 -104 q 549 -239 563 -199 q 507 -311 535 -279 q 463 -351 485 -337 q 422 -365 442 -365 q 397 -358 407 -365 q 386 -336 386 -351 q 397 -301 386 -324 q 446 -239 408 -278 l 451 -250 z "},"Ñ":{"ha":893,"x_min":64,"x_max":828,"o":"m 233 988 q 319 948 278 988 q 405 825 361 908 q 497 611 449 742 q 600 299 544 481 l 606 299 q 589 431 597 360 q 574 573 581 501 q 565 707 568 644 q 561 814 561 769 q 588 976 561 926 q 667 1025 614 1025 q 728 1005 706 1025 q 768 947 751 985 q 815 738 801 871 q 828 435 828 606 q 816 202 828 296 q 773 61 804 108 q 682 14 742 14 q 608 38 644 14 q 535 115 571 63 q 460 252 499 167 q 379 460 421 338 q 290 744 338 582 l 285 744 q 304 588 296 678 q 317 404 313 497 q 322 233 322 311 q 292 46 322 101 q 196 -10 261 -10 q 94 48 125 -10 q 64 226 64 106 q 67 385 64 296 q 78 568 71 474 q 94 749 85 663 q 138 929 110 871 q 233 988 167 988 m 363 1256 q 445 1235 408 1256 q 515 1179 482 1215 q 532 1171 525 1169 q 540 1182 539 1172 q 572 1253 553 1231 q 625 1276 590 1276 q 685 1213 685 1276 q 669 1144 685 1183 q 622 1076 654 1106 q 535 1047 589 1047 q 453 1074 489 1047 q 383 1147 418 1100 q 367 1158 375 1160 q 354 1136 358 1157 q 324 1060 344 1083 q 268 1038 304 1038 q 220 1058 239 1038 q 201 1107 201 1079 q 222 1178 201 1144 q 279 1234 243 1213 q 363 1256 315 1256 z "},"Ŋ":{"ha":886,"x_min":64,"x_max":828,"o":"m 611 -290 q 519 -268 560 -290 q 454 -210 478 -246 q 431 -136 431 -175 q 451 -80 431 -100 q 507 -60 472 -60 q 580 -80 542 -60 q 658 -140 618 -100 q 640 -55 646 -96 q 631 28 633 -14 q 548 102 588 50 q 467 241 508 154 q 383 453 426 328 q 290 744 340 578 l 285 744 q 304 588 296 678 q 317 404 313 497 q 322 233 322 311 q 292 46 322 101 q 196 -10 261 -10 q 94 48 125 -10 q 64 226 64 106 q 67 385 64 296 q 78 568 71 474 q 94 749 85 663 q 138 929 110 871 q 233 988 167 988 q 319 948 278 988 q 405 825 361 908 q 497 611 449 742 q 600 299 544 481 l 606 299 q 589 431 597 360 q 574 573 581 501 q 565 707 568 644 q 561 814 561 769 q 588 976 561 926 q 667 1025 614 1025 q 728 1005 706 1025 q 768 947 751 985 q 803 821 790 897 q 822 651 815 744 q 828 453 828 558 q 828 349 828 401 q 826 244 828 296 q 822 142 825 192 q 817 48 819 93 q 809 -35 814 3 q 799 -104 804 -74 q 733 -247 779 -203 q 611 -290 688 -290 z "},"O":{"ha":897,"x_min":44,"x_max":853,"o":"m 432 10 q 226 64 314 10 q 92 219 139 118 q 44 457 44 319 q 92 725 44 610 q 229 905 140 840 q 436 969 318 969 q 657 907 564 969 q 801 733 750 844 q 853 472 853 621 q 801 226 853 329 q 655 66 750 122 q 432 10 560 10 m 451 272 q 535 301 500 272 q 590 385 571 331 q 608 518 608 440 q 590 651 608 596 q 535 734 571 706 q 451 763 500 763 q 369 734 404 763 q 315 651 335 706 q 296 518 296 596 q 315 385 296 440 q 369 301 335 331 q 451 272 404 272 z "},"Ó":{"ha":897,"x_min":44,"x_max":853,"o":"m 432 10 q 226 64 314 10 q 92 219 139 118 q 44 457 44 319 q 92 725 44 610 q 229 905 140 840 q 436 969 318 969 q 657 907 564 969 q 801 733 750 844 q 853 472 853 621 q 801 226 853 329 q 655 66 750 122 q 432 10 560 10 m 451 272 q 535 301 500 272 q 590 385 571 331 q 608 518 608 440 q 590 651 608 596 q 535 734 571 706 q 451 763 500 763 q 369 734 404 763 q 315 651 335 706 q 296 518 296 596 q 315 385 296 440 q 369 301 335 331 q 451 272 404 272 m 326 1025 q 354 1076 326 1049 q 426 1136 382 1103 q 511 1192 472 1171 q 581 1214 550 1214 q 633 1197 611 1214 q 667 1156 654 1179 q 679 1113 679 1132 q 653 1067 679 1085 q 579 1033 626 1049 q 501 1010 542 1021 q 426 994 461 1000 q 367 989 390 989 q 338 1000 349 989 q 326 1025 326 1011 z "},"Ô":{"ha":897,"x_min":44,"x_max":853,"o":"m 432 10 q 226 64 314 10 q 92 219 139 118 q 44 457 44 319 q 92 725 44 610 q 229 905 140 840 q 436 969 318 969 q 657 907 564 969 q 801 733 750 844 q 853 472 853 621 q 801 226 853 329 q 655 66 750 122 q 432 10 560 10 m 451 272 q 535 301 500 272 q 590 385 571 331 q 608 518 608 440 q 590 651 608 596 q 535 734 571 706 q 451 763 500 763 q 369 734 404 763 q 315 651 335 706 q 296 518 296 596 q 315 385 296 440 q 369 301 335 331 q 451 272 404 272 m 456 1229 q 513 1215 476 1229 q 583 1178 549 1200 q 642 1128 621 1153 q 663 1074 663 1104 q 639 1017 663 1038 q 579 996 615 996 q 501 1035 540 996 q 432 1144 463 1075 l 456 1153 q 374 1028 413 1067 q 300 989 335 989 q 254 1006 272 989 q 236 1049 236 1022 q 258 1107 236 1079 q 319 1165 281 1135 q 392 1212 357 1194 q 456 1229 426 1229 z "},"Ö":{"ha":897,"x_min":44,"x_max":853,"o":"m 432 10 q 226 64 314 10 q 92 219 139 118 q 44 457 44 319 q 92 725 44 610 q 229 905 140 840 q 436 969 318 969 q 657 907 564 969 q 801 733 750 844 q 853 472 853 621 q 801 226 853 329 q 655 66 750 122 q 432 10 560 10 m 451 272 q 535 301 500 272 q 590 385 571 331 q 608 518 608 440 q 590 651 608 596 q 535 734 571 706 q 451 763 500 763 q 369 734 404 763 q 315 651 335 706 q 296 518 296 596 q 315 385 296 440 q 369 301 335 331 q 451 272 404 272 m 300 996 q 221 1025 246 996 q 196 1093 196 1054 q 229 1174 196 1146 q 322 1203 263 1203 q 401 1172 375 1203 q 426 1097 426 1140 q 391 1022 426 1047 q 300 996 356 996 m 596 1217 q 678 1185 653 1217 q 703 1111 703 1153 q 672 1030 703 1057 q 582 1003 640 1003 q 501 1033 528 1003 q 474 1107 474 1064 q 507 1188 474 1160 q 596 1217 540 1217 z "},"Ò":{"ha":897,"x_min":44,"x_max":853,"o":"m 432 10 q 226 64 314 10 q 92 219 139 118 q 44 457 44 319 q 92 725 44 610 q 229 905 140 840 q 436 969 318 969 q 657 907 564 969 q 801 733 750 844 q 853 472 853 621 q 801 226 853 329 q 655 66 750 122 q 432 10 560 10 m 451 272 q 535 301 500 272 q 590 385 571 331 q 608 518 608 440 q 590 651 608 596 q 535 734 571 706 q 451 763 500 763 q 369 734 404 763 q 315 651 335 706 q 296 518 296 596 q 315 385 296 440 q 369 301 335 331 q 451 272 404 272 m 572 1025 q 562 1000 572 1011 q 532 989 551 989 q 474 994 510 989 q 398 1010 438 1000 q 319 1033 358 1021 q 247 1067 274 1049 q 219 1113 219 1085 q 232 1156 219 1132 q 267 1197 244 1179 q 318 1214 290 1214 q 388 1192 349 1214 q 472 1136 426 1171 q 545 1076 518 1103 q 572 1025 572 1049 z "},"Ő":{"ha":897,"x_min":44,"x_max":853,"o":"m 432 10 q 226 64 314 10 q 92 219 139 118 q 44 457 44 319 q 92 725 44 610 q 229 905 140 840 q 436 969 318 969 q 657 907 564 969 q 801 733 750 844 q 853 472 853 621 q 801 226 853 329 q 655 66 750 122 q 432 10 560 10 m 451 272 q 535 301 500 272 q 590 385 571 331 q 608 518 608 440 q 590 651 608 596 q 535 734 571 706 q 451 763 500 763 q 369 734 404 763 q 315 651 335 706 q 296 518 296 596 q 315 385 296 440 q 369 301 335 331 q 451 272 404 272 m 554 988 q 528 997 539 988 q 517 1024 517 1007 q 529 1073 517 1043 q 563 1139 542 1103 q 597 1196 579 1167 q 635 1244 614 1225 q 682 1264 656 1264 q 724 1252 701 1264 q 762 1222 747 1240 q 776 1186 776 1204 q 726 1110 776 1157 q 676 1065 704 1088 q 622 1025 649 1043 q 579 996 596 1007 q 566 990 572 992 q 554 988 560 988 m 292 988 q 267 997 279 988 q 256 1022 256 1006 q 268 1072 256 1043 q 301 1138 281 1101 q 335 1194 318 1165 q 374 1243 353 1224 q 421 1263 396 1263 q 465 1251 443 1263 q 501 1222 486 1239 q 515 1186 515 1204 q 468 1108 515 1156 q 414 1064 443 1086 q 359 1024 385 1042 q 317 996 333 1006 q 304 990 311 992 q 292 988 297 988 z "},"Ō":{"ha":897,"x_min":44,"x_max":853,"o":"m 432 10 q 226 64 314 10 q 92 219 139 118 q 44 457 44 319 q 92 725 44 610 q 229 905 140 840 q 436 969 318 969 q 657 907 564 969 q 801 733 750 844 q 853 472 853 621 q 801 226 853 329 q 655 66 750 122 q 432 10 560 10 m 451 272 q 535 301 500 272 q 590 385 571 331 q 608 518 608 440 q 590 651 608 596 q 535 734 571 706 q 451 763 500 763 q 369 734 404 763 q 315 651 335 706 q 296 518 296 596 q 315 385 296 440 q 369 301 335 331 q 451 272 404 272 m 304 997 q 224 1019 250 997 q 197 1075 197 1040 q 221 1131 197 1110 q 300 1164 244 1151 q 390 1178 340 1172 q 488 1185 439 1183 q 579 1188 538 1188 q 672 1166 644 1188 q 700 1110 700 1144 q 676 1051 700 1072 q 603 1019 651 1029 q 508 1008 564 1014 q 399 1000 453 1003 q 304 997 344 997 z "},"Ø":{"ha":897,"x_min":44,"x_max":853,"o":"m 432 10 q 226 64 314 10 q 92 219 139 118 q 44 457 44 319 q 92 725 44 610 q 229 905 140 840 q 436 969 318 969 q 657 907 564 969 q 801 733 750 844 q 853 472 853 621 q 801 226 853 329 q 655 66 750 122 q 432 10 560 10 m 451 256 q 551 286 510 256 q 616 376 593 317 q 639 518 639 435 q 616 660 639 601 q 551 749 593 718 q 451 779 510 779 q 353 749 396 779 q 288 660 311 718 q 265 518 265 601 q 288 376 265 435 q 353 286 311 317 q 451 256 396 256 m 161 64 q 231 217 189 126 q 324 411 274 307 q 427 619 375 515 q 528 815 479 724 q 613 974 576 907 q 670 1042 644 1028 q 719 1044 696 1056 q 749 1003 744 1035 q 728 911 754 972 q 647 731 692 828 q 551 534 601 635 q 451 338 501 433 q 357 159 401 242 q 279 17 313 76 q 216 -60 243 -46 q 167 -64 189 -74 q 140 -24 143 -53 q 161 64 136 6 z "},"Õ":{"ha":897,"x_min":44,"x_max":853,"o":"m 432 10 q 226 64 314 10 q 92 219 139 118 q 44 457 44 319 q 92 725 44 610 q 229 905 140 840 q 436 969 318 969 q 657 907 564 969 q 801 733 750 844 q 853 472 853 621 q 801 226 853 329 q 655 66 750 122 q 432 10 560 10 m 451 272 q 535 301 500 272 q 590 385 571 331 q 608 518 608 440 q 590 651 608 596 q 535 734 571 706 q 451 763 500 763 q 369 734 404 763 q 315 651 335 706 q 296 518 296 596 q 315 385 296 440 q 369 301 335 331 q 451 272 404 272 m 369 1199 q 452 1178 415 1199 q 522 1122 489 1158 q 539 1114 532 1113 q 547 1125 546 1115 q 578 1197 560 1174 q 632 1219 597 1219 q 692 1156 692 1219 q 676 1088 692 1126 q 628 1019 661 1049 q 542 990 596 990 q 460 1017 496 990 q 390 1090 425 1043 q 374 1101 382 1103 q 361 1079 365 1100 q 331 1003 351 1026 q 275 981 311 981 q 227 1001 246 981 q 208 1050 208 1022 q 229 1122 208 1088 q 286 1177 250 1156 q 369 1199 322 1199 z "},"Œ":{"ha":1240,"x_min":44,"x_max":1215,"o":"m 432 10 q 226 64 314 10 q 92 219 139 118 q 44 457 44 319 q 92 725 44 610 q 229 905 140 840 q 436 969 318 969 q 635 907 556 969 q 756 733 715 844 q 797 472 797 621 q 704 134 797 258 q 432 10 611 10 m 451 272 q 535 301 500 272 q 590 385 571 331 q 608 518 608 440 q 590 651 608 596 q 535 734 571 706 q 451 763 500 763 q 369 734 404 763 q 315 651 335 706 q 296 518 296 596 q 315 385 296 440 q 369 301 335 331 q 451 272 404 272 m 1040 1022 q 1175 992 1135 1022 q 1215 903 1215 961 q 1166 807 1215 839 q 1013 775 1117 775 q 919 777 971 775 q 810 785 867 779 l 832 804 q 842 690 846 751 q 819 574 839 629 l 807 583 q 877 598 836 592 q 962 608 918 604 q 1042 613 1006 613 q 1149 585 1118 613 q 1181 519 1181 558 q 1144 447 1181 476 q 1018 417 1107 417 q 907 422 964 417 q 796 438 850 428 l 815 454 q 835 369 829 418 q 839 270 842 319 q 824 183 836 221 l 808 200 q 890 226 844 215 q 983 242 936 236 q 1072 247 1031 247 q 1178 223 1143 247 q 1213 142 1213 199 q 1194 78 1213 106 q 1132 31 1175 50 q 1069 10 1106 19 q 991 -3 1032 1 q 910 -8 950 -8 q 756 17 817 -8 q 667 90 694 42 q 626 224 639 142 q 613 449 613 306 q 622 669 613 582 q 650 810 632 756 q 690 897 668 865 q 777 969 724 942 q 898 1010 831 997 q 1040 1022 965 1022 z "},"P":{"ha":739,"x_min":64,"x_max":713,"o":"m 424 999 q 642 914 572 999 q 713 692 713 829 q 674 528 713 597 q 571 420 636 458 q 424 382 506 382 q 356 390 392 382 q 282 421 321 399 l 297 447 q 316 365 308 414 q 328 266 324 317 q 333 172 333 215 q 300 37 333 83 q 200 -10 267 -10 q 117 21 147 -10 q 76 121 88 51 q 64 306 64 190 q 84 635 64 499 q 147 851 104 772 q 251 958 183 917 q 424 999 319 999 m 396 554 q 494 599 456 554 q 532 722 532 643 q 509 803 532 771 q 435 836 486 836 q 364 811 394 836 q 317 744 333 786 q 300 650 300 703 q 324 578 300 603 q 396 554 347 554 z "},"Þ":{"ha":739,"x_min":65,"x_max":713,"o":"m 200 -10 q 96 54 126 -10 q 65 260 65 118 q 67 379 65 311 q 69 524 68 447 q 74 672 71 600 q 78 805 76 744 q 82 901 81 865 q 112 1035 85 989 q 204 1082 139 1082 q 261 1066 239 1082 q 295 1022 283 1050 q 308 954 307 993 q 304 905 308 929 q 292 858 300 881 q 276 814 285 835 q 347 853 310 840 q 435 867 383 867 q 644 782 575 867 q 713 560 713 697 q 674 396 713 465 q 571 288 635 326 q 428 250 507 250 q 363 256 399 250 q 293 282 326 263 q 318 219 310 251 q 326 149 326 186 q 297 32 326 74 q 200 -10 267 -10 m 396 422 q 494 467 456 422 q 532 590 532 511 q 509 672 532 639 q 435 704 486 704 q 364 679 394 704 q 317 613 333 654 q 300 518 300 571 q 324 447 300 471 q 396 422 347 422 z "},"Q":{"ha":910,"x_min":44,"x_max":929,"o":"m 432 10 q 225 65 313 10 q 91 222 138 119 q 44 468 44 325 q 97 752 44 631 q 242 941 149 874 q 463 1008 336 1008 q 630 971 556 1008 q 757 867 704 933 q 838 715 810 801 q 867 528 867 628 q 841 340 867 426 q 769 200 815 254 l 697 122 q 585 38 656 67 q 432 10 515 10 m 835 -25 q 747 16 792 -25 q 658 135 701 57 l 761 233 q 885 159 840 201 q 929 64 929 117 q 904 2 929 29 q 835 -25 879 -25 m 574 263 q 475 347 510 304 q 440 426 440 390 q 458 472 440 456 q 500 488 475 488 q 572 449 538 488 q 636 333 606 411 l 574 263 m 468 257 q 526 267 499 257 q 576 299 554 278 l 610 340 q 630 415 622 374 q 638 507 638 457 q 588 715 638 640 q 456 790 538 790 q 367 758 406 790 q 308 665 329 725 q 288 522 288 606 q 310 382 288 442 q 373 290 332 322 q 468 257 414 257 z "},"R":{"ha":793,"x_min":64,"x_max":761,"o":"m 199 -10 q 117 22 146 -10 q 76 124 88 53 q 64 314 64 194 q 88 660 64 517 q 168 885 113 804 q 297 994 222 963 q 463 1026 372 1026 q 688 949 615 1026 q 761 743 761 871 q 719 574 761 642 q 604 474 676 507 q 442 439 532 440 l 442 435 q 682 272 610 353 q 754 118 754 190 q 724 38 754 68 q 639 7 693 7 q 536 44 589 7 q 426 167 483 81 q 299 406 368 254 l 293 406 q 305 335 300 376 q 313 249 310 293 q 317 165 317 204 q 290 35 317 81 q 199 -10 263 -10 m 406 574 q 477 593 446 574 q 527 648 508 613 q 546 732 546 683 q 519 821 546 786 q 439 856 493 856 q 369 831 399 856 q 325 768 340 807 q 310 685 310 729 q 333 605 310 636 q 406 574 357 574 z "},"Ŕ":{"ha":793,"x_min":64,"x_max":761,"o":"m 199 -10 q 117 22 146 -10 q 76 124 88 53 q 64 314 64 194 q 88 660 64 517 q 168 885 113 804 q 297 994 222 963 q 463 1026 372 1026 q 688 949 615 1026 q 761 743 761 871 q 719 574 761 642 q 604 474 676 507 q 442 439 532 440 l 442 435 q 682 272 610 353 q 754 118 754 190 q 724 38 754 68 q 639 7 693 7 q 536 44 589 7 q 426 167 483 81 q 299 406 368 254 l 293 406 q 305 335 300 376 q 313 249 310 293 q 317 165 317 204 q 290 35 317 81 q 199 -10 263 -10 m 406 574 q 477 593 446 574 q 527 648 508 613 q 546 732 546 683 q 519 821 546 786 q 439 856 493 856 q 369 831 399 856 q 325 768 340 807 q 310 685 310 729 q 333 605 310 636 q 406 574 357 574 m 292 1082 q 319 1133 292 1106 q 392 1193 347 1160 q 476 1249 438 1228 q 546 1271 515 1271 q 598 1253 576 1271 q 632 1213 619 1236 q 644 1169 644 1189 q 618 1124 644 1142 q 544 1090 592 1106 q 467 1067 507 1078 q 391 1051 426 1057 q 332 1046 356 1046 q 303 1057 314 1046 q 292 1082 292 1068 z "},"Ř":{"ha":793,"x_min":64,"x_max":761,"o":"m 199 -10 q 117 22 146 -10 q 76 124 88 53 q 64 314 64 194 q 88 660 64 517 q 168 885 113 804 q 297 994 222 963 q 463 1026 372 1026 q 688 949 615 1026 q 761 743 761 871 q 719 574 761 642 q 604 474 676 507 q 442 439 532 440 l 442 435 q 682 272 610 353 q 754 118 754 190 q 724 38 754 68 q 639 7 693 7 q 536 44 589 7 q 426 167 483 81 q 299 406 368 254 l 293 406 q 305 335 300 376 q 313 249 310 293 q 317 165 317 204 q 290 35 317 81 q 199 -10 263 -10 m 406 574 q 477 593 446 574 q 527 648 508 613 q 546 732 546 683 q 519 821 546 786 q 439 856 493 856 q 369 831 399 856 q 325 768 340 807 q 310 685 310 729 q 333 605 310 636 q 406 574 357 574 m 421 1060 q 357 1078 392 1060 q 285 1124 322 1096 q 224 1182 246 1154 q 201 1240 201 1210 q 219 1283 201 1267 q 265 1300 238 1300 q 339 1261 300 1300 q 421 1136 378 1222 l 397 1144 q 467 1253 428 1213 q 544 1293 506 1293 q 604 1272 581 1293 q 628 1215 628 1251 q 607 1160 628 1185 q 549 1110 586 1135 q 478 1074 514 1088 q 421 1060 442 1060 z "},"Ŗ":{"ha":793,"x_min":64,"x_max":761,"o":"m 199 -10 q 117 22 146 -10 q 76 124 88 53 q 64 314 64 194 q 88 660 64 517 q 168 885 113 804 q 297 994 222 963 q 463 1026 372 1026 q 688 949 615 1026 q 761 743 761 871 q 719 574 761 642 q 604 474 676 507 q 442 439 532 440 l 442 435 q 682 272 610 353 q 754 118 754 190 q 724 38 754 68 q 639 7 693 7 q 536 44 589 7 q 426 167 483 81 q 299 406 368 254 l 293 406 q 305 335 300 376 q 313 249 310 293 q 317 165 317 204 q 290 35 317 81 q 199 -10 263 -10 m 406 574 q 477 593 446 574 q 527 648 508 613 q 546 732 546 683 q 519 821 546 786 q 439 856 493 856 q 369 831 399 856 q 325 768 340 807 q 310 685 310 729 q 333 605 310 636 q 406 574 357 574 m 424 -250 q 328 -225 356 -250 q 300 -154 300 -200 q 311 -103 300 -128 q 348 -63 322 -79 q 419 -47 374 -47 q 503 -76 471 -47 q 535 -165 535 -104 q 521 -239 535 -199 q 479 -311 507 -279 q 435 -351 457 -337 q 394 -365 414 -365 q 369 -358 379 -365 q 358 -336 358 -351 q 369 -301 358 -324 q 418 -239 381 -278 l 424 -250 z "},"S":{"ha":707,"x_min":26,"x_max":681,"o":"m 308 -4 q 215 3 264 -4 q 122 30 165 11 q 53 79 79 49 q 26 156 26 110 q 57 240 26 211 q 157 268 88 268 q 240 259 194 268 q 321 250 285 250 q 394 269 371 250 q 418 322 418 289 q 406 363 418 346 q 365 398 394 381 q 281 435 336 415 q 149 495 200 463 q 76 574 99 528 q 53 688 53 621 q 78 819 53 763 q 144 914 103 875 q 238 976 186 953 q 344 1011 290 1000 q 447 1022 399 1022 q 617 983 553 1022 q 681 871 681 943 q 645 781 681 815 q 536 746 610 746 q 485 749 514 746 q 424 758 456 753 q 363 763 393 763 q 288 744 314 763 q 261 683 261 725 q 272 647 261 664 q 313 612 282 629 q 400 572 343 594 q 549 500 494 540 q 627 409 604 460 q 650 294 650 358 q 607 138 650 206 q 487 33 564 71 q 308 -4 410 -4 z "},"Ś":{"ha":707,"x_min":26,"x_max":681,"o":"m 308 -4 q 215 3 264 -4 q 122 30 165 11 q 53 79 79 49 q 26 156 26 110 q 57 240 26 211 q 157 268 88 268 q 240 259 194 268 q 321 250 285 250 q 394 269 371 250 q 418 322 418 289 q 406 363 418 346 q 365 398 394 381 q 281 435 336 415 q 149 495 200 463 q 76 574 99 528 q 53 688 53 621 q 78 819 53 763 q 144 914 103 875 q 238 976 186 953 q 344 1011 290 1000 q 447 1022 399 1022 q 617 983 553 1022 q 681 871 681 943 q 645 781 681 815 q 536 746 610 746 q 485 749 514 746 q 424 758 456 753 q 363 763 393 763 q 288 744 314 763 q 261 683 261 725 q 272 647 261 664 q 313 612 282 629 q 400 572 343 594 q 549 500 494 540 q 627 409 604 460 q 650 294 650 358 q 607 138 650 206 q 487 33 564 71 q 308 -4 410 -4 m 228 1082 q 256 1133 228 1106 q 328 1193 283 1160 q 413 1249 374 1228 q 482 1271 451 1271 q 534 1253 513 1271 q 568 1213 556 1236 q 581 1169 581 1189 q 554 1124 581 1142 q 481 1090 528 1106 q 403 1067 443 1078 q 327 1051 363 1057 q 268 1046 292 1046 q 239 1057 250 1046 q 228 1082 228 1068 z "},"Š":{"ha":707,"x_min":26,"x_max":681,"o":"m 308 -4 q 215 3 264 -4 q 122 30 165 11 q 53 79 79 49 q 26 156 26 110 q 57 240 26 211 q 157 268 88 268 q 240 259 194 268 q 321 250 285 250 q 394 269 371 250 q 418 322 418 289 q 406 363 418 346 q 365 398 394 381 q 281 435 336 415 q 149 495 200 463 q 76 574 99 528 q 53 688 53 621 q 78 819 53 763 q 144 914 103 875 q 238 976 186 953 q 344 1011 290 1000 q 447 1022 399 1022 q 617 983 553 1022 q 681 871 681 943 q 645 781 681 815 q 536 746 610 746 q 485 749 514 746 q 424 758 456 753 q 363 763 393 763 q 288 744 314 763 q 261 683 261 725 q 272 647 261 664 q 313 612 282 629 q 400 572 343 594 q 549 500 494 540 q 627 409 604 460 q 650 294 650 358 q 607 138 650 206 q 487 33 564 71 q 308 -4 410 -4 m 357 1060 q 293 1078 328 1060 q 221 1124 258 1096 q 160 1182 182 1154 q 138 1240 138 1210 q 156 1283 138 1267 q 201 1300 174 1300 q 275 1261 236 1300 q 357 1136 314 1222 l 333 1144 q 403 1253 364 1213 q 481 1293 442 1293 q 540 1272 517 1293 q 564 1215 564 1251 q 543 1160 564 1185 q 485 1110 522 1135 q 414 1074 450 1088 q 357 1060 378 1060 z "},"Ş":{"ha":707,"x_min":26,"x_max":681,"o":"m 308 -4 q 215 3 264 -4 q 122 30 165 11 q 53 79 79 49 q 26 156 26 110 q 57 240 26 211 q 157 268 88 268 q 240 259 194 268 q 321 250 285 250 q 394 269 371 250 q 418 322 418 289 q 406 363 418 346 q 365 398 394 381 q 281 435 336 415 q 149 495 200 463 q 76 574 99 528 q 53 688 53 621 q 78 819 53 763 q 144 914 103 875 q 238 976 186 953 q 344 1011 290 1000 q 447 1022 399 1022 q 617 983 553 1022 q 681 871 681 943 q 645 781 681 815 q 536 746 610 746 q 485 749 514 746 q 424 758 456 753 q 363 763 393 763 q 288 744 314 763 q 261 683 261 725 q 272 647 261 664 q 313 612 282 629 q 400 572 343 594 q 549 500 494 540 q 627 409 604 460 q 650 294 650 358 q 607 138 650 206 q 487 33 564 71 q 308 -4 410 -4 m 304 -289 q 221 -228 221 -289 q 241 -181 221 -196 q 288 -161 261 -167 q 335 -153 311 -157 q 371 -149 358 -150 q 391 -139 383 -144 q 399 -124 399 -133 q 389 -106 399 -112 q 353 -96 379 -99 q 278 -72 303 -86 q 254 -29 254 -57 q 273 6 254 -4 q 319 15 292 15 q 410 -2 365 15 q 485 -53 456 -19 q 515 -135 515 -86 q 488 -211 515 -176 q 413 -267 460 -246 q 304 -289 365 -289 z "},"Ș":{"ha":707,"x_min":26,"x_max":681,"o":"m 308 -4 q 215 3 264 -4 q 122 30 165 11 q 53 79 79 49 q 26 156 26 110 q 57 240 26 211 q 157 268 88 268 q 240 259 194 268 q 321 250 285 250 q 394 269 371 250 q 418 322 418 289 q 406 363 418 346 q 365 398 394 381 q 281 435 336 415 q 149 495 200 463 q 76 574 99 528 q 53 688 53 621 q 78 819 53 763 q 144 914 103 875 q 238 976 186 953 q 344 1011 290 1000 q 447 1022 399 1022 q 617 983 553 1022 q 681 871 681 943 q 645 781 681 815 q 536 746 610 746 q 485 749 514 746 q 424 758 456 753 q 363 763 393 763 q 288 744 314 763 q 261 683 261 725 q 272 647 261 664 q 313 612 282 629 q 400 572 343 594 q 549 500 494 540 q 627 409 604 460 q 650 294 650 358 q 607 138 650 206 q 487 33 564 71 q 308 -4 410 -4 m 360 -250 q 264 -225 292 -250 q 236 -154 236 -200 q 247 -103 236 -128 q 284 -63 258 -79 q 356 -47 310 -47 q 439 -76 407 -47 q 471 -165 471 -104 q 457 -239 471 -199 q 415 -311 443 -279 q 372 -351 393 -337 q 331 -365 350 -365 q 305 -358 315 -365 q 294 -336 294 -351 q 306 -301 294 -324 q 354 -239 317 -278 l 360 -250 z "},"ẞ":{"ha":833,"x_min":61,"x_max":793,"o":"m 188 -15 q 95 27 129 -15 q 61 150 61 69 q 71 360 61 253 q 94 597 81 468 q 109 734 101 665 q 122 860 117 803 q 146 940 129 910 q 193 983 163 969 q 272 999 224 996 q 342 1000 311 1000 q 403 1000 372 1000 q 469 1000 435 1000 q 629 971 561 1000 q 735 885 697 942 q 772 746 772 829 q 726 608 772 668 q 593 507 679 547 q 743 409 693 469 q 793 256 793 349 q 759 120 793 179 q 662 28 725 61 q 514 -6 599 -6 q 407 26 443 -6 q 371 106 371 58 q 399 179 371 157 q 478 213 428 201 q 541 242 522 221 q 560 296 560 264 q 542 345 560 325 q 483 385 525 365 q 431 422 447 401 q 414 481 414 442 q 428 535 414 513 q 466 578 443 558 q 511 619 489 599 q 548 665 533 640 q 563 725 563 690 q 531 793 563 768 q 442 818 500 818 q 369 808 403 818 q 308 776 336 799 q 306 657 307 728 q 306 507 306 586 q 306 353 306 428 q 306 222 306 278 q 306 139 306 165 q 275 28 304 72 q 188 -15 246 -15 z "},"T":{"ha":726,"x_min":18,"x_max":707,"o":"m 381 1021 q 525 1012 465 1021 q 622 989 585 1003 q 690 937 672 968 q 707 863 707 906 q 673 771 707 807 q 571 735 639 735 q 493 742 535 735 q 408 764 451 750 l 419 792 q 452 647 438 726 q 477 487 467 568 q 492 333 488 406 q 497 211 497 261 q 463 47 497 103 q 350 -10 429 -10 q 243 41 278 -10 q 208 194 208 92 q 217 333 208 256 q 240 494 225 411 q 272 654 254 578 q 308 788 290 731 l 326 764 q 271 747 303 756 q 207 734 239 739 q 150 729 175 729 q 48 758 78 729 q 18 839 18 788 q 41 920 18 886 q 113 976 64 954 q 226 1010 158 999 q 381 1021 293 1021 z "},"Ť":{"ha":726,"x_min":18,"x_max":707,"o":"m 381 1021 q 525 1012 465 1021 q 622 989 585 1003 q 690 937 672 968 q 707 863 707 906 q 673 771 707 807 q 571 735 639 735 q 493 742 535 735 q 408 764 451 750 l 419 792 q 452 647 438 726 q 477 487 467 568 q 492 333 488 406 q 497 211 497 261 q 463 47 497 103 q 350 -10 429 -10 q 243 41 278 -10 q 208 194 208 92 q 217 333 208 256 q 240 494 225 411 q 272 654 254 578 q 308 788 290 731 l 326 764 q 271 747 303 756 q 207 734 239 739 q 150 729 175 729 q 48 758 78 729 q 18 839 18 788 q 41 920 18 886 q 113 976 64 954 q 226 1010 158 999 q 381 1021 293 1021 m 369 1060 q 306 1078 340 1060 q 233 1124 271 1096 q 172 1182 194 1154 q 150 1240 150 1210 q 168 1283 150 1267 q 214 1300 186 1300 q 288 1261 249 1300 q 369 1136 326 1222 l 346 1144 q 415 1253 376 1213 q 493 1293 454 1293 q 553 1272 529 1293 q 576 1215 576 1251 q 556 1160 576 1185 q 497 1110 535 1135 q 426 1074 463 1088 q 369 1060 390 1060 z "},"Ț":{"ha":726,"x_min":18,"x_max":707,"o":"m 381 1021 q 525 1012 465 1021 q 622 989 585 1003 q 690 937 672 968 q 707 863 707 906 q 673 771 707 807 q 571 735 639 735 q 493 742 535 735 q 408 764 451 750 l 419 792 q 452 647 438 726 q 477 487 467 568 q 492 333 488 406 q 497 211 497 261 q 463 47 497 103 q 350 -10 429 -10 q 243 41 278 -10 q 208 194 208 92 q 217 333 208 256 q 240 494 225 411 q 272 654 254 578 q 308 788 290 731 l 326 764 q 271 747 303 756 q 207 734 239 739 q 150 729 175 729 q 48 758 78 729 q 18 839 18 788 q 41 920 18 886 q 113 976 64 954 q 226 1010 158 999 q 381 1021 293 1021 m 372 -250 q 276 -225 304 -250 q 249 -154 249 -200 q 260 -103 249 -128 q 297 -63 271 -79 q 368 -47 322 -47 q 451 -76 419 -47 q 483 -165 483 -104 q 469 -239 483 -199 q 428 -311 456 -279 q 384 -351 406 -337 q 343 -365 363 -365 q 317 -358 328 -365 q 307 -336 307 -351 q 318 -301 307 -324 q 367 -239 329 -278 l 372 -250 z "},"U":{"ha":817,"x_min":64,"x_max":753,"o":"m 390 -11 q 140 86 217 -11 q 64 406 64 183 q 69 563 64 482 q 82 719 74 644 q 103 850 90 794 q 149 955 117 917 q 240 993 181 993 q 319 964 292 993 q 347 875 347 935 q 338 789 347 843 q 319 671 329 735 q 299 544 308 607 q 290 432 290 481 q 322 291 290 332 q 413 250 353 250 q 497 294 468 250 q 525 432 525 338 q 519 534 525 471 q 508 665 514 597 q 496 790 501 733 q 490 878 490 847 q 596 1015 490 1015 q 681 981 651 1015 q 722 879 710 947 q 739 753 732 826 q 749 599 746 679 q 753 449 753 519 q 715 185 753 286 q 598 36 678 83 q 390 -11 518 -11 z "},"Ú":{"ha":817,"x_min":64,"x_max":753,"o":"m 390 -11 q 140 86 217 -11 q 64 406 64 183 q 69 563 64 482 q 82 719 74 644 q 103 850 90 794 q 149 955 117 917 q 240 993 181 993 q 319 964 292 993 q 347 875 347 935 q 338 789 347 843 q 319 671 329 735 q 299 544 308 607 q 290 432 290 481 q 322 291 290 332 q 413 250 353 250 q 497 294 468 250 q 525 432 525 338 q 519 534 525 471 q 508 665 514 597 q 496 790 501 733 q 490 878 490 847 q 596 1015 490 1015 q 681 981 651 1015 q 722 879 710 947 q 739 753 732 826 q 749 599 746 679 q 753 449 753 519 q 715 185 753 286 q 598 36 678 83 q 390 -11 518 -11 m 289 1068 q 317 1119 289 1092 q 389 1179 344 1146 q 474 1235 435 1214 q 543 1257 513 1257 q 595 1240 574 1257 q 629 1199 617 1222 q 642 1156 642 1175 q 615 1110 642 1128 q 542 1076 589 1092 q 464 1053 504 1064 q 388 1038 424 1043 q 329 1032 353 1032 q 300 1043 311 1032 q 289 1068 289 1054 z "},"Ŭ":{"ha":817,"x_min":64,"x_max":753,"o":"m 390 -11 q 140 86 217 -11 q 64 406 64 183 q 69 563 64 482 q 82 719 74 644 q 103 850 90 794 q 149 955 117 917 q 240 993 181 993 q 319 964 292 993 q 347 875 347 935 q 338 789 347 843 q 319 671 329 735 q 299 544 308 607 q 290 432 290 481 q 322 291 290 332 q 413 250 353 250 q 497 294 468 250 q 525 432 525 338 q 519 534 525 471 q 508 665 514 597 q 496 790 501 733 q 490 878 490 847 q 596 1015 490 1015 q 681 981 651 1015 q 722 879 710 947 q 739 753 732 826 q 749 599 746 679 q 753 449 753 519 q 715 185 753 286 q 598 36 678 83 q 390 -11 518 -11 m 411 1033 q 268 1082 319 1033 q 217 1196 217 1131 q 278 1263 217 1263 q 349 1197 335 1263 q 368 1153 356 1168 q 410 1139 381 1139 q 447 1151 435 1139 q 467 1192 460 1164 q 493 1254 476 1232 q 544 1276 510 1276 q 590 1257 575 1276 q 606 1203 606 1238 q 583 1119 606 1158 q 517 1057 561 1081 q 411 1033 474 1033 z "},"Û":{"ha":817,"x_min":64,"x_max":753,"o":"m 390 -11 q 140 86 217 -11 q 64 406 64 183 q 69 563 64 482 q 82 719 74 644 q 103 850 90 794 q 149 955 117 917 q 240 993 181 993 q 319 964 292 993 q 347 875 347 935 q 338 789 347 843 q 319 671 329 735 q 299 544 308 607 q 290 432 290 481 q 322 291 290 332 q 413 250 353 250 q 497 294 468 250 q 525 432 525 338 q 519 534 525 471 q 508 665 514 597 q 496 790 501 733 q 490 878 490 847 q 596 1015 490 1015 q 681 981 651 1015 q 722 879 710 947 q 739 753 732 826 q 749 599 746 679 q 753 449 753 519 q 715 185 753 286 q 598 36 678 83 q 390 -11 518 -11 m 418 1272 q 475 1258 439 1272 q 546 1221 511 1243 q 604 1172 583 1196 q 625 1117 625 1147 q 601 1060 625 1081 q 542 1039 578 1039 q 464 1078 503 1039 q 394 1188 425 1118 l 418 1196 q 336 1071 375 1110 q 263 1032 297 1032 q 217 1049 235 1032 q 199 1092 199 1065 q 221 1150 199 1122 q 282 1208 243 1178 q 354 1255 319 1238 q 418 1272 389 1272 z "},"Ü":{"ha":817,"x_min":64,"x_max":753,"o":"m 390 -11 q 140 86 217 -11 q 64 406 64 183 q 69 563 64 482 q 82 719 74 644 q 103 850 90 794 q 149 955 117 917 q 240 993 181 993 q 319 964 292 993 q 347 875 347 935 q 338 789 347 843 q 319 671 329 735 q 299 544 308 607 q 290 432 290 481 q 322 291 290 332 q 413 250 353 250 q 497 294 468 250 q 525 432 525 338 q 519 534 525 471 q 508 665 514 597 q 496 790 501 733 q 490 878 490 847 q 596 1015 490 1015 q 681 981 651 1015 q 722 879 710 947 q 739 753 732 826 q 749 599 746 679 q 753 449 753 519 q 715 185 753 286 q 598 36 678 83 q 390 -11 518 -11 m 261 1039 q 182 1068 207 1039 q 157 1136 157 1097 q 190 1217 157 1189 q 283 1246 224 1246 q 362 1215 336 1246 q 388 1140 388 1183 q 352 1065 388 1090 q 261 1039 317 1039 m 557 1260 q 639 1228 614 1260 q 664 1154 664 1196 q 633 1073 664 1100 q 543 1046 601 1046 q 462 1076 489 1046 q 435 1150 435 1107 q 468 1231 435 1203 q 557 1260 501 1260 z "},"Ù":{"ha":817,"x_min":64,"x_max":753,"o":"m 390 -11 q 140 86 217 -11 q 64 406 64 183 q 69 563 64 482 q 82 719 74 644 q 103 850 90 794 q 149 955 117 917 q 240 993 181 993 q 319 964 292 993 q 347 875 347 935 q 338 789 347 843 q 319 671 329 735 q 299 544 308 607 q 290 432 290 481 q 322 291 290 332 q 413 250 353 250 q 497 294 468 250 q 525 432 525 338 q 519 534 525 471 q 508 665 514 597 q 496 790 501 733 q 490 878 490 847 q 596 1015 490 1015 q 681 981 651 1015 q 722 879 710 947 q 739 753 732 826 q 749 599 746 679 q 753 449 753 519 q 715 185 753 286 q 598 36 678 83 q 390 -11 518 -11 m 535 1068 q 524 1043 535 1054 q 494 1032 514 1032 q 436 1038 472 1032 q 360 1053 400 1043 q 282 1076 321 1064 q 209 1110 236 1092 q 182 1156 182 1128 q 194 1199 182 1175 q 230 1240 207 1222 q 281 1257 253 1257 q 350 1235 311 1257 q 435 1179 389 1214 q 508 1119 481 1146 q 535 1068 535 1092 z "},"Ű":{"ha":817,"x_min":64,"x_max":753,"o":"m 390 -11 q 140 86 217 -11 q 64 406 64 183 q 69 563 64 482 q 82 719 74 644 q 103 850 90 794 q 149 955 117 917 q 240 993 181 993 q 319 964 292 993 q 347 875 347 935 q 338 789 347 843 q 319 671 329 735 q 299 544 308 607 q 290 432 290 481 q 322 291 290 332 q 413 250 353 250 q 497 294 468 250 q 525 432 525 338 q 519 534 525 471 q 508 665 514 597 q 496 790 501 733 q 490 878 490 847 q 596 1015 490 1015 q 681 981 651 1015 q 722 879 710 947 q 739 753 732 826 q 749 599 746 679 q 753 449 753 519 q 715 185 753 286 q 598 36 678 83 q 390 -11 518 -11 m 517 1031 q 490 1040 501 1031 q 479 1067 479 1050 q 492 1116 479 1086 q 525 1182 504 1146 q 559 1239 542 1210 q 597 1288 576 1268 q 644 1307 618 1307 q 687 1295 664 1307 q 724 1265 710 1283 q 739 1229 739 1247 q 689 1153 739 1200 q 639 1108 667 1131 q 585 1068 611 1086 q 542 1039 558 1050 q 528 1033 535 1035 q 517 1031 522 1031 m 254 1031 q 230 1040 242 1031 q 218 1065 218 1049 q 231 1115 218 1086 q 264 1181 243 1144 q 298 1238 281 1208 q 337 1286 315 1267 q 383 1306 358 1306 q 427 1294 406 1306 q 463 1265 449 1282 q 478 1229 478 1247 q 431 1151 478 1199 q 376 1107 406 1129 q 322 1067 347 1085 q 279 1039 296 1049 q 267 1033 274 1035 q 254 1031 260 1031 z "},"Ū":{"ha":817,"x_min":64,"x_max":753,"o":"m 390 -11 q 140 86 217 -11 q 64 406 64 183 q 69 563 64 482 q 82 719 74 644 q 103 850 90 794 q 149 955 117 917 q 240 993 181 993 q 319 964 292 993 q 347 875 347 935 q 338 789 347 843 q 319 671 329 735 q 299 544 308 607 q 290 432 290 481 q 322 291 290 332 q 413 250 353 250 q 497 294 468 250 q 525 432 525 338 q 519 534 525 471 q 508 665 514 597 q 496 790 501 733 q 490 878 490 847 q 596 1015 490 1015 q 681 981 651 1015 q 722 879 710 947 q 739 753 732 826 q 749 599 746 679 q 753 449 753 519 q 715 185 753 286 q 598 36 678 83 q 390 -11 518 -11 m 267 1040 q 186 1062 213 1040 q 160 1118 160 1083 q 183 1174 160 1153 q 263 1207 207 1194 q 352 1221 303 1215 q 451 1228 401 1226 q 542 1231 500 1231 q 635 1209 607 1231 q 663 1153 663 1188 q 638 1094 663 1115 q 565 1063 614 1072 q 471 1051 526 1057 q 361 1043 415 1046 q 267 1040 307 1040 z "},"Ų":{"ha":817,"x_min":64,"x_max":753,"o":"m 390 -11 q 140 86 217 -11 q 64 406 64 183 q 69 563 64 482 q 82 719 74 644 q 103 850 90 794 q 149 955 117 917 q 240 993 181 993 q 319 964 292 993 q 347 875 347 935 q 338 789 347 843 q 319 671 329 735 q 299 544 308 607 q 290 432 290 481 q 322 291 290 332 q 413 250 353 250 q 497 294 468 250 q 525 432 525 338 q 519 534 525 471 q 508 665 514 597 q 496 790 501 733 q 490 878 490 847 q 596 1015 490 1015 q 681 981 651 1015 q 722 879 710 947 q 739 753 732 826 q 749 599 746 679 q 753 449 753 519 q 715 185 753 286 q 598 36 678 83 q 390 -11 518 -11 m 499 -293 q 382 -261 428 -293 q 336 -167 336 -229 q 373 -61 336 -112 q 494 39 410 -10 l 606 42 q 513 -51 547 -3 q 478 -126 478 -100 q 488 -147 478 -142 q 514 -153 497 -153 q 538 -151 525 -153 q 565 -150 550 -150 q 610 -166 596 -150 q 625 -210 625 -182 q 592 -272 625 -251 q 499 -293 560 -293 z "},"Ů":{"ha":817,"x_min":64,"x_max":753,"o":"m 390 -11 q 140 86 217 -11 q 64 406 64 183 q 69 563 64 482 q 82 719 74 644 q 103 850 90 794 q 149 955 117 917 q 240 993 181 993 q 319 964 292 993 q 347 875 347 935 q 338 789 347 843 q 319 671 329 735 q 299 544 308 607 q 290 432 290 481 q 322 291 290 332 q 413 250 353 250 q 497 294 468 250 q 525 432 525 338 q 519 534 525 471 q 508 665 514 597 q 496 790 501 733 q 490 878 490 847 q 596 1015 490 1015 q 681 981 651 1015 q 722 879 710 947 q 739 753 732 826 q 749 599 746 679 q 753 449 753 519 q 715 185 753 286 q 598 36 678 83 q 390 -11 518 -11 m 408 1029 q 285 1059 335 1029 q 236 1151 236 1089 q 285 1256 236 1215 q 425 1297 333 1297 q 547 1259 508 1297 q 585 1168 585 1221 q 538 1068 585 1107 q 408 1029 490 1029 m 400 1108 q 465 1122 439 1108 q 492 1163 492 1135 q 472 1206 492 1190 q 411 1222 453 1222 q 349 1203 369 1222 q 329 1161 329 1183 q 349 1123 329 1138 q 400 1108 368 1108 z "},"V":{"ha":808,"x_min":33,"x_max":775,"o":"m 668 1026 q 750 978 725 1026 q 775 832 775 929 q 762 692 775 775 q 724 513 749 608 q 663 326 699 418 q 583 158 628 233 q 484 36 538 82 q 369 -10 431 -10 q 260 33 308 -10 q 175 147 213 75 q 110 306 138 218 q 67 483 83 393 q 42 653 50 572 q 33 790 33 733 q 67 949 33 899 q 167 999 101 999 q 258 951 229 999 q 297 790 286 903 q 320 610 307 707 q 351 410 333 513 q 392 207 369 308 l 397 207 q 438 363 418 281 q 474 527 457 444 q 506 687 492 610 q 533 828 521 764 q 580 978 551 929 q 668 1026 608 1026 z "},"W":{"ha":1025,"x_min":64,"x_max":960,"o":"m 64 740 q 99 931 64 874 q 207 988 133 988 q 278 961 253 988 q 315 890 304 935 q 325 790 325 846 q 322 643 325 728 q 315 469 319 558 q 303 304 310 381 l 308 304 q 372 591 340 482 q 435 751 403 700 q 503 801 467 801 q 575 750 542 801 q 641 590 608 699 q 710 308 674 481 l 715 308 q 708 478 711 390 q 702 651 704 565 q 700 813 700 738 q 714 943 700 897 q 753 1007 728 989 q 814 1025 779 1025 q 922 955 883 1025 q 960 749 960 885 q 953 546 960 650 q 931 344 946 442 q 896 163 917 247 q 841 35 875 81 q 751 -11 807 -11 q 684 21 717 -11 q 621 119 651 53 q 563 285 590 185 q 513 524 536 386 l 507 524 q 455 290 482 388 q 397 133 428 193 q 331 44 365 72 q 256 15 296 15 q 168 59 200 15 q 115 206 136 103 q 97 329 106 260 q 80 474 88 399 q 68 618 72 549 q 64 740 64 688 z "},"Ẃ":{"ha":1025,"x_min":64,"x_max":960,"o":"m 64 740 q 99 931 64 874 q 207 988 133 988 q 278 961 253 988 q 315 890 304 935 q 325 790 325 846 q 322 643 325 728 q 315 469 319 558 q 303 304 310 381 l 308 304 q 372 591 340 482 q 435 751 403 700 q 503 801 467 801 q 575 750 542 801 q 641 590 608 699 q 710 308 674 481 l 715 308 q 708 478 711 390 q 702 651 704 565 q 700 813 700 738 q 714 943 700 897 q 753 1007 728 989 q 814 1025 779 1025 q 922 955 883 1025 q 960 749 960 885 q 953 546 960 650 q 931 344 946 442 q 896 163 917 247 q 841 35 875 81 q 751 -11 807 -11 q 684 21 717 -11 q 621 119 651 53 q 563 285 590 185 q 513 524 536 386 l 507 524 q 455 290 482 388 q 397 133 428 193 q 331 44 365 72 q 256 15 296 15 q 168 59 200 15 q 115 206 136 103 q 97 329 106 260 q 80 474 88 399 q 68 618 72 549 q 64 740 64 688 m 389 1082 q 417 1133 389 1106 q 489 1193 444 1160 q 574 1249 535 1228 q 643 1271 613 1271 q 695 1253 674 1271 q 729 1213 717 1236 q 742 1169 742 1189 q 715 1124 742 1142 q 642 1090 689 1106 q 564 1067 604 1078 q 488 1051 524 1057 q 429 1046 453 1046 q 400 1057 411 1046 q 389 1082 389 1068 z "},"Ŵ":{"ha":1025,"x_min":64,"x_max":960,"o":"m 64 740 q 99 931 64 874 q 207 988 133 988 q 278 961 253 988 q 315 890 304 935 q 325 790 325 846 q 322 643 325 728 q 315 469 319 558 q 303 304 310 381 l 308 304 q 372 591 340 482 q 435 751 403 700 q 503 801 467 801 q 575 750 542 801 q 641 590 608 699 q 710 308 674 481 l 715 308 q 708 478 711 390 q 702 651 704 565 q 700 813 700 738 q 714 943 700 897 q 753 1007 728 989 q 814 1025 779 1025 q 922 955 883 1025 q 960 749 960 885 q 953 546 960 650 q 931 344 946 442 q 896 163 917 247 q 841 35 875 81 q 751 -11 807 -11 q 684 21 717 -11 q 621 119 651 53 q 563 285 590 185 q 513 524 536 386 l 507 524 q 455 290 482 388 q 397 133 428 193 q 331 44 365 72 q 256 15 296 15 q 168 59 200 15 q 115 206 136 103 q 97 329 106 260 q 80 474 88 399 q 68 618 72 549 q 64 740 64 688 m 518 1286 q 575 1272 539 1286 q 646 1235 611 1257 q 704 1185 683 1210 q 725 1131 725 1161 q 701 1074 725 1094 q 642 1053 678 1053 q 564 1092 603 1053 q 494 1201 525 1132 l 518 1210 q 436 1085 475 1124 q 363 1046 397 1046 q 317 1063 335 1046 q 299 1106 299 1079 q 321 1164 299 1136 q 382 1222 343 1192 q 454 1269 419 1251 q 518 1286 489 1286 z "},"Ẅ":{"ha":1025,"x_min":64,"x_max":960,"o":"m 64 740 q 99 931 64 874 q 207 988 133 988 q 278 961 253 988 q 315 890 304 935 q 325 790 325 846 q 322 643 325 728 q 315 469 319 558 q 303 304 310 381 l 308 304 q 372 591 340 482 q 435 751 403 700 q 503 801 467 801 q 575 750 542 801 q 641 590 608 699 q 710 308 674 481 l 715 308 q 708 478 711 390 q 702 651 704 565 q 700 813 700 738 q 714 943 700 897 q 753 1007 728 989 q 814 1025 779 1025 q 922 955 883 1025 q 960 749 960 885 q 953 546 960 650 q 931 344 946 442 q 896 163 917 247 q 841 35 875 81 q 751 -11 807 -11 q 684 21 717 -11 q 621 119 651 53 q 563 285 590 185 q 513 524 536 386 l 507 524 q 455 290 482 388 q 397 133 428 193 q 331 44 365 72 q 256 15 296 15 q 168 59 200 15 q 115 206 136 103 q 97 329 106 260 q 80 474 88 399 q 68 618 72 549 q 64 740 64 688 m 363 1053 q 283 1082 308 1053 q 258 1150 258 1111 q 292 1231 258 1203 q 385 1260 325 1260 q 463 1228 438 1260 q 489 1154 489 1197 q 453 1078 489 1104 q 363 1053 418 1053 m 658 1274 q 740 1242 715 1274 q 765 1168 765 1210 q 734 1087 765 1114 q 644 1060 703 1060 q 563 1090 590 1060 q 536 1164 536 1121 q 569 1245 536 1217 q 658 1274 603 1274 z "},"Ẁ":{"ha":1025,"x_min":64,"x_max":960,"o":"m 64 740 q 99 931 64 874 q 207 988 133 988 q 278 961 253 988 q 315 890 304 935 q 325 790 325 846 q 322 643 325 728 q 315 469 319 558 q 303 304 310 381 l 308 304 q 372 591 340 482 q 435 751 403 700 q 503 801 467 801 q 575 750 542 801 q 641 590 608 699 q 710 308 674 481 l 715 308 q 708 478 711 390 q 702 651 704 565 q 700 813 700 738 q 714 943 700 897 q 753 1007 728 989 q 814 1025 779 1025 q 922 955 883 1025 q 960 749 960 885 q 953 546 960 650 q 931 344 946 442 q 896 163 917 247 q 841 35 875 81 q 751 -11 807 -11 q 684 21 717 -11 q 621 119 651 53 q 563 285 590 185 q 513 524 536 386 l 507 524 q 455 290 482 388 q 397 133 428 193 q 331 44 365 72 q 256 15 296 15 q 168 59 200 15 q 115 206 136 103 q 97 329 106 260 q 80 474 88 399 q 68 618 72 549 q 64 740 64 688 m 636 1082 q 626 1057 636 1068 q 596 1046 615 1046 q 538 1051 574 1046 q 462 1067 501 1057 q 383 1090 422 1078 q 310 1124 338 1106 q 283 1169 283 1142 q 296 1213 283 1189 q 331 1253 308 1236 q 382 1271 354 1271 q 451 1249 413 1271 q 536 1193 490 1228 q 609 1133 582 1160 q 636 1082 636 1106 z "},"X":{"ha":878,"x_min":25,"x_max":853,"o":"m 140 -10 q 56 25 88 -10 q 25 111 25 60 q 60 235 25 168 q 164 372 96 301 q 331 506 232 442 l 331 511 q 142 679 203 594 q 81 842 81 764 q 99 912 81 882 q 144 958 117 942 q 201 974 172 974 q 340 882 275 974 q 443 606 404 790 l 449 606 q 540 851 493 760 q 638 984 588 943 q 735 1025 688 1025 q 796 1006 769 1025 q 838 956 822 988 q 853 883 853 924 q 773 701 853 794 q 549 524 693 607 l 549 518 q 769 326 699 422 q 839 144 839 229 q 818 71 839 101 q 766 23 797 40 q 701 6 735 6 q 550 109 618 6 q 436 417 482 213 l 431 417 q 336 167 386 261 q 236 32 286 74 q 140 -10 186 -10 z "},"Y":{"ha":792,"x_min":18,"x_max":774,"o":"m 346 -12 q 249 26 286 -12 q 213 165 213 65 q 225 305 213 233 q 258 440 238 376 q 300 544 278 503 l 308 494 q 138 632 201 567 q 47 756 75 697 q 18 867 18 814 q 37 943 18 911 q 85 992 56 975 q 150 1010 115 1010 q 275 916 219 1010 q 369 626 331 822 l 375 626 q 466 856 417 768 q 566 984 515 943 q 661 1025 617 1025 q 744 988 715 1025 q 774 892 774 950 q 730 749 774 822 q 606 610 686 676 q 413 493 525 544 l 425 531 q 467 415 449 478 q 497 291 486 353 q 508 178 508 229 q 464 36 508 85 q 346 -12 419 -12 z "},"Ý":{"ha":792,"x_min":18,"x_max":774,"o":"m 346 -12 q 249 26 286 -12 q 213 165 213 65 q 225 305 213 233 q 258 440 238 376 q 300 544 278 503 l 308 494 q 138 632 201 567 q 47 756 75 697 q 18 867 18 814 q 37 943 18 911 q 85 992 56 975 q 150 1010 115 1010 q 275 916 219 1010 q 369 626 331 822 l 375 626 q 466 856 417 768 q 566 984 515 943 q 661 1025 617 1025 q 744 988 715 1025 q 774 892 774 950 q 730 749 774 822 q 606 610 686 676 q 413 493 525 544 l 425 531 q 467 415 449 478 q 497 291 486 353 q 508 178 508 229 q 464 36 508 85 q 346 -12 419 -12 m 274 1074 q 301 1124 274 1097 q 374 1185 329 1151 q 458 1241 419 1219 q 528 1263 497 1263 q 580 1245 558 1263 q 614 1204 601 1228 q 626 1161 626 1181 q 600 1115 626 1133 q 526 1082 574 1097 q 449 1059 489 1069 q 373 1043 408 1049 q 314 1038 338 1038 q 285 1049 296 1038 q 274 1074 274 1060 z "},"Ŷ":{"ha":792,"x_min":18,"x_max":774,"o":"m 346 -12 q 249 26 286 -12 q 213 165 213 65 q 225 305 213 233 q 258 440 238 376 q 300 544 278 503 l 308 494 q 138 632 201 567 q 47 756 75 697 q 18 867 18 814 q 37 943 18 911 q 85 992 56 975 q 150 1010 115 1010 q 275 916 219 1010 q 369 626 331 822 l 375 626 q 466 856 417 768 q 566 984 515 943 q 661 1025 617 1025 q 744 988 715 1025 q 774 892 774 950 q 730 749 774 822 q 606 610 686 676 q 413 493 525 544 l 425 531 q 467 415 449 478 q 497 291 486 353 q 508 178 508 229 q 464 36 508 85 q 346 -12 419 -12 m 403 1278 q 460 1263 424 1278 q 531 1226 496 1249 q 589 1177 568 1201 q 610 1122 610 1153 q 586 1065 610 1086 q 526 1044 563 1044 q 449 1084 488 1044 q 379 1193 410 1124 l 403 1201 q 321 1076 360 1115 q 247 1038 282 1038 q 201 1054 219 1038 q 183 1097 183 1071 q 206 1156 183 1128 q 267 1214 228 1183 q 339 1260 304 1243 q 403 1278 374 1278 z "},"Ÿ":{"ha":792,"x_min":18,"x_max":774,"o":"m 346 -12 q 249 26 286 -12 q 213 165 213 65 q 225 305 213 233 q 258 440 238 376 q 300 544 278 503 l 308 494 q 138 632 201 567 q 47 756 75 697 q 18 867 18 814 q 37 943 18 911 q 85 992 56 975 q 150 1010 115 1010 q 275 916 219 1010 q 369 626 331 822 l 375 626 q 466 856 417 768 q 566 984 515 943 q 661 1025 617 1025 q 744 988 715 1025 q 774 892 774 950 q 730 749 774 822 q 606 610 686 676 q 413 493 525 544 l 425 531 q 467 415 449 478 q 497 291 486 353 q 508 178 508 229 q 464 36 508 85 q 346 -12 419 -12 m 247 1044 q 168 1074 193 1044 q 143 1142 143 1103 q 176 1223 143 1194 q 269 1251 210 1251 q 348 1220 322 1251 q 374 1146 374 1189 q 338 1070 374 1096 q 247 1044 303 1044 m 543 1265 q 625 1233 600 1265 q 650 1160 650 1201 q 619 1078 650 1106 q 529 1051 588 1051 q 448 1082 475 1051 q 421 1156 421 1113 q 454 1237 421 1208 q 543 1265 488 1265 z "},"Ỳ":{"ha":792,"x_min":18,"x_max":774,"o":"m 346 -12 q 249 26 286 -12 q 213 165 213 65 q 225 305 213 233 q 258 440 238 376 q 300 544 278 503 l 308 494 q 138 632 201 567 q 47 756 75 697 q 18 867 18 814 q 37 943 18 911 q 85 992 56 975 q 150 1010 115 1010 q 275 916 219 1010 q 369 626 331 822 l 375 626 q 466 856 417 768 q 566 984 515 943 q 661 1025 617 1025 q 744 988 715 1025 q 774 892 774 950 q 730 749 774 822 q 606 610 686 676 q 413 493 525 544 l 425 531 q 467 415 449 478 q 497 291 486 353 q 508 178 508 229 q 464 36 508 85 q 346 -12 419 -12 m 519 1074 q 509 1049 519 1060 q 479 1038 499 1038 q 421 1043 457 1038 q 345 1059 385 1049 q 267 1082 306 1069 q 194 1115 221 1097 q 167 1161 167 1133 q 179 1204 167 1181 q 215 1245 192 1228 q 265 1263 238 1263 q 335 1241 296 1263 q 419 1185 374 1219 q 492 1124 465 1151 q 519 1074 519 1097 z "},"Z":{"ha":724,"x_min":25,"x_max":699,"o":"m 25 156 q 71 310 25 221 q 219 518 117 399 q 490 793 321 638 l 490 797 q 378 767 439 781 q 261 744 318 753 q 167 736 204 736 q 60 764 93 736 q 26 844 26 792 q 44 913 26 885 q 99 961 61 942 q 244 1007 154 990 q 439 1024 335 1024 q 586 1008 529 1024 q 671 957 643 993 q 699 857 699 921 q 670 747 699 811 q 582 602 642 683 q 429 422 522 521 q 206 206 336 322 l 206 201 q 311 241 251 224 q 433 269 371 258 q 547 279 496 279 q 654 254 621 279 q 688 169 688 229 q 642 69 688 107 q 515 15 597 31 q 421 1 469 7 q 327 -7 372 -4 q 244 -10 282 -10 q 78 31 132 -10 q 25 156 25 71 z "},"Ź":{"ha":724,"x_min":25,"x_max":699,"o":"m 25 156 q 71 310 25 221 q 219 518 117 399 q 490 793 321 638 l 490 797 q 378 767 439 781 q 261 744 318 753 q 167 736 204 736 q 60 764 93 736 q 26 844 26 792 q 44 913 26 885 q 99 961 61 942 q 244 1007 154 990 q 439 1024 335 1024 q 586 1008 529 1024 q 671 957 643 993 q 699 857 699 921 q 670 747 699 811 q 582 602 642 683 q 429 422 522 521 q 206 206 336 322 l 206 201 q 311 241 251 224 q 433 269 371 258 q 547 279 496 279 q 654 254 621 279 q 688 169 688 229 q 642 69 688 107 q 515 15 597 31 q 421 1 469 7 q 327 -7 372 -4 q 244 -10 282 -10 q 78 31 132 -10 q 25 156 25 71 m 233 1082 q 261 1133 233 1106 q 333 1193 289 1160 q 418 1249 379 1228 q 488 1271 457 1271 q 540 1253 518 1271 q 574 1213 561 1236 q 586 1169 586 1189 q 560 1124 586 1142 q 486 1090 533 1106 q 408 1067 449 1078 q 333 1051 368 1057 q 274 1046 297 1046 q 244 1057 256 1046 q 233 1082 233 1068 z "},"Ž":{"ha":724,"x_min":25,"x_max":699,"o":"m 25 156 q 71 310 25 221 q 219 518 117 399 q 490 793 321 638 l 490 797 q 378 767 439 781 q 261 744 318 753 q 167 736 204 736 q 60 764 93 736 q 26 844 26 792 q 44 913 26 885 q 99 961 61 942 q 244 1007 154 990 q 439 1024 335 1024 q 586 1008 529 1024 q 671 957 643 993 q 699 857 699 921 q 670 747 699 811 q 582 602 642 683 q 429 422 522 521 q 206 206 336 322 l 206 201 q 311 241 251 224 q 433 269 371 258 q 547 279 496 279 q 654 254 621 279 q 688 169 688 229 q 642 69 688 107 q 515 15 597 31 q 421 1 469 7 q 327 -7 372 -4 q 244 -10 282 -10 q 78 31 132 -10 q 25 156 25 71 m 363 1060 q 299 1078 333 1060 q 226 1124 264 1096 q 165 1182 188 1154 q 143 1240 143 1210 q 161 1283 143 1267 q 207 1300 179 1300 q 281 1261 242 1300 q 363 1136 319 1222 l 339 1144 q 408 1253 369 1213 q 486 1293 447 1293 q 546 1272 522 1293 q 569 1215 569 1251 q 549 1160 569 1185 q 490 1110 528 1135 q 419 1074 456 1088 q 363 1060 383 1060 z "},"Ż":{"ha":724,"x_min":25,"x_max":699,"o":"m 25 156 q 71 310 25 221 q 219 518 117 399 q 490 793 321 638 l 490 797 q 378 767 439 781 q 261 744 318 753 q 167 736 204 736 q 60 764 93 736 q 26 844 26 792 q 44 913 26 885 q 99 961 61 942 q 244 1007 154 990 q 439 1024 335 1024 q 586 1008 529 1024 q 671 957 643 993 q 699 857 699 921 q 670 747 699 811 q 582 602 642 683 q 429 422 522 521 q 206 206 336 322 l 206 201 q 311 241 251 224 q 433 269 371 258 q 547 279 496 279 q 654 254 621 279 q 688 169 688 229 q 642 69 688 107 q 515 15 597 31 q 421 1 469 7 q 327 -7 372 -4 q 244 -10 282 -10 q 78 31 132 -10 q 25 156 25 71 m 368 1290 q 460 1256 432 1290 q 489 1176 489 1221 q 454 1090 489 1121 q 357 1060 419 1060 q 265 1093 296 1060 q 235 1172 235 1126 q 272 1260 235 1231 q 368 1290 308 1290 z "},"a":{"ha":758,"x_min":26,"x_max":700,"o":"m 586 -14 q 516 23 538 -14 q 490 140 494 60 l 507 133 q 269 -18 444 -18 q 133 17 188 -18 q 53 109 79 51 q 26 236 26 167 q 97 423 26 354 q 285 492 168 492 q 410 465 357 492 q 501 392 464 439 l 469 394 q 426 581 464 525 q 318 638 389 638 q 251 626 283 638 q 189 605 218 615 q 132 594 160 594 q 69 619 92 594 q 47 685 47 644 q 89 778 47 736 q 199 844 131 819 q 347 869 267 869 q 526 819 451 869 q 638 674 600 769 q 686 479 672 588 q 700 249 700 371 q 688 88 700 144 q 651 8 676 31 q 586 -14 626 -14 m 346 156 q 403 167 375 156 q 452 203 432 179 q 472 261 472 226 q 456 313 472 293 q 415 343 440 333 q 358 353 389 353 q 278 325 307 353 q 250 253 250 297 q 275 181 250 207 q 346 156 300 156 z "},"á":{"ha":758,"x_min":26,"x_max":700,"o":"m 586 -14 q 516 23 538 -14 q 490 140 494 60 l 507 133 q 269 -18 444 -18 q 133 17 188 -18 q 53 109 79 51 q 26 236 26 167 q 97 423 26 354 q 285 492 168 492 q 410 465 357 492 q 501 392 464 439 l 469 394 q 426 581 464 525 q 318 638 389 638 q 251 626 283 638 q 189 605 218 615 q 132 594 160 594 q 69 619 92 594 q 47 685 47 644 q 89 778 47 736 q 199 844 131 819 q 347 869 267 869 q 526 819 451 869 q 638 674 600 769 q 686 479 672 588 q 700 249 700 371 q 688 88 700 144 q 651 8 676 31 q 586 -14 626 -14 m 346 156 q 403 167 375 156 q 452 203 432 179 q 472 261 472 226 q 456 313 472 293 q 415 343 440 333 q 358 353 389 353 q 278 325 307 353 q 250 253 250 297 q 275 181 250 207 q 346 156 300 156 m 217 938 q 244 988 217 961 q 317 1049 272 1015 q 401 1105 363 1083 q 471 1126 440 1126 q 523 1109 501 1126 q 557 1068 544 1092 q 569 1025 569 1044 q 543 979 569 997 q 469 946 517 961 q 392 923 432 933 q 316 907 351 913 q 257 901 281 901 q 228 913 239 901 q 217 938 217 924 z "},"ă":{"ha":758,"x_min":26,"x_max":700,"o":"m 586 -14 q 516 23 538 -14 q 490 140 494 60 l 507 133 q 269 -18 444 -18 q 133 17 188 -18 q 53 109 79 51 q 26 236 26 167 q 97 423 26 354 q 285 492 168 492 q 410 465 357 492 q 501 392 464 439 l 469 394 q 426 581 464 525 q 318 638 389 638 q 251 626 283 638 q 189 605 218 615 q 132 594 160 594 q 69 619 92 594 q 47 685 47 644 q 89 778 47 736 q 199 844 131 819 q 347 869 267 869 q 526 819 451 869 q 638 674 600 769 q 686 479 672 588 q 700 249 700 371 q 688 88 700 144 q 651 8 676 31 q 586 -14 626 -14 m 346 156 q 403 167 375 156 q 452 203 432 179 q 472 261 472 226 q 456 313 472 293 q 415 343 440 333 q 358 353 389 353 q 278 325 307 353 q 250 253 250 297 q 275 181 250 207 q 346 156 300 156 m 339 903 q 196 951 247 903 q 144 1065 144 1000 q 206 1132 144 1132 q 276 1067 263 1132 q 296 1023 283 1038 q 338 1008 308 1008 q 375 1021 363 1008 q 394 1061 388 1033 q 421 1124 404 1101 q 472 1146 438 1146 q 518 1126 503 1146 q 533 1072 533 1107 q 511 989 533 1028 q 445 926 489 950 q 339 903 401 903 z "},"ǎ":{"ha":758,"x_min":26,"x_max":700,"o":"m 586 -14 q 516 23 538 -14 q 490 140 494 60 l 507 133 q 269 -18 444 -18 q 133 17 188 -18 q 53 109 79 51 q 26 236 26 167 q 97 423 26 354 q 285 492 168 492 q 410 465 357 492 q 501 392 464 439 l 469 394 q 426 581 464 525 q 318 638 389 638 q 251 626 283 638 q 189 605 218 615 q 132 594 160 594 q 69 619 92 594 q 47 685 47 644 q 89 778 47 736 q 199 844 131 819 q 347 869 267 869 q 526 819 451 869 q 638 674 600 769 q 686 479 672 588 q 700 249 700 371 q 688 88 700 144 q 651 8 676 31 q 586 -14 626 -14 m 346 156 q 403 167 375 156 q 452 203 432 179 q 472 261 472 226 q 456 313 472 293 q 415 343 440 333 q 358 353 389 353 q 278 325 307 353 q 250 253 250 297 q 275 181 250 207 q 346 156 300 156 m 346 915 q 282 933 317 915 q 210 979 247 951 q 149 1038 171 1010 q 126 1096 126 1065 q 144 1139 126 1122 q 190 1156 163 1156 q 264 1117 225 1156 q 346 992 303 1078 l 322 1000 q 392 1108 353 1068 q 469 1149 431 1149 q 529 1128 506 1149 q 553 1071 553 1107 q 532 1015 553 1040 q 474 965 511 990 q 403 929 439 943 q 346 915 367 915 z "},"â":{"ha":758,"x_min":26,"x_max":700,"o":"m 586 -14 q 516 23 538 -14 q 490 140 494 60 l 507 133 q 269 -18 444 -18 q 133 17 188 -18 q 53 109 79 51 q 26 236 26 167 q 97 423 26 354 q 285 492 168 492 q 410 465 357 492 q 501 392 464 439 l 469 394 q 426 581 464 525 q 318 638 389 638 q 251 626 283 638 q 189 605 218 615 q 132 594 160 594 q 69 619 92 594 q 47 685 47 644 q 89 778 47 736 q 199 844 131 819 q 347 869 267 869 q 526 819 451 869 q 638 674 600 769 q 686 479 672 588 q 700 249 700 371 q 688 88 700 144 q 651 8 676 31 q 586 -14 626 -14 m 346 156 q 403 167 375 156 q 452 203 432 179 q 472 261 472 226 q 456 313 472 293 q 415 343 440 333 q 358 353 389 353 q 278 325 307 353 q 250 253 250 297 q 275 181 250 207 q 346 156 300 156 m 346 1142 q 403 1127 367 1142 q 474 1090 439 1113 q 532 1041 511 1065 q 553 986 553 1017 q 529 929 553 950 q 469 908 506 908 q 392 948 431 908 q 322 1057 353 988 l 346 1065 q 264 940 303 979 q 190 901 225 901 q 144 918 163 901 q 126 961 126 935 q 149 1019 126 992 q 210 1078 171 1047 q 282 1124 247 1107 q 346 1142 317 1142 z "},"ä":{"ha":758,"x_min":26,"x_max":700,"o":"m 586 -14 q 516 23 538 -14 q 490 140 494 60 l 507 133 q 269 -18 444 -18 q 133 17 188 -18 q 53 109 79 51 q 26 236 26 167 q 97 423 26 354 q 285 492 168 492 q 410 465 357 492 q 501 392 464 439 l 469 394 q 426 581 464 525 q 318 638 389 638 q 251 626 283 638 q 189 605 218 615 q 132 594 160 594 q 69 619 92 594 q 47 685 47 644 q 89 778 47 736 q 199 844 131 819 q 347 869 267 869 q 526 819 451 869 q 638 674 600 769 q 686 479 672 588 q 700 249 700 371 q 688 88 700 144 q 651 8 676 31 q 586 -14 626 -14 m 346 156 q 403 167 375 156 q 452 203 432 179 q 472 261 472 226 q 456 313 472 293 q 415 343 440 333 q 358 353 389 353 q 278 325 307 353 q 250 253 250 297 q 275 181 250 207 q 346 156 300 156 m 189 908 q 110 938 135 908 q 85 1006 85 967 q 118 1087 85 1058 q 211 1115 151 1115 q 290 1084 264 1115 q 315 1010 315 1053 q 280 934 315 960 q 189 908 244 908 m 485 1129 q 567 1097 542 1129 q 592 1024 592 1065 q 560 942 592 969 q 471 915 529 915 q 390 946 417 915 q 363 1019 363 976 q 396 1101 363 1072 q 485 1129 429 1129 z "},"à":{"ha":758,"x_min":26,"x_max":700,"o":"m 586 -14 q 516 23 538 -14 q 490 140 494 60 l 507 133 q 269 -18 444 -18 q 133 17 188 -18 q 53 109 79 51 q 26 236 26 167 q 97 423 26 354 q 285 492 168 492 q 410 465 357 492 q 501 392 464 439 l 469 394 q 426 581 464 525 q 318 638 389 638 q 251 626 283 638 q 189 605 218 615 q 132 594 160 594 q 69 619 92 594 q 47 685 47 644 q 89 778 47 736 q 199 844 131 819 q 347 869 267 869 q 526 819 451 869 q 638 674 600 769 q 686 479 672 588 q 700 249 700 371 q 688 88 700 144 q 651 8 676 31 q 586 -14 626 -14 m 346 156 q 403 167 375 156 q 452 203 432 179 q 472 261 472 226 q 456 313 472 293 q 415 343 440 333 q 358 353 389 353 q 278 325 307 353 q 250 253 250 297 q 275 181 250 207 q 346 156 300 156 m 463 938 q 452 913 463 924 q 422 901 442 901 q 364 907 400 901 q 288 923 328 913 q 210 946 249 933 q 137 979 164 961 q 110 1025 110 997 q 122 1068 110 1044 q 158 1109 135 1092 q 208 1126 181 1126 q 278 1105 239 1126 q 363 1049 317 1083 q 435 988 408 1015 q 463 938 463 961 z "},"ā":{"ha":758,"x_min":26,"x_max":700,"o":"m 586 -14 q 516 23 538 -14 q 490 140 494 60 l 507 133 q 269 -18 444 -18 q 133 17 188 -18 q 53 109 79 51 q 26 236 26 167 q 97 423 26 354 q 285 492 168 492 q 410 465 357 492 q 501 392 464 439 l 469 394 q 426 581 464 525 q 318 638 389 638 q 251 626 283 638 q 189 605 218 615 q 132 594 160 594 q 69 619 92 594 q 47 685 47 644 q 89 778 47 736 q 199 844 131 819 q 347 869 267 869 q 526 819 451 869 q 638 674 600 769 q 686 479 672 588 q 700 249 700 371 q 688 88 700 144 q 651 8 676 31 q 586 -14 626 -14 m 346 156 q 403 167 375 156 q 452 203 432 179 q 472 261 472 226 q 456 313 472 293 q 415 343 440 333 q 358 353 389 353 q 278 325 307 353 q 250 253 250 297 q 275 181 250 207 q 346 156 300 156 m 194 910 q 114 931 140 910 q 88 988 88 953 q 111 1043 88 1022 q 190 1076 135 1064 q 280 1090 231 1085 q 378 1098 329 1096 q 469 1100 428 1100 q 563 1078 535 1100 q 590 1022 590 1057 q 566 963 590 985 q 493 932 542 942 q 399 921 454 926 q 289 913 343 915 q 194 910 235 910 z "},"ą":{"ha":758,"x_min":26,"x_max":700,"o":"m 586 -14 q 516 23 538 -14 q 490 140 494 60 l 507 133 q 269 -18 444 -18 q 133 17 188 -18 q 53 109 79 51 q 26 236 26 167 q 97 423 26 354 q 285 492 168 492 q 410 465 357 492 q 501 392 464 439 l 469 394 q 426 581 464 525 q 318 638 389 638 q 251 626 283 638 q 189 605 218 615 q 132 594 160 594 q 69 619 92 594 q 47 685 47 644 q 89 778 47 736 q 199 844 131 819 q 347 869 267 869 q 526 819 451 869 q 638 674 600 769 q 686 479 672 588 q 700 249 700 371 q 688 88 700 144 q 651 8 676 31 q 586 -14 626 -14 m 346 156 q 403 167 375 156 q 452 203 432 179 q 472 261 472 226 q 456 313 472 293 q 415 343 440 333 q 358 353 389 353 q 278 325 307 353 q 250 253 250 297 q 275 181 250 207 q 346 156 300 156 m 563 -293 q 446 -261 492 -293 q 400 -167 400 -229 q 437 -61 400 -112 q 558 39 474 -10 l 669 42 q 576 -51 611 -3 q 542 -126 542 -100 q 551 -147 542 -142 q 578 -153 561 -153 q 601 -151 589 -153 q 629 -150 614 -150 q 674 -166 660 -150 q 689 -210 689 -182 q 656 -272 689 -251 q 563 -293 624 -293 z "},"å":{"ha":758,"x_min":26,"x_max":700,"o":"m 586 -14 q 516 23 538 -14 q 490 140 494 60 l 507 133 q 269 -18 444 -18 q 133 17 188 -18 q 53 109 79 51 q 26 236 26 167 q 97 423 26 354 q 285 492 168 492 q 410 465 357 492 q 501 392 464 439 l 469 394 q 426 581 464 525 q 318 638 389 638 q 251 626 283 638 q 189 605 218 615 q 132 594 160 594 q 69 619 92 594 q 47 685 47 644 q 89 778 47 736 q 199 844 131 819 q 347 869 267 869 q 526 819 451 869 q 638 674 600 769 q 686 479 672 588 q 700 249 700 371 q 688 88 700 144 q 651 8 676 31 q 586 -14 626 -14 m 346 156 q 403 167 375 156 q 452 203 432 179 q 472 261 472 226 q 456 313 472 293 q 415 343 440 333 q 358 353 389 353 q 278 325 307 353 q 250 253 250 297 q 275 181 250 207 q 346 156 300 156 m 336 899 q 213 928 263 899 q 164 1021 164 958 q 213 1126 164 1085 q 353 1167 261 1167 q 474 1128 436 1167 q 513 1038 513 1090 q 465 938 513 976 q 336 899 418 899 m 328 978 q 393 991 367 978 q 419 1032 419 1004 q 400 1076 419 1060 q 339 1092 381 1092 q 277 1072 297 1092 q 257 1031 257 1053 q 276 992 257 1007 q 328 978 296 978 z "},"ã":{"ha":758,"x_min":26,"x_max":700,"o":"m 586 -14 q 516 23 538 -14 q 490 140 494 60 l 507 133 q 269 -18 444 -18 q 133 17 188 -18 q 53 109 79 51 q 26 236 26 167 q 97 423 26 354 q 285 492 168 492 q 410 465 357 492 q 501 392 464 439 l 469 394 q 426 581 464 525 q 318 638 389 638 q 251 626 283 638 q 189 605 218 615 q 132 594 160 594 q 69 619 92 594 q 47 685 47 644 q 89 778 47 736 q 199 844 131 819 q 347 869 267 869 q 526 819 451 869 q 638 674 600 769 q 686 479 672 588 q 700 249 700 371 q 688 88 700 144 q 651 8 676 31 q 586 -14 626 -14 m 346 156 q 403 167 375 156 q 452 203 432 179 q 472 261 472 226 q 456 313 472 293 q 415 343 440 333 q 358 353 389 353 q 278 325 307 353 q 250 253 250 297 q 275 181 250 207 q 346 156 300 156 m 258 1111 q 341 1091 304 1111 q 411 1035 378 1071 q 428 1026 421 1025 q 436 1038 435 1028 q 467 1109 449 1086 q 521 1132 486 1132 q 581 1068 581 1132 q 565 1000 581 1039 q 517 932 550 961 q 431 903 485 903 q 349 929 385 903 q 279 1003 314 956 q 263 1014 271 1015 q 250 992 254 1013 q 220 916 240 939 q 164 893 200 893 q 116 914 135 893 q 97 963 97 935 q 118 1034 97 1000 q 175 1090 139 1068 q 258 1111 211 1111 z "},"æ":{"ha":1193,"x_min":26,"x_max":1168,"o":"m 854 -11 q 633 35 717 -11 q 513 167 550 81 q 476 372 476 253 q 526 630 476 524 q 661 793 575 736 q 857 850 747 850 q 1057 783 993 850 q 1121 606 1121 715 q 1082 454 1121 518 q 975 356 1043 390 q 817 322 907 322 q 732 334 774 322 q 657 367 690 346 l 690 429 q 686 363 686 396 q 728 245 686 281 q 846 210 769 210 q 951 225 911 210 q 1019 254 990 240 q 1079 268 1049 268 q 1120 257 1100 268 q 1154 224 1140 246 q 1168 169 1168 203 q 1132 80 1168 121 q 1026 14 1096 39 q 854 -11 957 -11 m 346 156 q 403 167 375 156 q 452 203 432 179 q 472 261 472 226 q 456 313 472 293 q 415 343 440 333 q 358 353 389 353 q 278 325 307 353 q 250 253 250 297 q 275 181 250 207 q 346 156 300 156 m 276 -18 q 136 17 192 -18 q 53 109 81 51 q 26 236 26 167 q 97 423 26 354 q 285 492 168 492 q 410 465 357 492 q 501 392 464 439 l 469 394 q 426 581 464 525 q 318 638 389 638 q 251 626 283 638 q 189 605 218 615 q 132 594 160 594 q 69 619 92 594 q 47 685 47 644 q 87 778 47 736 q 193 844 126 819 q 338 869 260 869 q 512 819 439 869 q 622 674 585 769 l 561 189 q 276 -18 488 -18 m 790 456 q 888 497 850 456 q 926 597 926 538 q 904 665 926 638 q 838 692 882 692 q 768 669 800 692 q 718 611 736 647 q 700 532 700 575 q 724 475 700 494 q 790 456 747 456 z "},"b":{"ha":779,"x_min":57,"x_max":740,"o":"m 176 -14 q 117 8 140 -14 q 83 75 94 31 q 65 221 72 131 q 57 414 57 311 q 60 544 57 471 q 67 692 63 617 q 78 831 72 767 q 90 936 83 896 q 129 1045 103 1006 q 210 1085 156 1085 q 294 1043 268 1085 q 321 940 321 1001 q 312 796 321 879 q 285 626 303 713 l 261 610 q 304 717 275 668 q 379 794 333 765 q 485 822 425 822 q 672 726 603 822 q 740 425 740 629 q 703 186 740 282 q 600 42 665 90 q 451 -6 535 -6 q 322 46 375 -6 q 253 194 269 97 l 276 179 q 242 33 267 79 q 176 -14 217 -14 m 400 185 q 481 240 446 185 q 517 413 517 294 q 490 570 517 510 q 397 631 463 631 q 309 577 342 631 q 276 414 276 524 q 310 249 276 314 q 400 185 343 185 z "},"c":{"ha":668,"x_min":39,"x_max":661,"o":"m 369 -15 q 119 85 199 -15 q 39 363 39 185 q 88 606 39 500 q 226 773 136 713 q 444 833 317 833 q 606 792 550 833 q 661 679 661 750 q 629 598 661 628 q 539 568 597 568 q 497 573 517 568 q 456 582 476 578 q 410 586 435 586 q 305 539 340 586 q 269 403 269 492 q 303 278 269 317 q 394 240 336 240 q 445 247 422 240 q 490 258 468 253 q 535 264 513 264 q 609 238 579 264 q 639 161 639 211 q 609 72 639 113 q 519 8 579 32 q 369 -15 460 -15 z "},"ć":{"ha":668,"x_min":39,"x_max":661,"o":"m 369 -15 q 119 85 199 -15 q 39 363 39 185 q 88 606 39 500 q 226 773 136 713 q 444 833 317 833 q 606 792 550 833 q 661 679 661 750 q 629 598 661 628 q 539 568 597 568 q 497 573 517 568 q 456 582 476 578 q 410 586 435 586 q 305 539 340 586 q 269 403 269 492 q 303 278 269 317 q 394 240 336 240 q 445 247 422 240 q 490 258 468 253 q 535 264 513 264 q 609 238 579 264 q 639 161 639 211 q 609 72 639 113 q 519 8 579 32 q 369 -15 460 -15 m 260 929 q 288 980 260 953 q 360 1040 315 1007 q 444 1097 406 1075 q 514 1118 483 1118 q 566 1101 544 1118 q 600 1060 588 1083 q 613 1017 613 1036 q 586 971 613 989 q 513 938 560 953 q 435 915 475 925 q 359 899 394 904 q 300 893 324 893 q 271 904 282 893 q 260 929 260 915 z "},"č":{"ha":668,"x_min":39,"x_max":661,"o":"m 369 -15 q 119 85 199 -15 q 39 363 39 185 q 88 606 39 500 q 226 773 136 713 q 444 833 317 833 q 606 792 550 833 q 661 679 661 750 q 629 598 661 628 q 539 568 597 568 q 497 573 517 568 q 456 582 476 578 q 410 586 435 586 q 305 539 340 586 q 269 403 269 492 q 303 278 269 317 q 394 240 336 240 q 445 247 422 240 q 490 258 468 253 q 535 264 513 264 q 609 238 579 264 q 639 161 639 211 q 609 72 639 113 q 519 8 579 32 q 369 -15 460 -15 m 389 907 q 325 925 360 907 q 253 971 290 943 q 192 1029 214 1001 q 169 1088 169 1057 q 188 1131 169 1114 q 233 1147 206 1147 q 307 1108 268 1147 q 389 983 346 1069 l 365 992 q 435 1100 396 1060 q 513 1140 474 1140 q 572 1119 549 1140 q 596 1063 596 1099 q 575 1007 596 1032 q 517 957 554 982 q 446 921 482 935 q 389 907 410 907 z "},"ç":{"ha":668,"x_min":39,"x_max":661,"o":"m 369 -15 q 119 85 199 -15 q 39 363 39 185 q 88 606 39 500 q 226 773 136 713 q 444 833 317 833 q 606 792 550 833 q 661 679 661 750 q 629 598 661 628 q 539 568 597 568 q 497 573 517 568 q 456 582 476 578 q 410 586 435 586 q 305 539 340 586 q 269 403 269 492 q 303 278 269 317 q 394 240 336 240 q 445 247 422 240 q 490 258 468 253 q 535 264 513 264 q 609 238 579 264 q 639 161 639 211 q 609 72 639 113 q 519 8 579 32 q 369 -15 460 -15 m 283 -289 q 200 -228 200 -289 q 220 -181 200 -196 q 267 -161 240 -167 q 314 -153 290 -157 q 350 -149 338 -150 q 370 -139 363 -144 q 378 -124 378 -133 q 368 -106 378 -112 q 332 -96 358 -99 q 258 -72 282 -86 q 233 -29 233 -57 q 252 6 233 -4 q 299 15 271 15 q 390 -2 344 15 q 465 -53 435 -19 q 494 -135 494 -86 q 467 -211 494 -176 q 392 -267 439 -246 q 283 -289 344 -289 z "},"ċ":{"ha":668,"x_min":39,"x_max":661,"o":"m 369 -15 q 119 85 199 -15 q 39 363 39 185 q 88 606 39 500 q 226 773 136 713 q 444 833 317 833 q 606 792 550 833 q 661 679 661 750 q 629 598 661 628 q 539 568 597 568 q 497 573 517 568 q 456 582 476 578 q 410 586 435 586 q 305 539 340 586 q 269 403 269 492 q 303 278 269 317 q 394 240 336 240 q 445 247 422 240 q 490 258 468 253 q 535 264 513 264 q 609 238 579 264 q 639 161 639 211 q 609 72 639 113 q 519 8 579 32 q 369 -15 460 -15 m 393 1138 q 485 1103 457 1138 q 514 1024 514 1068 q 479 938 514 968 q 382 907 444 907 q 290 940 321 907 q 260 1019 260 974 q 297 1108 260 1078 q 393 1138 333 1138 z "},"d":{"ha":788,"x_min":39,"x_max":731,"o":"m 293 -19 q 106 83 174 -19 q 39 394 39 185 q 105 699 39 603 q 293 796 171 796 q 414 763 363 796 q 507 668 465 729 l 492 663 q 470 778 481 717 q 453 893 460 839 q 447 979 447 947 q 467 1065 447 1035 q 531 1094 488 1094 q 619 1051 585 1094 q 674 921 653 1008 q 703 757 690 853 q 723 556 715 661 q 731 357 731 451 q 713 131 731 213 q 665 18 696 50 q 594 -14 635 -14 q 528 29 546 -14 q 511 169 511 72 l 535 169 q 440 32 501 83 q 293 -19 378 -19 m 388 183 q 449 206 421 183 q 493 276 476 228 q 510 396 510 324 q 478 550 510 490 q 385 610 447 610 q 302 557 333 610 q 271 397 271 504 q 303 244 271 304 q 388 183 335 183 z "},"ð":{"ha":767,"x_min":39,"x_max":728,"o":"m 382 -19 q 127 72 215 -19 q 39 349 39 163 q 74 550 39 472 q 172 665 110 628 q 317 701 235 701 q 445 669 390 701 q 544 578 500 638 l 514 594 q 417 747 474 668 q 299 894 361 825 q 246 965 264 935 q 228 1026 228 994 q 249 1096 228 1069 q 315 1122 271 1122 q 410 1088 363 1122 q 517 979 458 1054 q 628 807 581 900 q 701 613 675 714 q 728 406 728 511 q 683 166 728 260 q 559 26 638 72 q 382 -19 481 -19 m 388 183 q 449 201 421 183 q 493 257 476 219 q 510 350 510 294 q 478 471 510 424 q 385 518 447 518 q 302 476 333 518 q 271 351 271 435 q 303 231 271 278 q 388 183 335 183 m 167 878 q 246 923 199 896 q 347 978 293 950 q 449 1030 400 1006 q 535 1069 499 1054 q 643 1054 614 1101 q 648 1004 658 1029 q 593 951 638 979 q 476 886 542 921 q 347 820 411 851 q 236 771 283 789 q 165 759 190 754 q 126 786 140 764 q 122 832 113 808 q 167 878 131 856 z "},"ď":{"ha":788,"x_min":39,"x_max":1014,"o":"m 293 -19 q 106 83 174 -19 q 39 394 39 185 q 105 699 39 603 q 293 796 171 796 q 414 763 363 796 q 507 668 465 729 l 492 663 q 470 778 481 717 q 453 893 460 839 q 447 979 447 947 q 467 1065 447 1035 q 531 1094 488 1094 q 619 1051 585 1094 q 674 921 653 1008 q 703 757 690 853 q 723 556 715 661 q 731 357 731 451 q 713 131 731 213 q 665 18 696 50 q 594 -14 635 -14 q 528 29 546 -14 q 511 169 511 72 l 535 169 q 440 32 501 83 q 293 -19 378 -19 m 388 183 q 449 206 421 183 q 493 276 476 228 q 510 396 510 324 q 478 550 510 490 q 385 610 447 610 q 302 557 333 610 q 271 397 271 504 q 303 244 271 304 q 388 183 335 183 m 800 854 q 785 908 785 868 q 794 1004 785 947 q 814 1089 804 1050 q 844 1151 824 1128 q 891 1174 863 1172 q 948 1167 919 1176 q 993 1143 976 1157 q 1013 1098 1014 1125 q 986 1026 1011 1071 q 949 963 971 996 q 906 903 926 931 q 869 858 885 876 q 835 842 856 843 q 800 854 815 842 z "},"đ":{"ha":794,"x_min":39,"x_max":844,"o":"m 293 -19 q 106 83 174 -19 q 39 394 39 185 q 105 699 39 603 q 293 796 171 796 q 413 763 361 796 q 507 668 465 729 l 492 663 q 470 778 481 717 q 453 893 460 839 q 447 979 447 947 q 467 1065 447 1035 q 531 1094 488 1094 q 619 1051 585 1094 q 674 921 653 1008 q 703 757 690 853 q 723 556 715 661 q 731 357 731 451 q 713 131 731 213 q 665 18 696 50 q 594 -14 635 -14 q 528 29 546 -14 q 511 169 511 72 l 535 169 q 440 32 501 83 q 293 -19 378 -19 m 388 183 q 449 206 421 183 q 493 276 476 228 q 510 396 510 324 q 478 550 510 490 q 385 610 447 610 q 302 557 333 610 q 271 397 271 504 q 303 244 271 304 q 388 183 335 183 m 274 833 q 197 852 219 833 q 174 904 174 871 q 196 958 174 936 q 275 992 218 981 q 375 1004 318 999 q 496 1015 432 1010 q 621 1022 560 1019 q 735 1025 682 1025 q 820 1005 796 1025 q 844 949 844 985 q 822 894 844 915 q 749 863 799 872 q 640 851 704 857 q 508 842 576 846 q 378 835 440 838 q 274 833 317 833 z "},"e":{"ha":769,"x_min":39,"x_max":744,"o":"m 417 -11 q 195 35 278 -11 q 76 167 113 81 q 39 372 39 253 q 90 630 39 524 q 231 793 142 736 q 433 850 319 850 q 633 783 569 850 q 697 606 697 715 q 657 454 697 518 q 544 356 617 390 q 379 322 472 322 q 294 334 336 322 q 219 367 253 346 l 253 429 q 249 363 249 396 q 290 245 249 281 q 408 210 332 210 q 519 225 476 210 q 593 254 563 240 q 656 268 624 268 q 697 257 676 268 q 731 224 717 246 q 744 169 744 203 q 707 80 744 121 q 597 14 669 39 q 417 -11 524 -11 m 353 456 q 460 497 418 456 q 503 597 503 538 q 481 665 503 638 q 414 692 458 692 q 338 669 372 692 q 283 611 303 647 q 263 532 263 575 q 286 475 263 494 q 353 456 310 456 z "},"é":{"ha":769,"x_min":39,"x_max":744,"o":"m 417 -11 q 195 35 278 -11 q 76 167 113 81 q 39 372 39 253 q 90 630 39 524 q 231 793 142 736 q 433 850 319 850 q 633 783 569 850 q 697 606 697 715 q 657 454 697 518 q 544 356 617 390 q 379 322 472 322 q 294 334 336 322 q 219 367 253 346 l 253 429 q 249 363 249 396 q 290 245 249 281 q 408 210 332 210 q 519 225 476 210 q 593 254 563 240 q 656 268 624 268 q 697 257 676 268 q 731 224 717 246 q 744 169 744 203 q 707 80 744 121 q 597 14 669 39 q 417 -11 524 -11 m 353 456 q 460 497 418 456 q 503 597 503 538 q 481 665 503 638 q 414 692 458 692 q 338 669 372 692 q 283 611 303 647 q 263 532 263 575 q 286 475 263 494 q 353 456 310 456 m 297 918 q 325 969 297 942 q 397 1029 353 996 q 482 1085 443 1064 q 551 1107 521 1107 q 603 1090 582 1107 q 638 1049 625 1072 q 650 1006 650 1025 q 624 960 650 978 q 550 926 597 942 q 472 903 513 914 q 397 888 432 893 q 338 882 361 882 q 308 893 319 882 q 297 918 297 904 z "},"ě":{"ha":769,"x_min":39,"x_max":744,"o":"m 417 -11 q 195 35 278 -11 q 76 167 113 81 q 39 372 39 253 q 90 630 39 524 q 231 793 142 736 q 433 850 319 850 q 633 783 569 850 q 697 606 697 715 q 657 454 697 518 q 544 356 617 390 q 379 322 472 322 q 294 334 336 322 q 219 367 253 346 l 253 429 q 249 363 249 396 q 290 245 249 281 q 408 210 332 210 q 519 225 476 210 q 593 254 563 240 q 656 268 624 268 q 697 257 676 268 q 731 224 717 246 q 744 169 744 203 q 707 80 744 121 q 597 14 669 39 q 417 -11 524 -11 m 353 456 q 460 497 418 456 q 503 597 503 538 q 481 665 503 638 q 414 692 458 692 q 338 669 372 692 q 283 611 303 647 q 263 532 263 575 q 286 475 263 494 q 353 456 310 456 m 426 896 q 363 914 397 896 q 290 960 328 932 q 229 1018 251 990 q 207 1076 207 1046 q 225 1119 207 1103 q 271 1136 243 1136 q 344 1097 306 1136 q 426 972 383 1058 l 403 981 q 472 1089 433 1049 q 550 1129 511 1129 q 610 1108 586 1129 q 633 1051 633 1088 q 613 996 633 1021 q 554 946 592 971 q 483 910 519 924 q 426 896 447 896 z "},"ê":{"ha":769,"x_min":39,"x_max":744,"o":"m 417 -11 q 195 35 278 -11 q 76 167 113 81 q 39 372 39 253 q 90 630 39 524 q 231 793 142 736 q 433 850 319 850 q 633 783 569 850 q 697 606 697 715 q 657 454 697 518 q 544 356 617 390 q 379 322 472 322 q 294 334 336 322 q 219 367 253 346 l 253 429 q 249 363 249 396 q 290 245 249 281 q 408 210 332 210 q 519 225 476 210 q 593 254 563 240 q 656 268 624 268 q 697 257 676 268 q 731 224 717 246 q 744 169 744 203 q 707 80 744 121 q 597 14 669 39 q 417 -11 524 -11 m 353 456 q 460 497 418 456 q 503 597 503 538 q 481 665 503 638 q 414 692 458 692 q 338 669 372 692 q 283 611 303 647 q 263 532 263 575 q 286 475 263 494 q 353 456 310 456 m 426 1122 q 483 1108 447 1122 q 554 1071 519 1093 q 613 1022 592 1046 q 633 967 633 997 q 610 910 633 931 q 550 889 586 889 q 472 928 511 889 q 403 1038 433 968 l 426 1046 q 344 921 383 960 q 271 882 306 882 q 225 899 243 882 q 207 942 207 915 q 229 1000 207 972 q 290 1058 251 1028 q 363 1105 328 1088 q 426 1122 397 1122 z "},"ë":{"ha":769,"x_min":39,"x_max":744,"o":"m 417 -11 q 195 35 278 -11 q 76 167 113 81 q 39 372 39 253 q 90 630 39 524 q 231 793 142 736 q 433 850 319 850 q 633 783 569 850 q 697 606 697 715 q 657 454 697 518 q 544 356 617 390 q 379 322 472 322 q 294 334 336 322 q 219 367 253 346 l 253 429 q 249 363 249 396 q 290 245 249 281 q 408 210 332 210 q 519 225 476 210 q 593 254 563 240 q 656 268 624 268 q 697 257 676 268 q 731 224 717 246 q 744 169 744 203 q 707 80 744 121 q 597 14 669 39 q 417 -11 524 -11 m 353 456 q 460 497 418 456 q 503 597 503 538 q 481 665 503 638 q 414 692 458 692 q 338 669 372 692 q 283 611 303 647 q 263 532 263 575 q 286 475 263 494 q 353 456 310 456 m 271 889 q 192 918 217 889 q 167 986 167 947 q 200 1067 167 1039 q 293 1096 233 1096 q 372 1065 346 1096 q 397 990 397 1033 q 362 915 397 940 q 271 889 326 889 m 567 1110 q 649 1078 624 1110 q 674 1004 674 1046 q 642 923 674 950 q 553 896 611 896 q 472 926 499 896 q 444 1000 444 957 q 478 1081 444 1053 q 567 1110 511 1110 z "},"ė":{"ha":769,"x_min":39,"x_max":744,"o":"m 417 -11 q 195 35 278 -11 q 76 167 113 81 q 39 372 39 253 q 90 630 39 524 q 231 793 142 736 q 433 850 319 850 q 633 783 569 850 q 697 606 697 715 q 657 454 697 518 q 544 356 617 390 q 379 322 472 322 q 294 334 336 322 q 219 367 253 346 l 253 429 q 249 363 249 396 q 290 245 249 281 q 408 210 332 210 q 519 225 476 210 q 593 254 563 240 q 656 268 624 268 q 697 257 676 268 q 731 224 717 246 q 744 169 744 203 q 707 80 744 121 q 597 14 669 39 q 417 -11 524 -11 m 353 456 q 460 497 418 456 q 503 597 503 538 q 481 665 503 638 q 414 692 458 692 q 338 669 372 692 q 283 611 303 647 q 263 532 263 575 q 286 475 263 494 q 353 456 310 456 m 432 1126 q 524 1092 496 1126 q 553 1013 553 1057 q 518 926 553 957 q 421 896 483 896 q 329 929 360 896 q 299 1008 299 963 q 335 1097 299 1067 q 432 1126 372 1126 z "},"è":{"ha":769,"x_min":39,"x_max":744,"o":"m 417 -11 q 195 35 278 -11 q 76 167 113 81 q 39 372 39 253 q 90 630 39 524 q 231 793 142 736 q 433 850 319 850 q 633 783 569 850 q 697 606 697 715 q 657 454 697 518 q 544 356 617 390 q 379 322 472 322 q 294 334 336 322 q 219 367 253 346 l 253 429 q 249 363 249 396 q 290 245 249 281 q 408 210 332 210 q 519 225 476 210 q 593 254 563 240 q 656 268 624 268 q 697 257 676 268 q 731 224 717 246 q 744 169 744 203 q 707 80 744 121 q 597 14 669 39 q 417 -11 524 -11 m 353 456 q 460 497 418 456 q 503 597 503 538 q 481 665 503 638 q 414 692 458 692 q 338 669 372 692 q 283 611 303 647 q 263 532 263 575 q 286 475 263 494 q 353 456 310 456 m 543 918 q 533 893 543 904 q 503 882 522 882 q 444 888 481 882 q 369 903 408 893 q 290 926 329 914 q 217 960 244 942 q 190 1006 190 978 q 203 1049 190 1025 q 238 1090 215 1072 q 289 1107 261 1107 q 358 1085 319 1107 q 443 1029 397 1064 q 516 969 489 996 q 543 918 543 942 z "},"ē":{"ha":769,"x_min":39,"x_max":744,"o":"m 417 -11 q 195 35 278 -11 q 76 167 113 81 q 39 372 39 253 q 90 630 39 524 q 231 793 142 736 q 433 850 319 850 q 633 783 569 850 q 697 606 697 715 q 657 454 697 518 q 544 356 617 390 q 379 322 472 322 q 294 334 336 322 q 219 367 253 346 l 253 429 q 249 363 249 396 q 290 245 249 281 q 408 210 332 210 q 519 225 476 210 q 593 254 563 240 q 656 268 624 268 q 697 257 676 268 q 731 224 717 246 q 744 169 744 203 q 707 80 744 121 q 597 14 669 39 q 417 -11 524 -11 m 353 456 q 460 497 418 456 q 503 597 503 538 q 481 665 503 638 q 414 692 458 692 q 338 669 372 692 q 283 611 303 647 q 263 532 263 575 q 286 475 263 494 q 353 456 310 456 m 275 890 q 194 912 221 890 q 168 968 168 933 q 192 1024 168 1003 q 271 1057 215 1044 q 360 1071 311 1065 q 459 1078 410 1076 q 550 1081 508 1081 q 643 1059 615 1081 q 671 1003 671 1038 q 647 944 671 965 q 574 913 622 922 q 479 901 535 907 q 369 893 424 896 q 275 890 315 890 z "},"ę":{"ha":769,"x_min":39,"x_max":744,"o":"m 417 -11 q 195 35 278 -11 q 76 167 113 81 q 39 372 39 253 q 90 630 39 524 q 231 793 142 736 q 433 850 319 850 q 633 783 569 850 q 697 606 697 715 q 657 454 697 518 q 544 356 617 390 q 379 322 472 322 q 294 334 336 322 q 219 367 253 346 l 253 429 q 249 363 249 396 q 290 245 249 281 q 408 210 332 210 q 519 225 476 210 q 593 254 563 240 q 656 268 624 268 q 697 257 676 268 q 731 224 717 246 q 744 169 744 203 q 707 80 744 121 q 597 14 669 39 q 417 -11 524 -11 m 353 456 q 460 497 418 456 q 503 597 503 538 q 481 665 503 638 q 414 692 458 692 q 338 669 372 692 q 283 611 303 647 q 263 532 263 575 q 286 475 263 494 q 353 456 310 456 m 542 -293 q 425 -261 471 -293 q 379 -167 379 -229 q 416 -61 379 -112 q 538 39 453 -10 l 649 42 q 556 -51 590 -3 q 521 -126 521 -100 q 531 -147 521 -142 q 557 -153 540 -153 q 581 -151 568 -153 q 608 -150 593 -150 q 653 -166 639 -150 q 668 -210 668 -182 q 635 -272 668 -251 q 542 -293 603 -293 z "},"f":{"ha":650,"x_min":19,"x_max":631,"o":"m 257 786 l 242 786 q 229 896 229 844 q 281 1058 229 999 q 458 1117 333 1117 q 570 1090 536 1117 q 604 1008 604 1063 q 504 904 604 914 q 444 888 465 900 q 415 851 424 876 q 403 781 406 826 l 382 783 q 439 803 407 796 q 501 810 471 810 q 594 783 558 810 q 631 694 631 757 q 593 603 631 633 q 500 572 556 572 q 448 577 475 572 q 394 590 421 582 l 401 610 q 429 471 418 546 q 447 321 440 396 q 454 181 454 246 q 439 83 454 128 q 394 13 424 39 q 318 -14 364 -14 q 216 38 247 -14 q 185 165 185 89 q 192 301 185 225 q 213 459 199 378 q 246 615 226 540 l 267 606 q 138 572 217 572 q 50 599 81 572 q 19 681 19 625 q 56 771 19 739 q 154 803 92 803 q 210 798 183 803 q 257 786 236 793 z "},"g":{"ha":789,"x_min":39,"x_max":731,"o":"m 292 39 q 108 138 178 39 q 39 438 39 236 q 105 752 39 653 q 285 851 171 851 q 405 815 353 851 q 496 711 457 778 l 479 675 q 472 717 475 694 q 469 750 469 739 q 492 844 469 811 q 561 878 514 878 q 645 838 614 878 q 692 722 676 797 q 720 557 710 657 q 731 354 731 457 q 721 126 731 218 q 690 -27 711 35 q 631 -133 668 -89 q 490 -236 575 -200 q 293 -272 404 -272 q 158 -254 208 -272 q 85 -206 107 -236 q 63 -136 63 -175 q 85 -67 63 -94 q 153 -39 108 -39 q 231 -48 188 -39 q 328 -57 274 -57 q 472 -3 429 -57 q 514 150 514 50 q 510 225 514 182 l 529 226 q 435 90 497 140 q 292 39 374 39 m 378 235 q 438 256 408 235 q 485 324 467 276 q 504 451 504 371 q 472 608 504 547 q 375 668 439 668 q 293 615 321 668 q 265 453 265 561 q 293 292 265 350 q 378 235 321 235 z "},"ğ":{"ha":789,"x_min":39,"x_max":731,"o":"m 292 39 q 108 138 178 39 q 39 438 39 236 q 105 752 39 653 q 285 851 171 851 q 405 815 353 851 q 496 711 457 778 l 479 675 q 472 717 475 694 q 469 750 469 739 q 492 844 469 811 q 561 878 514 878 q 645 838 614 878 q 692 722 676 797 q 720 557 710 657 q 731 354 731 457 q 721 126 731 218 q 690 -27 711 35 q 631 -133 668 -89 q 490 -236 575 -200 q 293 -272 404 -272 q 158 -254 208 -272 q 85 -206 107 -236 q 63 -136 63 -175 q 85 -67 63 -94 q 153 -39 108 -39 q 231 -48 188 -39 q 328 -57 274 -57 q 472 -3 429 -57 q 514 150 514 50 q 510 225 514 182 l 529 226 q 435 90 497 140 q 292 39 374 39 m 378 235 q 438 256 408 235 q 485 324 467 276 q 504 451 504 371 q 472 608 504 547 q 375 668 439 668 q 293 615 321 668 q 265 453 265 561 q 293 292 265 350 q 378 235 321 235 m 382 894 q 239 943 290 894 q 188 1057 188 992 q 249 1124 188 1124 q 319 1058 306 1124 q 339 1015 326 1029 q 381 1000 351 1000 q 418 1013 406 1000 q 438 1053 431 1025 q 464 1115 447 1093 q 515 1138 481 1138 q 561 1118 546 1138 q 576 1064 576 1099 q 554 981 576 1019 q 488 918 532 942 q 382 894 444 894 z "},"ģ":{"ha":789,"x_min":39,"x_max":731,"o":"m 292 39 q 108 138 178 39 q 39 438 39 236 q 105 752 39 653 q 285 851 171 851 q 405 815 353 851 q 496 711 457 778 l 479 675 q 472 717 475 694 q 469 750 469 739 q 492 844 469 811 q 561 878 514 878 q 645 838 614 878 q 692 722 676 797 q 720 557 710 657 q 731 354 731 457 q 721 126 731 218 q 690 -27 711 35 q 631 -133 668 -89 q 490 -236 575 -200 q 293 -272 404 -272 q 158 -254 208 -272 q 85 -206 107 -236 q 63 -136 63 -175 q 85 -67 63 -94 q 153 -39 108 -39 q 231 -48 188 -39 q 328 -57 274 -57 q 472 -3 429 -57 q 514 150 514 50 q 510 225 514 182 l 529 226 q 435 90 497 140 q 292 39 374 39 m 378 235 q 438 256 408 235 q 485 324 467 276 q 504 451 504 371 q 472 608 504 547 q 375 668 439 668 q 293 615 321 668 q 265 453 265 561 q 293 292 265 350 q 378 235 321 235 m 378 908 q 294 937 326 908 q 261 1026 261 965 q 276 1100 261 1060 q 318 1172 292 1140 q 361 1213 340 1200 q 401 1226 382 1226 q 428 1219 418 1226 q 439 1197 439 1213 q 428 1163 439 1185 q 379 1100 417 1140 l 374 1111 q 469 1086 442 1111 q 496 1015 496 1061 q 485 965 496 990 q 449 924 475 940 q 378 908 424 908 z "},"ġ":{"ha":789,"x_min":39,"x_max":731,"o":"m 292 39 q 108 138 178 39 q 39 438 39 236 q 105 752 39 653 q 285 851 171 851 q 405 815 353 851 q 496 711 457 778 l 479 675 q 472 717 475 694 q 469 750 469 739 q 492 844 469 811 q 561 878 514 878 q 645 838 614 878 q 692 722 676 797 q 720 557 710 657 q 731 354 731 457 q 721 126 731 218 q 690 -27 711 35 q 631 -133 668 -89 q 490 -236 575 -200 q 293 -272 404 -272 q 158 -254 208 -272 q 85 -206 107 -236 q 63 -136 63 -175 q 85 -67 63 -94 q 153 -39 108 -39 q 231 -48 188 -39 q 328 -57 274 -57 q 472 -3 429 -57 q 514 150 514 50 q 510 225 514 182 l 529 226 q 435 90 497 140 q 292 39 374 39 m 378 235 q 438 256 408 235 q 485 324 467 276 q 504 451 504 371 q 472 608 504 547 q 375 668 439 668 q 293 615 321 668 q 265 453 265 561 q 293 292 265 350 q 378 235 321 235 m 393 1138 q 485 1103 457 1138 q 514 1024 514 1068 q 479 938 514 968 q 382 907 444 907 q 290 940 321 907 q 260 1019 260 974 q 297 1108 260 1078 q 393 1138 333 1138 z "},"h":{"ha":824,"x_min":57,"x_max":765,"o":"m 225 1100 q 301 1062 279 1100 q 322 949 322 1024 q 315 807 322 889 q 294 654 308 725 l 286 654 q 386 781 325 732 q 514 829 447 829 q 626 795 578 829 q 708 692 675 761 q 752 540 739 628 q 765 364 765 453 q 746 158 765 235 q 692 48 726 82 q 611 14 657 14 q 506 169 506 14 q 513 306 506 236 q 521 435 521 376 q 501 563 521 519 q 443 606 481 606 q 363 549 393 606 q 332 392 332 492 q 341 271 332 335 q 350 144 350 207 q 318 24 350 61 q 236 -12 286 -12 q 174 0 201 -12 q 128 51 147 13 q 97 165 110 89 q 81 288 89 218 q 69 434 74 357 q 60 584 64 511 q 57 715 57 657 q 101 1008 57 917 q 225 1100 144 1100 z "},"ħ":{"ha":842,"x_min":-57,"x_max":785,"o":"m 254 -12 q 192 0 219 -12 q 147 51 165 13 q 115 165 128 89 q 100 288 107 218 q 88 434 93 357 q 78 584 82 511 q 75 715 75 657 q 119 1008 75 917 q 243 1100 163 1100 q 319 1062 297 1100 q 340 949 340 1024 q 333 807 340 889 q 313 654 326 725 l 304 654 q 404 781 343 732 q 532 829 465 829 q 644 795 596 829 q 726 692 693 761 q 771 540 757 628 q 785 364 785 453 q 765 158 785 235 q 710 48 744 82 q 629 14 676 14 q 524 169 524 14 q 531 306 524 236 q 539 435 539 376 q 519 563 539 519 q 461 606 499 606 q 381 549 411 606 q 350 392 350 492 q 359 271 350 335 q 368 144 368 207 q 336 24 368 61 q 254 -12 304 -12 m 43 833 q -34 852 -11 833 q -57 904 -57 871 q -35 958 -57 936 q 44 992 -12 981 q 145 1004 88 999 q 266 1015 203 1010 q 390 1022 329 1019 q 504 1025 451 1025 q 590 1005 565 1025 q 615 949 615 985 q 592 894 615 915 q 518 863 568 872 q 410 851 474 857 q 278 842 347 846 q 148 835 210 838 q 43 833 86 833 z "},"i":{"ha":375,"x_min":57,"x_max":318,"o":"m 197 1065 q 290 1031 261 1065 q 318 951 318 996 q 283 865 318 896 q 186 835 249 835 q 94 868 124 835 q 64 947 64 901 q 101 1035 64 1006 q 197 1065 138 1065 m 208 756 q 289 672 260 756 q 318 407 318 589 q 281 85 318 183 q 168 -14 243 -14 q 84 59 111 -14 q 57 314 57 132 q 99 647 57 538 q 208 756 142 756 z "},"ı":{"ha":379,"x_min":57,"x_max":321,"o":"m 211 756 q 292 672 264 756 q 321 407 321 589 q 283 85 321 183 q 171 -14 246 -14 q 85 59 113 -14 q 57 314 57 132 q 99 647 57 538 q 211 756 142 756 z "},"í":{"ha":379,"x_min":57,"x_max":421,"o":"m 211 756 q 292 672 264 756 q 321 407 321 589 q 283 85 321 183 q 171 -14 246 -14 q 85 59 113 -14 q 57 314 57 132 q 99 647 57 538 q 211 756 142 756 m 67 824 q 94 874 67 847 q 167 935 122 901 q 251 991 213 969 q 321 1013 290 1013 q 373 995 351 1013 q 407 954 394 978 q 419 911 419 931 q 393 865 419 883 q 319 832 367 847 q 242 809 282 819 q 166 793 201 799 q 107 788 131 788 q 78 799 89 788 q 67 824 67 810 z "},"î":{"ha":379,"x_min":0,"x_max":381,"o":"m 211 756 q 292 672 264 756 q 321 407 321 589 q 283 85 321 183 q 171 -14 246 -14 q 85 59 113 -14 q 57 314 57 132 q 99 647 57 538 q 211 756 142 756 m 196 1028 q 248 1013 214 1028 q 314 975 282 999 q 363 927 346 951 q 379 872 379 903 q 356 815 379 836 q 301 794 333 794 q 231 834 264 794 q 172 943 199 874 l 196 951 q 128 826 160 865 q 64 788 97 788 q 18 804 36 788 q 0 847 0 821 q 18 905 0 878 q 68 961 36 932 q 136 1011 104 994 q 196 1028 168 1028 z "},"ï":{"ha":379,"x_min":-8,"x_max":390,"o":"m 211 756 q 292 672 264 756 q 321 407 321 589 q 283 85 321 183 q 171 -14 246 -14 q 85 59 113 -14 q 57 314 57 132 q 99 647 57 538 q 211 756 142 756 m 71 794 q 10 824 29 794 q -8 892 -8 853 q 19 973 -8 944 q 94 1001 46 1001 q 154 970 135 1001 q 174 896 174 939 q 146 820 174 846 q 71 794 118 794 m 306 1015 q 370 983 350 1015 q 390 910 390 951 q 365 828 390 856 q 293 801 340 801 q 229 832 250 801 q 208 906 208 863 q 235 987 208 958 q 306 1015 263 1015 z "},"ì":{"ha":379,"x_min":-39,"x_max":321,"o":"m 211 756 q 292 672 264 756 q 321 407 321 589 q 283 85 321 183 q 171 -14 246 -14 q 85 59 113 -14 q 57 314 57 132 q 99 647 57 538 q 211 756 142 756 m 314 824 q 303 799 314 810 q 274 788 293 788 q 215 793 251 788 q 140 809 179 799 q 61 832 100 819 q -12 865 15 847 q -39 911 -39 883 q -26 954 -39 931 q 9 995 -14 978 q 60 1013 32 1013 q 129 991 90 1013 q 214 935 168 969 q 287 874 260 901 q 314 824 314 847 z "},"ĳ":{"ha":740,"x_min":57,"x_max":683,"o":"m 197 1065 q 290 1031 261 1065 q 318 951 318 996 q 283 865 318 896 q 186 835 249 835 q 94 868 124 835 q 64 947 64 901 q 101 1035 64 1006 q 197 1065 138 1065 m 208 756 q 289 672 260 756 q 318 407 318 589 q 281 85 318 183 q 168 -14 243 -14 q 84 59 111 -14 q 57 314 57 132 q 99 647 57 538 q 208 756 142 756 m 449 -289 q 350 -266 393 -289 q 283 -207 307 -243 q 260 -132 260 -171 q 279 -69 260 -92 q 332 -47 299 -47 q 420 -78 374 -47 q 508 -168 467 -108 l 493 -167 q 447 184 463 17 q 432 485 432 351 q 458 691 432 622 q 542 760 483 760 q 645 672 607 760 q 683 379 683 585 q 677 194 683 289 q 659 13 671 99 q 628 -132 647 -72 q 556 -251 600 -214 q 449 -289 513 -289 m 518 850 q 442 873 471 850 q 413 942 413 896 q 447 1033 413 996 q 547 1069 482 1069 q 631 1042 603 1069 q 658 969 658 1015 q 619 881 658 913 q 518 850 579 850 z "},"ī":{"ha":379,"x_min":-61,"x_max":442,"o":"m 211 756 q 292 672 264 756 q 321 407 321 589 q 283 85 321 183 q 171 -14 246 -14 q 85 59 113 -14 q 57 314 57 132 q 99 647 57 538 q 211 756 142 756 m 46 796 q -35 817 -8 796 q -61 874 -61 839 q -37 929 -61 908 q 42 963 -14 950 q 131 976 82 971 q 230 984 181 982 q 321 986 279 986 q 414 965 386 986 q 442 908 442 943 q 417 849 442 871 q 344 818 393 828 q 250 807 306 813 q 140 799 194 801 q 46 796 86 796 z "},"į":{"ha":379,"x_min":-10,"x_max":322,"o":"m 211 756 q 292 672 264 756 q 321 407 321 589 q 283 85 321 183 q 171 -14 246 -14 q 85 59 113 -14 q 57 314 57 132 q 99 647 57 538 q 211 756 142 756 m 201 1032 q 294 997 265 1032 q 322 918 322 963 q 288 832 322 863 q 190 801 253 801 q 99 835 129 801 q 68 914 68 868 q 105 1002 68 972 q 201 1032 142 1032 m 153 -293 q 36 -261 82 -293 q -10 -167 -10 -229 q 27 -61 -10 -112 q 149 39 64 -10 l 260 42 q 167 -51 201 -3 q 132 -126 132 -100 q 142 -147 132 -142 q 168 -153 151 -153 q 192 -151 179 -153 q 219 -150 204 -150 q 265 -166 250 -150 q 279 -210 279 -182 q 247 -272 279 -251 q 153 -293 214 -293 z "},"j":{"ha":365,"x_min":-115,"x_max":308,"o":"m 74 -289 q -25 -266 18 -289 q -92 -207 -68 -243 q -115 -132 -115 -171 q -96 -69 -115 -92 q -43 -47 -76 -47 q 45 -78 -1 -47 q 133 -168 92 -108 l 118 -167 q 72 184 88 17 q 57 485 57 351 q 83 691 57 622 q 167 760 108 760 q 270 672 232 760 q 308 379 308 585 q 302 194 308 289 q 284 13 296 99 q 253 -132 272 -72 q 181 -251 225 -214 q 74 -289 138 -289 m 143 850 q 67 873 96 850 q 38 942 38 896 q 72 1033 38 996 q 172 1069 107 1069 q 256 1042 228 1069 q 283 969 283 1015 q 244 881 283 913 q 143 850 204 850 z "},"ȷ":{"ha":357,"x_min":-115,"x_max":300,"o":"m 78 -289 q -22 -266 22 -289 q -90 -207 -65 -243 q -115 -132 -115 -171 q -97 -76 -115 -96 q -50 -56 -79 -56 q 44 -88 -6 -56 q 138 -182 93 -121 l 119 -179 q 79 183 93 10 q 65 493 65 356 q 89 693 65 626 q 167 760 113 760 q 264 672 228 760 q 300 375 300 583 q 294 187 300 283 q 276 4 288 90 q 247 -142 265 -82 q 181 -254 222 -219 q 78 -289 140 -289 z "},"k":{"ha":739,"x_min":57,"x_max":719,"o":"m 168 -14 q 115 4 135 -14 q 86 57 94 22 q 65 201 74 104 q 57 413 57 297 q 67 693 57 558 q 94 914 78 828 q 144 1051 113 1007 q 226 1094 175 1094 q 297 1053 272 1094 q 322 913 322 1013 q 317 750 322 836 q 296 565 311 664 l 301 565 q 423 753 367 685 q 528 849 479 821 q 618 878 578 878 q 694 847 668 878 q 719 771 719 815 q 638 615 719 694 q 394 450 557 535 l 400 472 q 567 342 499 408 q 670 215 635 276 q 706 106 706 154 q 676 30 706 58 q 594 1 647 1 q 499 36 549 1 q 401 147 449 71 q 308 344 353 222 l 303 344 q 292 198 301 268 q 272 82 283 128 q 236 12 261 38 q 168 -14 211 -14 z "},"ķ":{"ha":739,"x_min":57,"x_max":719,"o":"m 168 -14 q 115 4 135 -14 q 86 57 94 22 q 65 201 74 104 q 57 413 57 297 q 67 693 57 558 q 94 914 78 828 q 144 1051 113 1007 q 226 1094 175 1094 q 297 1053 272 1094 q 322 913 322 1013 q 317 750 322 836 q 296 565 311 664 l 301 565 q 423 753 367 685 q 528 849 479 821 q 618 878 578 878 q 694 847 668 878 q 719 771 719 815 q 638 615 719 694 q 394 450 557 535 l 400 472 q 567 342 499 408 q 670 215 635 276 q 706 106 706 154 q 676 30 706 58 q 594 1 647 1 q 499 36 549 1 q 401 147 449 71 q 308 344 353 222 l 303 344 q 292 198 301 268 q 272 82 283 128 q 236 12 261 38 q 168 -14 211 -14 m 385 -250 q 289 -225 317 -250 q 261 -154 261 -200 q 272 -103 261 -128 q 309 -63 283 -79 q 381 -47 335 -47 q 464 -76 432 -47 q 496 -165 496 -104 q 482 -239 496 -199 q 440 -311 468 -279 q 397 -351 418 -337 q 356 -365 375 -365 q 330 -358 340 -365 q 319 -336 319 -351 q 331 -301 319 -324 q 379 -239 342 -278 l 385 -250 z "},"l":{"ha":451,"x_min":57,"x_max":426,"o":"m 225 -3 q 147 19 175 -3 q 100 93 118 42 q 67 264 78 158 q 57 522 57 369 q 65 709 57 615 q 85 881 72 803 q 113 1003 97 958 q 156 1077 132 1056 q 213 1099 179 1099 q 267 1076 246 1099 q 301 1001 289 1054 q 317 890 311 956 q 322 750 322 824 q 313 551 322 656 q 287 347 303 447 q 249 163 271 246 l 181 169 q 257 226 214 206 q 338 246 300 246 q 403 224 379 246 q 426 157 426 203 q 397 80 426 117 q 322 20 368 43 q 225 -3 276 -3 z "},"ĺ":{"ha":451,"x_min":57,"x_max":460,"o":"m 225 -3 q 147 19 175 -3 q 100 93 118 42 q 67 264 78 158 q 57 522 57 369 q 65 709 57 615 q 85 881 72 803 q 113 1003 97 958 q 156 1077 132 1056 q 213 1099 179 1099 q 267 1076 246 1099 q 301 1001 289 1054 q 317 890 311 956 q 322 750 322 824 q 313 551 322 656 q 287 347 303 447 q 249 163 271 246 l 181 169 q 257 226 214 206 q 338 246 300 246 q 403 224 379 246 q 426 157 426 203 q 397 80 426 117 q 322 20 368 43 q 225 -3 276 -3 m 107 1179 q 135 1230 107 1203 q 207 1290 163 1257 q 292 1347 253 1325 q 361 1368 331 1368 q 413 1351 392 1368 q 447 1310 435 1333 q 460 1267 460 1286 q 433 1221 460 1239 q 360 1188 407 1203 q 282 1165 322 1175 q 206 1149 242 1154 q 147 1143 171 1143 q 118 1154 129 1143 q 107 1179 107 1165 z "},"ľ":{"ha":451,"x_min":57,"x_max":619,"o":"m 225 -3 q 147 19 175 -3 q 100 93 118 42 q 67 264 78 158 q 57 522 57 369 q 65 709 57 615 q 85 881 72 803 q 113 1003 97 958 q 156 1077 132 1056 q 213 1099 179 1099 q 267 1076 246 1099 q 301 1001 289 1054 q 317 890 311 956 q 322 750 322 824 q 313 551 322 656 q 287 347 303 447 q 249 163 271 246 l 181 169 q 257 226 214 206 q 338 246 300 246 q 403 224 379 246 q 426 157 426 203 q 397 80 426 117 q 322 20 368 43 q 225 -3 276 -3 m 406 854 q 390 908 390 868 q 400 1004 390 947 q 419 1089 410 1050 q 450 1151 429 1128 q 497 1174 468 1172 q 553 1167 525 1176 q 599 1143 582 1157 q 618 1098 619 1125 q 592 1026 617 1071 q 554 963 576 996 q 511 903 532 931 q 475 858 490 876 q 441 842 461 843 q 406 854 421 842 z "},"ļ":{"ha":451,"x_min":57,"x_max":426,"o":"m 225 -3 q 147 19 175 -3 q 100 93 118 42 q 67 264 78 158 q 57 522 57 369 q 65 709 57 615 q 85 881 72 803 q 113 1003 97 958 q 156 1077 132 1056 q 213 1099 179 1099 q 267 1076 246 1099 q 301 1001 289 1054 q 317 890 311 956 q 322 750 322 824 q 313 551 322 656 q 287 347 303 447 q 249 163 271 246 l 181 169 q 257 226 214 206 q 338 246 300 246 q 403 224 379 246 q 426 157 426 203 q 397 80 426 117 q 322 20 368 43 q 225 -3 276 -3 m 239 -250 q 143 -225 171 -250 q 115 -154 115 -200 q 126 -103 115 -128 q 163 -63 138 -79 q 235 -47 189 -47 q 318 -76 286 -47 q 350 -165 350 -104 q 336 -239 350 -199 q 294 -311 322 -279 q 251 -351 272 -337 q 210 -365 229 -365 q 184 -358 194 -365 q 174 -336 174 -351 q 185 -301 174 -324 q 233 -239 196 -278 l 239 -250 z "},"ł":{"ha":483,"x_min":-25,"x_max":533,"o":"m 118 321 q 47 285 76 286 q -4 311 17 285 q -23 366 -25 335 q 17 442 -21 397 q 96 527 50 481 q 191 623 142 574 q 289 717 240 672 q 376 794 338 761 q 456 835 424 835 q 511 808 488 835 q 529 751 533 782 q 492 681 525 719 q 430 615 467 653 q 350 536 393 578 q 263 453 307 494 q 181 377 219 411 q 118 321 143 343 m 279 -3 q 201 19 229 -3 q 154 93 172 42 q 122 264 132 158 q 113 522 113 369 q 119 709 113 615 q 140 881 126 803 q 167 1003 153 958 q 210 1077 186 1056 q 267 1099 233 1099 q 323 1076 301 1099 q 356 1001 344 1054 q 371 890 365 956 q 376 750 376 824 q 367 551 376 656 q 341 347 357 447 q 303 163 325 246 l 235 169 q 312 226 269 206 q 392 246 354 246 q 458 224 435 246 q 481 157 481 203 q 451 80 481 117 q 376 20 422 43 q 279 -3 331 -3 z "},"m":{"ha":1146,"x_min":57,"x_max":1089,"o":"m 640 636 q 685 739 653 693 q 763 812 717 785 q 864 839 808 839 q 979 804 929 839 q 1059 690 1029 769 q 1089 479 1089 611 q 1083 344 1089 413 q 1069 218 1078 276 q 1051 121 1061 160 q 1002 29 1036 60 q 919 -1 968 -1 q 849 32 875 -1 q 824 126 824 65 q 831 196 824 153 q 846 289 838 239 q 861 390 854 339 q 868 483 868 442 q 851 576 868 543 q 799 608 833 608 q 732 552 758 608 q 699 389 706 496 q 689 228 694 299 q 668 113 683 158 q 631 49 654 71 q 567 28 607 28 q 494 58 521 28 q 465 156 468 89 q 465 265 464 201 q 466 392 465 329 q 464 496 467 454 q 443 604 460 569 q 394 639 426 639 q 331 591 354 639 q 301 458 308 543 q 299 367 299 421 q 301 259 300 313 q 300 169 301 206 q 269 40 299 79 q 190 1 240 1 q 103 39 131 1 q 68 158 76 76 q 60 280 63 219 q 57 400 57 340 q 61 531 57 461 q 71 665 65 601 q 105 797 81 744 q 186 850 129 850 q 257 810 236 850 q 278 689 278 771 q 274 638 278 661 l 269 665 q 347 806 293 756 q 468 857 401 857 q 606 794 557 857 q 660 619 656 731 l 640 636 z "},"n":{"ha":808,"x_min":57,"x_max":750,"o":"m 217 864 q 286 828 267 864 q 306 721 306 792 q 303 685 306 704 q 297 651 301 667 l 294 679 q 386 820 325 769 q 517 871 447 871 q 647 821 594 871 q 724 681 699 771 q 750 467 750 590 q 744 328 750 396 q 728 203 739 260 q 704 111 718 147 q 655 38 686 63 q 582 14 624 14 q 514 47 538 14 q 490 136 490 79 q 496 245 490 182 q 506 374 501 308 q 511 488 511 439 q 431 647 511 647 q 355 596 385 647 q 313 453 325 544 q 307 363 308 417 q 306 258 306 310 q 301 169 306 206 q 264 40 294 79 q 182 1 233 1 q 88 49 119 1 q 57 211 57 97 q 60 342 57 269 q 67 487 63 414 q 79 619 72 560 q 124 798 93 732 q 217 864 154 864 z "},"ń":{"ha":808,"x_min":57,"x_max":750,"o":"m 217 864 q 286 828 267 864 q 306 721 306 792 q 303 685 306 704 q 297 651 301 667 l 294 679 q 386 820 325 769 q 517 871 447 871 q 647 821 594 871 q 724 681 699 771 q 750 467 750 590 q 744 328 750 396 q 728 203 739 260 q 704 111 718 147 q 655 38 686 63 q 582 14 624 14 q 514 47 538 14 q 490 136 490 79 q 496 245 490 182 q 506 374 501 308 q 511 488 511 439 q 431 647 511 647 q 355 596 385 647 q 313 453 325 544 q 307 363 308 417 q 306 258 306 310 q 301 169 306 206 q 264 40 294 79 q 182 1 233 1 q 88 49 119 1 q 57 211 57 97 q 60 342 57 269 q 67 487 63 414 q 79 619 72 560 q 124 798 93 732 q 217 864 154 864 m 282 936 q 310 987 282 960 q 382 1047 338 1014 q 467 1103 428 1082 q 536 1125 506 1125 q 588 1108 567 1125 q 622 1067 610 1090 q 635 1024 635 1043 q 608 978 635 996 q 535 944 582 960 q 457 922 497 932 q 381 906 417 911 q 322 900 346 900 q 293 911 304 900 q 282 936 282 922 z "},"ň":{"ha":808,"x_min":57,"x_max":750,"o":"m 217 864 q 286 828 267 864 q 306 721 306 792 q 303 685 306 704 q 297 651 301 667 l 294 679 q 386 820 325 769 q 517 871 447 871 q 647 821 594 871 q 724 681 699 771 q 750 467 750 590 q 744 328 750 396 q 728 203 739 260 q 704 111 718 147 q 655 38 686 63 q 582 14 624 14 q 514 47 538 14 q 490 136 490 79 q 496 245 490 182 q 506 374 501 308 q 511 488 511 439 q 431 647 511 647 q 355 596 385 647 q 313 453 325 544 q 307 363 308 417 q 306 258 306 310 q 301 169 306 206 q 264 40 294 79 q 182 1 233 1 q 88 49 119 1 q 57 211 57 97 q 60 342 57 269 q 67 487 63 414 q 79 619 72 560 q 124 798 93 732 q 217 864 154 864 m 411 914 q 347 932 382 914 q 275 978 313 950 q 214 1036 236 1008 q 192 1094 192 1064 q 210 1138 192 1121 q 256 1154 228 1154 q 329 1115 290 1154 q 411 990 368 1076 l 388 999 q 457 1107 418 1067 q 535 1147 496 1147 q 594 1126 571 1147 q 618 1069 618 1106 q 597 1014 618 1039 q 539 964 576 989 q 468 928 504 942 q 411 914 432 914 z "},"ņ":{"ha":808,"x_min":57,"x_max":750,"o":"m 217 864 q 286 828 267 864 q 306 721 306 792 q 303 685 306 704 q 297 651 301 667 l 294 679 q 386 820 325 769 q 517 871 447 871 q 647 821 594 871 q 724 681 699 771 q 750 467 750 590 q 744 328 750 396 q 728 203 739 260 q 704 111 718 147 q 655 38 686 63 q 582 14 624 14 q 514 47 538 14 q 490 136 490 79 q 496 245 490 182 q 506 374 501 308 q 511 488 511 439 q 431 647 511 647 q 355 596 385 647 q 313 453 325 544 q 307 363 308 417 q 306 258 306 310 q 301 169 306 206 q 264 40 294 79 q 182 1 233 1 q 88 49 119 1 q 57 211 57 97 q 60 342 57 269 q 67 487 63 414 q 79 619 72 560 q 124 798 93 732 q 217 864 154 864 m 414 -250 q 318 -225 346 -250 q 290 -154 290 -200 q 301 -103 290 -128 q 338 -63 313 -79 q 410 -47 364 -47 q 493 -76 461 -47 q 525 -165 525 -104 q 511 -239 525 -199 q 469 -311 497 -279 q 426 -351 447 -337 q 385 -365 404 -365 q 359 -358 369 -365 q 349 -336 349 -351 q 360 -301 349 -324 q 408 -239 371 -278 l 414 -250 z "},"ñ":{"ha":808,"x_min":57,"x_max":750,"o":"m 217 864 q 286 828 267 864 q 306 721 306 792 q 303 685 306 704 q 297 651 301 667 l 294 679 q 386 820 325 769 q 517 871 447 871 q 647 821 594 871 q 724 681 699 771 q 750 467 750 590 q 744 328 750 396 q 728 203 739 260 q 704 111 718 147 q 655 38 686 63 q 582 14 624 14 q 514 47 538 14 q 490 136 490 79 q 496 245 490 182 q 506 374 501 308 q 511 488 511 439 q 431 647 511 647 q 355 596 385 647 q 313 453 325 544 q 307 363 308 417 q 306 258 306 310 q 301 169 306 206 q 264 40 294 79 q 182 1 233 1 q 88 49 119 1 q 57 211 57 97 q 60 342 57 269 q 67 487 63 414 q 79 619 72 560 q 124 798 93 732 q 217 864 154 864 m 325 1110 q 408 1090 371 1110 q 478 1033 444 1069 q 494 1025 488 1024 q 503 1036 501 1026 q 534 1108 515 1085 q 588 1131 553 1131 q 647 1067 647 1131 q 632 999 647 1038 q 584 931 617 960 q 497 901 551 901 q 416 928 451 901 q 346 1001 381 954 q 329 1013 338 1014 q 317 990 321 1011 q 287 915 307 938 q 231 892 267 892 q 183 913 201 892 q 164 961 164 933 q 185 1033 164 999 q 242 1088 206 1067 q 325 1110 278 1110 z "},"ŋ":{"ha":808,"x_min":57,"x_max":750,"o":"m 481 -292 q 387 -271 428 -292 q 324 -215 346 -250 q 301 -142 301 -181 q 322 -82 301 -104 q 376 -60 342 -60 q 447 -78 411 -60 q 522 -136 483 -97 q 501 -63 510 -101 q 491 26 493 -25 q 490 146 489 76 q 498 253 493 192 q 507 376 503 314 q 511 488 511 439 q 431 647 511 647 q 355 596 385 647 q 313 453 325 544 q 307 363 308 417 q 306 258 306 310 q 301 169 306 206 q 264 40 294 79 q 182 1 233 1 q 88 49 119 1 q 57 211 57 97 q 60 342 57 269 q 67 487 63 414 q 79 619 72 560 q 124 798 93 732 q 217 864 156 864 q 288 828 267 864 q 306 721 308 792 l 306 708 q 395 828 338 786 q 517 871 453 871 q 647 821 594 871 q 724 681 699 771 q 750 467 750 590 q 747 344 750 418 q 733 185 743 271 q 705 16 724 100 q 656 -137 686 -68 q 583 -249 626 -207 q 481 -292 540 -292 z "},"o":{"ha":788,"x_min":39,"x_max":749,"o":"m 379 -4 q 199 45 276 -4 q 81 186 122 94 q 39 404 39 278 q 81 635 39 536 q 202 789 124 733 q 383 844 281 844 q 576 791 494 844 q 703 642 658 738 q 749 418 749 546 q 703 193 749 288 q 574 47 657 99 q 379 -4 492 -4 m 399 217 q 492 276 457 217 q 526 435 526 336 q 492 594 526 535 q 399 653 457 653 q 303 594 339 653 q 268 435 268 535 q 303 276 268 336 q 399 217 338 217 z "},"ó":{"ha":788,"x_min":39,"x_max":749,"o":"m 379 -4 q 199 45 276 -4 q 81 186 122 94 q 39 404 39 278 q 81 635 39 536 q 202 789 124 733 q 383 844 281 844 q 576 791 494 844 q 703 642 658 738 q 749 418 749 546 q 703 193 749 288 q 574 47 657 99 q 379 -4 492 -4 m 399 217 q 492 276 457 217 q 526 435 526 336 q 492 594 526 535 q 399 653 457 653 q 303 594 339 653 q 268 435 268 535 q 303 276 268 336 q 399 217 338 217 m 271 913 q 299 963 271 936 q 371 1024 326 990 q 456 1080 417 1058 q 525 1101 494 1101 q 577 1084 556 1101 q 611 1043 599 1067 q 624 1000 624 1019 q 597 954 624 972 q 524 921 571 936 q 446 898 486 908 q 370 882 406 888 q 311 876 335 876 q 282 888 293 876 q 271 913 271 899 z "},"ô":{"ha":788,"x_min":39,"x_max":749,"o":"m 379 -4 q 199 45 276 -4 q 81 186 122 94 q 39 404 39 278 q 81 635 39 536 q 202 789 124 733 q 383 844 281 844 q 576 791 494 844 q 703 642 658 738 q 749 418 749 546 q 703 193 749 288 q 574 47 657 99 q 379 -4 492 -4 m 399 217 q 492 276 457 217 q 526 435 526 336 q 492 594 526 535 q 399 653 457 653 q 303 594 339 653 q 268 435 268 535 q 303 276 268 336 q 399 217 338 217 m 400 1117 q 457 1102 421 1117 q 528 1065 493 1088 q 586 1016 565 1040 q 607 961 607 992 q 583 904 607 925 q 524 883 560 883 q 446 923 485 883 q 376 1032 407 963 l 400 1040 q 318 915 357 954 q 244 876 279 876 q 199 893 217 876 q 181 936 181 910 q 203 994 181 967 q 264 1053 225 1022 q 336 1099 301 1082 q 400 1117 371 1117 z "},"ö":{"ha":788,"x_min":39,"x_max":749,"o":"m 379 -4 q 199 45 276 -4 q 81 186 122 94 q 39 404 39 278 q 81 635 39 536 q 202 789 124 733 q 383 844 281 844 q 576 791 494 844 q 703 642 658 738 q 749 418 749 546 q 703 193 749 288 q 574 47 657 99 q 379 -4 492 -4 m 399 217 q 492 276 457 217 q 526 435 526 336 q 492 594 526 535 q 399 653 457 653 q 303 594 339 653 q 268 435 268 535 q 303 276 268 336 q 399 217 338 217 m 244 883 q 165 913 190 883 q 140 981 140 942 q 174 1062 140 1033 q 267 1090 207 1090 q 345 1059 319 1090 q 371 985 371 1028 q 335 909 371 935 q 244 883 300 883 m 540 1104 q 622 1072 597 1104 q 647 999 647 1040 q 616 917 647 944 q 526 890 585 890 q 445 921 472 890 q 418 994 418 951 q 451 1076 418 1047 q 540 1104 485 1104 z "},"ò":{"ha":788,"x_min":39,"x_max":749,"o":"m 379 -4 q 199 45 276 -4 q 81 186 122 94 q 39 404 39 278 q 81 635 39 536 q 202 789 124 733 q 383 844 281 844 q 576 791 494 844 q 703 642 658 738 q 749 418 749 546 q 703 193 749 288 q 574 47 657 99 q 379 -4 492 -4 m 399 217 q 492 276 457 217 q 526 435 526 336 q 492 594 526 535 q 399 653 457 653 q 303 594 339 653 q 268 435 268 535 q 303 276 268 336 q 399 217 338 217 m 517 913 q 506 888 517 899 q 476 876 496 876 q 418 882 454 876 q 342 898 382 888 q 264 921 303 908 q 191 954 218 936 q 164 1000 164 972 q 176 1043 164 1019 q 212 1084 189 1067 q 263 1101 235 1101 q 332 1080 293 1101 q 417 1024 371 1058 q 490 963 463 990 q 517 913 517 936 z "},"ő":{"ha":788,"x_min":39,"x_max":749,"o":"m 379 -4 q 199 45 276 -4 q 81 186 122 94 q 39 404 39 278 q 81 635 39 536 q 202 789 124 733 q 383 844 281 844 q 576 791 494 844 q 703 642 658 738 q 749 418 749 546 q 703 193 749 288 q 574 47 657 99 q 379 -4 492 -4 m 399 217 q 492 276 457 217 q 526 435 526 336 q 492 594 526 535 q 399 653 457 653 q 303 594 339 653 q 268 435 268 535 q 303 276 268 336 q 399 217 338 217 m 499 875 q 472 885 483 875 q 461 911 461 894 q 474 960 461 931 q 507 1026 486 990 q 541 1083 524 1054 q 579 1132 558 1113 q 626 1151 600 1151 q 669 1140 646 1151 q 706 1110 692 1128 q 721 1074 721 1092 q 671 997 721 1044 q 621 953 649 975 q 567 913 593 931 q 524 883 540 894 q 510 877 517 879 q 499 875 504 875 m 236 875 q 212 884 224 875 q 200 910 200 893 q 213 960 200 931 q 246 1025 225 989 q 280 1082 263 1053 q 319 1131 297 1111 q 365 1150 340 1150 q 409 1138 388 1150 q 445 1109 431 1126 q 460 1074 460 1092 q 413 996 460 1043 q 358 951 388 974 q 303 911 329 929 q 261 883 278 893 q 249 877 256 879 q 236 875 242 875 z "},"ō":{"ha":788,"x_min":39,"x_max":749,"o":"m 379 -4 q 199 45 276 -4 q 81 186 122 94 q 39 404 39 278 q 81 635 39 536 q 202 789 124 733 q 383 844 281 844 q 576 791 494 844 q 703 642 658 738 q 749 418 749 546 q 703 193 749 288 q 574 47 657 99 q 379 -4 492 -4 m 399 217 q 492 276 457 217 q 526 435 526 336 q 492 594 526 535 q 399 653 457 653 q 303 594 339 653 q 268 435 268 535 q 303 276 268 336 q 399 217 338 217 m 249 885 q 168 906 194 885 q 142 963 142 928 q 165 1018 142 997 q 244 1051 189 1039 q 334 1065 285 1060 q 433 1073 383 1071 q 524 1075 482 1075 q 617 1053 589 1075 q 644 997 644 1032 q 620 938 644 960 q 547 907 596 917 q 453 896 508 901 q 343 888 397 890 q 249 885 289 885 z "},"ø":{"ha":788,"x_min":39,"x_max":749,"o":"m 379 -4 q 200 45 276 -4 q 81 186 124 94 q 39 404 39 278 q 82 635 39 536 q 203 789 125 733 q 383 844 281 844 q 576 791 494 844 q 703 642 658 738 q 749 418 749 546 q 703 193 749 288 q 575 47 658 99 q 379 -4 492 -4 m 399 203 q 502 266 464 203 q 540 435 540 329 q 502 603 540 540 q 399 667 464 667 q 293 603 332 667 q 254 435 254 540 q 293 266 254 329 q 399 203 332 203 m 139 58 q 199 191 163 113 q 280 358 236 269 q 369 538 324 447 q 456 707 415 628 q 531 844 497 786 q 585 907 560 893 q 635 910 611 921 q 665 869 660 900 q 646 781 671 839 q 556 585 607 692 q 450 372 504 479 q 345 169 396 264 q 257 11 294 75 q 197 -60 224 -47 q 147 -62 169 -72 q 119 -25 124 -53 q 139 58 115 3 z "},"õ":{"ha":788,"x_min":39,"x_max":749,"o":"m 379 -4 q 199 45 276 -4 q 81 186 122 94 q 39 404 39 278 q 81 635 39 536 q 202 789 124 733 q 383 844 281 844 q 576 791 494 844 q 703 642 658 738 q 749 418 749 546 q 703 193 749 288 q 574 47 657 99 q 379 -4 492 -4 m 399 217 q 492 276 457 217 q 526 435 526 336 q 492 594 526 535 q 399 653 457 653 q 303 594 339 653 q 268 435 268 535 q 303 276 268 336 q 399 217 338 217 m 314 1086 q 397 1066 360 1086 q 467 1010 433 1046 q 483 1001 476 1000 q 492 1013 490 1003 q 523 1084 504 1061 q 576 1107 542 1107 q 636 1043 636 1107 q 621 975 636 1014 q 573 907 606 936 q 486 878 540 878 q 405 904 440 878 q 335 978 369 931 q 318 989 326 990 q 306 967 310 988 q 276 891 296 914 q 219 868 256 868 q 172 889 190 868 q 153 938 153 910 q 174 1009 153 975 q 231 1065 194 1043 q 314 1086 267 1086 z "},"œ":{"ha":1250,"x_min":39,"x_max":1225,"o":"m 379 -4 q 199 45 276 -4 q 81 186 122 94 q 39 404 39 278 q 82 635 39 536 q 203 789 125 733 q 383 844 281 844 q 569 791 490 844 q 692 642 649 738 q 735 418 735 546 q 691 193 735 288 q 567 47 647 99 q 379 -4 488 -4 m 399 217 q 492 276 457 217 q 526 435 526 336 q 492 594 526 535 q 399 653 457 653 q 303 594 339 653 q 268 435 268 535 q 303 276 268 336 q 399 217 338 217 m 911 -11 q 690 35 774 -11 q 570 167 607 81 q 533 372 533 253 q 583 630 533 524 q 718 793 632 736 q 914 850 804 850 q 1114 783 1050 850 q 1178 606 1178 715 q 1139 454 1178 518 q 1032 356 1100 390 q 874 322 964 322 q 789 334 831 322 q 714 367 747 346 l 747 429 q 743 363 743 396 q 785 245 743 281 q 903 210 826 210 q 1008 225 968 210 q 1076 254 1047 240 q 1135 268 1106 268 q 1177 257 1157 268 q 1211 224 1197 246 q 1225 169 1225 203 q 1189 80 1225 121 q 1083 14 1153 39 q 911 -11 1014 -11 m 847 456 q 945 496 907 456 q 983 597 983 536 q 961 665 983 638 q 894 692 939 692 q 825 669 857 692 q 775 611 793 647 q 757 532 757 575 q 781 475 757 494 q 847 456 804 456 z "},"p":{"ha":783,"x_min":57,"x_max":743,"o":"m 169 861 q 240 816 211 861 q 279 675 268 771 l 250 653 q 332 801 272 750 q 474 853 392 853 q 613 808 551 853 q 708 674 674 764 q 743 450 743 585 q 672 128 743 232 q 478 25 600 25 q 347 67 394 25 q 282 168 300 108 l 299 176 q 317 17 310 96 q 325 -122 325 -62 q 299 -234 325 -189 q 215 -279 272 -279 q 132 -239 160 -279 q 92 -131 104 -199 q 75 22 83 -71 q 62 222 67 114 q 57 433 57 331 q 65 629 57 538 q 83 779 72 721 q 115 841 94 821 q 169 861 136 861 m 401 664 q 315 599 347 664 q 282 431 282 533 q 315 275 282 326 q 399 224 347 224 q 488 282 461 224 q 514 433 514 340 q 481 608 514 553 q 401 664 447 664 z "},"þ":{"ha":783,"x_min":57,"x_max":743,"o":"m 215 -279 q 132 -239 160 -279 q 92 -131 104 -199 q 75 22 83 -71 q 62 222 67 114 q 57 433 57 331 q 65 656 57 549 q 86 851 74 763 q 111 1000 99 940 q 149 1085 124 1058 q 211 1113 174 1113 q 270 1078 247 1113 q 293 969 293 1044 q 290 874 293 928 q 279 763 286 819 q 263 657 272 706 l 250 653 q 332 801 272 750 q 474 853 392 853 q 613 808 551 853 q 708 674 674 764 q 743 450 743 585 q 672 128 743 232 q 478 25 600 25 q 347 67 394 25 q 282 168 300 108 l 299 176 q 317 17 310 96 q 325 -122 325 -62 q 299 -234 325 -189 q 215 -279 272 -279 m 399 224 q 487 282 460 224 q 514 433 514 340 q 481 608 514 553 q 401 664 447 664 q 315 599 347 664 q 282 431 282 533 q 315 275 282 326 q 399 224 347 224 z "},"q":{"ha":808,"x_min":39,"x_max":751,"o":"m 600 -272 q 531 -238 554 -272 q 508 -150 508 -204 q 511 -47 508 -103 q 519 67 514 10 q 532 176 525 125 l 542 175 q 449 38 513 88 q 289 -12 386 -12 q 161 28 218 -12 q 72 156 104 69 q 39 378 39 242 q 74 649 39 546 q 167 799 108 751 q 299 846 226 846 q 419 806 368 846 q 504 681 471 767 l 493 675 q 515 818 493 769 q 589 867 538 867 q 671 830 640 867 q 717 724 701 793 q 735 601 728 678 q 747 429 743 524 q 751 235 751 335 q 747 35 751 129 q 731 -125 742 -60 q 686 -233 718 -194 q 600 -272 654 -272 m 389 178 q 453 205 424 178 q 501 285 482 232 q 519 413 519 339 q 484 583 519 521 q 389 646 449 646 q 303 588 332 646 q 274 396 274 531 q 305 230 274 282 q 389 178 336 178 z "},"r":{"ha":633,"x_min":57,"x_max":607,"o":"m 57 606 q 87 814 57 750 q 171 878 117 878 q 232 848 210 878 q 265 774 254 818 q 276 686 276 731 l 269 689 q 339 818 292 764 q 454 872 386 872 q 569 802 532 872 q 607 628 607 732 q 572 434 607 489 q 479 379 538 379 q 417 412 438 379 q 403 524 397 444 q 397 624 408 596 q 364 653 386 653 q 317 613 335 653 q 300 511 300 572 q 307 438 300 483 q 322 340 314 393 q 338 236 331 288 q 344 142 344 185 q 315 31 344 64 q 232 -3 285 -3 q 144 31 176 -3 q 99 139 113 64 q 79 280 89 197 q 63 449 69 363 q 57 606 57 536 z "},"ŕ":{"ha":633,"x_min":57,"x_max":607,"o":"m 57 606 q 87 814 57 750 q 171 878 117 878 q 232 848 210 878 q 265 774 254 818 q 276 686 276 731 l 269 689 q 339 818 292 764 q 454 872 386 872 q 569 802 532 872 q 607 628 607 732 q 572 434 607 489 q 479 379 538 379 q 417 412 438 379 q 403 524 397 444 q 397 624 408 596 q 364 653 386 653 q 317 613 335 653 q 300 511 300 572 q 307 438 300 483 q 322 340 314 393 q 338 236 331 288 q 344 142 344 185 q 315 31 344 64 q 232 -3 285 -3 q 144 31 176 -3 q 99 139 113 64 q 79 280 89 197 q 63 449 69 363 q 57 606 57 536 m 196 929 q 224 980 196 953 q 296 1040 251 1007 q 381 1097 342 1075 q 450 1118 419 1118 q 502 1101 481 1118 q 536 1060 524 1083 q 549 1017 549 1036 q 522 971 549 989 q 449 938 496 953 q 371 915 411 925 q 295 899 331 904 q 236 893 260 893 q 207 904 218 893 q 196 929 196 915 z "},"ř":{"ha":633,"x_min":57,"x_max":607,"o":"m 57 606 q 87 814 57 750 q 171 878 117 878 q 232 848 210 878 q 265 774 254 818 q 276 686 276 731 l 269 689 q 339 818 292 764 q 454 872 386 872 q 569 802 532 872 q 607 628 607 732 q 572 434 607 489 q 479 379 538 379 q 417 412 438 379 q 403 524 397 444 q 397 624 408 596 q 364 653 386 653 q 317 613 335 653 q 300 511 300 572 q 307 438 300 483 q 322 340 314 393 q 338 236 331 288 q 344 142 344 185 q 315 31 344 64 q 232 -3 285 -3 q 144 31 176 -3 q 99 139 113 64 q 79 280 89 197 q 63 449 69 363 q 57 606 57 536 m 325 907 q 261 925 296 907 q 189 971 226 943 q 128 1029 150 1001 q 106 1088 106 1057 q 124 1131 106 1114 q 169 1147 142 1147 q 243 1108 204 1147 q 325 983 282 1069 l 301 992 q 371 1100 332 1060 q 449 1140 410 1140 q 508 1119 485 1140 q 532 1063 532 1099 q 511 1007 532 1032 q 453 957 490 982 q 382 921 418 935 q 325 907 346 907 z "},"ŗ":{"ha":633,"x_min":57,"x_max":607,"o":"m 57 606 q 87 814 57 750 q 171 878 117 878 q 232 848 210 878 q 265 774 254 818 q 276 686 276 731 l 269 689 q 339 818 292 764 q 454 872 386 872 q 569 802 532 872 q 607 628 607 732 q 572 434 607 489 q 479 379 538 379 q 417 412 438 379 q 403 524 397 444 q 397 624 408 596 q 364 653 386 653 q 317 613 335 653 q 300 511 300 572 q 307 438 300 483 q 322 340 314 393 q 338 236 331 288 q 344 142 344 185 q 315 31 344 64 q 232 -3 285 -3 q 144 31 176 -3 q 99 139 113 64 q 79 280 89 197 q 63 449 69 363 q 57 606 57 536 m 328 -250 q 232 -225 260 -250 q 204 -154 204 -200 q 215 -103 204 -128 q 252 -63 226 -79 q 324 -47 278 -47 q 407 -76 375 -47 q 439 -165 439 -104 q 425 -239 439 -199 q 383 -311 411 -279 q 340 -351 361 -337 q 299 -365 318 -365 q 273 -358 283 -365 q 263 -336 263 -351 q 274 -301 263 -324 q 322 -239 285 -278 l 328 -250 z "},"s":{"ha":656,"x_min":39,"x_max":617,"o":"m 388 869 q 549 828 500 869 q 599 724 599 788 q 572 657 599 683 q 494 631 544 631 q 424 641 461 631 q 336 651 386 651 q 273 631 294 651 q 251 581 251 611 q 273 531 251 549 q 356 500 294 513 q 501 457 443 485 q 588 381 558 429 q 617 250 617 332 q 532 59 617 124 q 296 -6 447 -6 q 147 14 203 -6 q 65 68 90 33 q 39 147 39 103 q 68 216 39 192 q 138 240 97 240 q 191 233 163 240 q 251 219 219 226 q 317 213 283 213 q 401 274 401 213 q 392 310 401 294 q 360 336 383 325 q 289 356 336 347 q 160 394 215 371 q 76 465 106 418 q 46 586 46 511 q 135 792 46 714 q 388 869 224 869 z "},"ś":{"ha":656,"x_min":39,"x_max":617,"o":"m 388 869 q 549 828 500 869 q 599 724 599 788 q 572 657 599 683 q 494 631 544 631 q 424 641 461 631 q 336 651 386 651 q 273 631 294 651 q 251 581 251 611 q 273 531 251 549 q 356 500 294 513 q 501 457 443 485 q 588 381 558 429 q 617 250 617 332 q 532 59 617 124 q 296 -6 447 -6 q 147 14 203 -6 q 65 68 90 33 q 39 147 39 103 q 68 216 39 192 q 138 240 97 240 q 191 233 163 240 q 251 219 219 226 q 317 213 283 213 q 401 274 401 213 q 392 310 401 294 q 360 336 383 325 q 289 356 336 347 q 160 394 215 371 q 76 465 106 418 q 46 586 46 511 q 135 792 46 714 q 388 869 224 869 m 203 929 q 231 980 203 953 q 303 1040 258 1007 q 388 1097 349 1075 q 457 1118 426 1118 q 509 1101 488 1118 q 543 1060 531 1083 q 556 1017 556 1036 q 529 971 556 989 q 456 938 503 953 q 378 915 418 925 q 302 899 338 904 q 243 893 267 893 q 214 904 225 893 q 203 929 203 915 z "},"š":{"ha":656,"x_min":39,"x_max":617,"o":"m 388 869 q 549 828 500 869 q 599 724 599 788 q 572 657 599 683 q 494 631 544 631 q 424 641 461 631 q 336 651 386 651 q 273 631 294 651 q 251 581 251 611 q 273 531 251 549 q 356 500 294 513 q 501 457 443 485 q 588 381 558 429 q 617 250 617 332 q 532 59 617 124 q 296 -6 447 -6 q 147 14 203 -6 q 65 68 90 33 q 39 147 39 103 q 68 216 39 192 q 138 240 97 240 q 191 233 163 240 q 251 219 219 226 q 317 213 283 213 q 401 274 401 213 q 392 310 401 294 q 360 336 383 325 q 289 356 336 347 q 160 394 215 371 q 76 465 106 418 q 46 586 46 511 q 135 792 46 714 q 388 869 224 869 m 332 907 q 268 925 303 907 q 196 971 233 943 q 135 1029 157 1001 q 113 1088 113 1057 q 131 1131 113 1114 q 176 1147 149 1147 q 250 1108 211 1147 q 332 983 289 1069 l 308 992 q 378 1100 339 1060 q 456 1140 417 1140 q 515 1119 492 1140 q 539 1063 539 1099 q 518 1007 539 1032 q 460 957 497 982 q 389 921 425 935 q 332 907 353 907 z "},"ş":{"ha":656,"x_min":39,"x_max":617,"o":"m 388 869 q 549 828 500 869 q 599 724 599 788 q 572 657 599 683 q 494 631 544 631 q 424 641 461 631 q 336 651 386 651 q 273 631 294 651 q 251 581 251 611 q 273 531 251 549 q 356 500 294 513 q 501 457 443 485 q 588 381 558 429 q 617 250 617 332 q 532 59 617 124 q 296 -6 447 -6 q 147 14 203 -6 q 65 68 90 33 q 39 147 39 103 q 68 216 39 192 q 138 240 97 240 q 191 233 163 240 q 251 219 219 226 q 317 213 283 213 q 401 274 401 213 q 392 310 401 294 q 360 336 383 325 q 289 356 336 347 q 160 394 215 371 q 76 465 106 418 q 46 586 46 511 q 135 792 46 714 q 388 869 224 869 m 278 -289 q 194 -228 194 -289 q 215 -181 194 -196 q 261 -161 235 -167 q 308 -153 285 -157 q 344 -149 332 -150 q 365 -139 357 -144 q 372 -124 372 -133 q 363 -106 372 -112 q 326 -96 353 -99 q 252 -72 276 -86 q 228 -29 228 -57 q 247 6 228 -4 q 293 15 265 15 q 384 -2 339 15 q 459 -53 429 -19 q 489 -135 489 -86 q 461 -211 489 -176 q 386 -267 433 -246 q 278 -289 339 -289 z "},"ș":{"ha":656,"x_min":39,"x_max":617,"o":"m 388 869 q 549 828 500 869 q 599 724 599 788 q 572 657 599 683 q 494 631 544 631 q 424 641 461 631 q 336 651 386 651 q 273 631 294 651 q 251 581 251 611 q 273 531 251 549 q 356 500 294 513 q 501 457 443 485 q 588 381 558 429 q 617 250 617 332 q 532 59 617 124 q 296 -6 447 -6 q 147 14 203 -6 q 65 68 90 33 q 39 147 39 103 q 68 216 39 192 q 138 240 97 240 q 191 233 163 240 q 251 219 219 226 q 317 213 283 213 q 401 274 401 213 q 392 310 401 294 q 360 336 383 325 q 289 356 336 347 q 160 394 215 371 q 76 465 106 418 q 46 586 46 511 q 135 792 46 714 q 388 869 224 869 m 333 -250 q 238 -225 265 -250 q 210 -154 210 -200 q 221 -103 210 -128 q 258 -63 232 -79 q 329 -47 283 -47 q 413 -76 381 -47 q 444 -165 444 -104 q 431 -239 444 -199 q 389 -311 417 -279 q 345 -351 367 -337 q 304 -365 324 -365 q 278 -358 289 -365 q 268 -336 268 -351 q 279 -301 268 -324 q 328 -239 290 -278 l 333 -250 z "},"ß":{"ha":804,"x_min":57,"x_max":764,"o":"m 546 725 q 515 794 546 768 q 431 821 485 821 q 318 771 354 821 q 282 618 282 721 q 284 499 282 568 q 289 354 286 429 q 294 209 292 279 q 299 85 297 139 q 301 7 301 32 q 272 -97 301 -54 q 183 -140 243 -140 q 92 -98 126 -140 q 57 25 57 -56 q 59 147 57 76 q 65 298 61 218 q 73 456 68 378 q 83 597 78 533 q 198 901 100 803 q 458 1000 296 1000 q 606 971 542 1000 q 707 885 671 942 q 743 746 743 829 q 697 608 743 668 q 564 507 650 547 q 714 408 664 468 q 764 256 764 349 q 730 120 764 179 q 634 28 696 61 q 490 -6 572 -6 q 386 26 419 -6 q 353 106 353 58 q 382 179 353 157 q 461 213 411 201 q 525 242 506 221 q 544 296 544 264 q 526 345 544 325 q 468 385 508 365 q 414 422 431 401 q 397 481 397 442 q 413 536 397 513 q 450 579 428 560 q 494 619 472 599 q 531 666 517 640 q 546 725 546 692 z "},"t":{"ha":657,"x_min":19,"x_max":638,"o":"m 260 836 l 235 836 q 238 952 229 897 q 273 1041 246 1007 q 350 1075 300 1075 q 421 1047 399 1075 q 443 969 443 1019 q 410 831 443 889 l 388 833 q 513 860 443 860 q 603 833 569 860 q 638 746 638 807 q 597 657 638 688 q 497 626 557 626 q 438 630 469 626 q 376 642 407 633 l 393 665 q 422 553 408 615 q 447 423 436 490 q 465 292 458 356 q 471 178 471 228 q 438 38 471 89 q 340 -14 406 -14 q 266 10 294 -14 q 223 72 238 33 q 203 157 208 111 q 197 246 197 203 q 203 372 197 301 q 222 516 210 442 q 251 660 235 590 l 276 643 q 147 607 225 607 q 53 635 86 607 q 19 722 19 663 q 56 819 19 785 q 157 853 93 853 q 213 848 186 853 q 260 836 240 843 z "},"ť":{"ha":657,"x_min":19,"x_max":772,"o":"m 260 836 l 235 836 q 238 952 229 897 q 273 1041 246 1007 q 350 1075 300 1075 q 421 1047 399 1075 q 443 969 443 1019 q 410 831 443 889 l 388 833 q 513 860 443 860 q 603 833 569 860 q 638 746 638 807 q 597 657 638 688 q 497 626 557 626 q 438 630 469 626 q 376 642 407 633 l 393 665 q 422 553 408 615 q 447 423 436 490 q 465 292 458 356 q 471 178 471 228 q 438 38 471 89 q 340 -14 406 -14 q 266 10 294 -14 q 223 72 238 33 q 203 157 208 111 q 197 246 197 203 q 203 372 197 301 q 222 516 210 442 q 251 660 235 590 l 276 643 q 147 607 225 607 q 53 635 86 607 q 19 722 19 663 q 56 819 19 785 q 157 853 93 853 q 213 848 186 853 q 260 836 240 843 m 558 932 q 543 985 543 946 q 553 1082 543 1025 q 572 1167 563 1128 q 603 1229 582 1206 q 649 1252 621 1250 q 706 1244 678 1254 q 751 1221 735 1235 q 771 1176 772 1203 q 744 1104 769 1149 q 707 1041 729 1074 q 664 981 685 1008 q 628 936 643 954 q 594 920 614 921 q 558 932 574 919 z "},"ț":{"ha":657,"x_min":19,"x_max":638,"o":"m 260 836 l 235 836 q 238 952 229 897 q 273 1041 246 1007 q 350 1075 300 1075 q 421 1047 399 1075 q 443 969 443 1019 q 410 831 443 889 l 388 833 q 513 860 443 860 q 603 833 569 860 q 638 746 638 807 q 597 657 638 688 q 497 626 557 626 q 438 630 469 626 q 376 642 407 633 l 393 665 q 422 553 408 615 q 447 423 436 490 q 465 292 458 356 q 471 178 471 228 q 438 38 471 89 q 340 -14 406 -14 q 266 10 294 -14 q 223 72 238 33 q 203 157 208 111 q 197 246 197 203 q 203 372 197 301 q 222 516 210 442 q 251 660 235 590 l 276 643 q 147 607 225 607 q 53 635 86 607 q 19 722 19 663 q 56 819 19 785 q 157 853 93 853 q 213 848 186 853 q 260 836 240 843 m 338 -250 q 242 -225 269 -250 q 214 -154 214 -200 q 225 -103 214 -128 q 262 -63 236 -79 q 333 -47 288 -47 q 417 -76 385 -47 q 449 -165 449 -104 q 435 -239 449 -199 q 393 -311 421 -279 q 349 -351 371 -337 q 308 -365 328 -365 q 283 -358 293 -365 q 272 -336 272 -351 q 283 -301 272 -324 q 332 -239 294 -278 l 338 -250 z "},"u":{"ha":813,"x_min":57,"x_max":754,"o":"m 643 8 q 577 34 600 8 q 546 101 554 60 q 538 188 538 142 l 544 193 q 497 90 532 133 q 415 24 461 47 q 321 1 368 1 q 206 35 256 1 q 125 140 156 69 q 75 324 93 213 q 57 553 57 435 q 63 663 57 613 q 79 747 68 714 q 119 810 92 790 q 189 831 147 831 q 263 795 236 831 q 297 696 290 760 q 304 590 301 651 q 309 467 307 528 q 315 364 311 406 q 344 260 322 293 q 401 226 367 226 q 474 276 449 226 q 499 413 499 325 q 494 514 499 457 q 485 625 490 571 q 481 714 481 679 q 507 824 481 790 q 581 857 533 857 q 647 836 619 857 q 690 781 675 815 q 724 668 710 739 q 746 508 738 597 q 754 318 754 418 q 730 85 754 163 q 643 8 706 8 z "},"ú":{"ha":813,"x_min":57,"x_max":754,"o":"m 643 8 q 577 34 600 8 q 546 101 554 60 q 538 188 538 142 l 544 193 q 497 90 532 133 q 415 24 461 47 q 321 1 368 1 q 206 35 256 1 q 125 140 156 69 q 75 324 93 213 q 57 553 57 435 q 63 663 57 613 q 79 747 68 714 q 119 810 92 790 q 189 831 147 831 q 263 795 236 831 q 297 696 290 760 q 304 590 301 651 q 309 467 307 528 q 315 364 311 406 q 344 260 322 293 q 401 226 367 226 q 474 276 449 226 q 499 413 499 325 q 494 514 499 457 q 485 625 490 571 q 481 714 481 679 q 507 824 481 790 q 581 857 533 857 q 647 836 619 857 q 690 781 675 815 q 724 668 710 739 q 746 508 738 597 q 754 318 754 418 q 730 85 754 163 q 643 8 706 8 m 272 914 q 300 965 272 938 q 372 1025 328 992 q 457 1081 418 1060 q 526 1103 496 1103 q 578 1085 557 1103 q 613 1044 600 1068 q 625 1001 625 1021 q 599 956 625 974 q 525 922 572 938 q 447 899 488 910 q 372 883 407 889 q 313 878 336 878 q 283 889 294 878 q 272 914 272 900 z "},"ŭ":{"ha":813,"x_min":57,"x_max":754,"o":"m 643 8 q 577 34 600 8 q 546 101 554 60 q 538 188 538 142 l 544 193 q 497 90 532 133 q 415 24 461 47 q 321 1 368 1 q 206 35 256 1 q 125 140 156 69 q 75 324 93 213 q 57 553 57 435 q 63 663 57 613 q 79 747 68 714 q 119 810 92 790 q 189 831 147 831 q 263 795 236 831 q 297 696 290 760 q 304 590 301 651 q 309 467 307 528 q 315 364 311 406 q 344 260 322 293 q 401 226 367 226 q 474 276 449 226 q 499 413 499 325 q 494 514 499 457 q 485 625 490 571 q 481 714 481 679 q 507 824 481 790 q 581 857 533 857 q 647 836 619 857 q 690 781 675 815 q 724 668 710 739 q 746 508 738 597 q 754 318 754 418 q 730 85 754 163 q 643 8 706 8 m 394 879 q 251 928 303 879 q 200 1042 200 976 q 261 1108 200 1108 q 332 1043 318 1108 q 351 999 339 1014 q 393 985 364 985 q 431 997 418 985 q 450 1038 443 1010 q 476 1100 460 1078 q 528 1122 493 1122 q 574 1103 558 1122 q 589 1049 589 1083 q 567 965 589 1004 q 501 903 544 926 q 394 879 457 879 z "},"û":{"ha":813,"x_min":57,"x_max":754,"o":"m 643 8 q 577 34 600 8 q 546 101 554 60 q 538 188 538 142 l 544 193 q 497 90 532 133 q 415 24 461 47 q 321 1 368 1 q 206 35 256 1 q 125 140 156 69 q 75 324 93 213 q 57 553 57 435 q 63 663 57 613 q 79 747 68 714 q 119 810 92 790 q 189 831 147 831 q 263 795 236 831 q 297 696 290 760 q 304 590 301 651 q 309 467 307 528 q 315 364 311 406 q 344 260 322 293 q 401 226 367 226 q 474 276 449 226 q 499 413 499 325 q 494 514 499 457 q 485 625 490 571 q 481 714 481 679 q 507 824 481 790 q 581 857 533 857 q 647 836 619 857 q 690 781 675 815 q 724 668 710 739 q 746 508 738 597 q 754 318 754 418 q 730 85 754 163 q 643 8 706 8 m 401 1118 q 458 1103 422 1118 q 529 1067 494 1089 q 588 1017 567 1042 q 608 963 608 993 q 585 906 608 926 q 525 885 561 885 q 447 924 486 885 q 378 1033 408 964 l 401 1042 q 319 917 358 956 q 246 878 281 878 q 200 894 218 878 q 182 938 182 911 q 204 996 182 968 q 265 1054 226 1024 q 338 1101 303 1083 q 401 1118 372 1118 z "},"ü":{"ha":813,"x_min":57,"x_max":754,"o":"m 643 8 q 577 34 600 8 q 546 101 554 60 q 538 188 538 142 l 544 193 q 497 90 532 133 q 415 24 461 47 q 321 1 368 1 q 206 35 256 1 q 125 140 156 69 q 75 324 93 213 q 57 553 57 435 q 63 663 57 613 q 79 747 68 714 q 119 810 92 790 q 189 831 147 831 q 263 795 236 831 q 297 696 290 760 q 304 590 301 651 q 309 467 307 528 q 315 364 311 406 q 344 260 322 293 q 401 226 367 226 q 474 276 449 226 q 499 413 499 325 q 494 514 499 457 q 485 625 490 571 q 481 714 481 679 q 507 824 481 790 q 581 857 533 857 q 647 836 619 857 q 690 781 675 815 q 724 668 710 739 q 746 508 738 597 q 754 318 754 418 q 730 85 754 163 q 643 8 706 8 m 246 885 q 167 914 192 885 q 142 982 142 943 q 175 1063 142 1035 q 268 1092 208 1092 q 347 1060 321 1092 q 372 986 372 1029 q 337 910 372 936 q 246 885 301 885 m 542 1106 q 624 1074 599 1106 q 649 1000 649 1042 q 617 919 649 946 q 528 892 586 892 q 447 922 474 892 q 419 996 419 953 q 453 1077 419 1049 q 542 1106 486 1106 z "},"ù":{"ha":813,"x_min":57,"x_max":754,"o":"m 643 8 q 577 34 600 8 q 546 101 554 60 q 538 188 538 142 l 544 193 q 497 90 532 133 q 415 24 461 47 q 321 1 368 1 q 206 35 256 1 q 125 140 156 69 q 75 324 93 213 q 57 553 57 435 q 63 663 57 613 q 79 747 68 714 q 119 810 92 790 q 189 831 147 831 q 263 795 236 831 q 297 696 290 760 q 304 590 301 651 q 309 467 307 528 q 315 364 311 406 q 344 260 322 293 q 401 226 367 226 q 474 276 449 226 q 499 413 499 325 q 494 514 499 457 q 485 625 490 571 q 481 714 481 679 q 507 824 481 790 q 581 857 533 857 q 647 836 619 857 q 690 781 675 815 q 724 668 710 739 q 746 508 738 597 q 754 318 754 418 q 730 85 754 163 q 643 8 706 8 m 518 914 q 508 889 518 900 q 478 878 497 878 q 419 883 456 878 q 344 899 383 889 q 265 922 304 910 q 192 956 219 938 q 165 1001 165 974 q 178 1044 165 1021 q 213 1085 190 1068 q 264 1103 236 1103 q 333 1081 294 1103 q 418 1025 372 1060 q 491 965 464 992 q 518 914 518 938 z "},"ű":{"ha":813,"x_min":57,"x_max":754,"o":"m 643 8 q 577 34 600 8 q 546 101 554 60 q 538 188 538 142 l 544 193 q 497 90 532 133 q 415 24 461 47 q 321 1 368 1 q 206 35 256 1 q 125 140 156 69 q 75 324 93 213 q 57 553 57 435 q 63 663 57 613 q 79 747 68 714 q 119 810 92 790 q 189 831 147 831 q 263 795 236 831 q 297 696 290 760 q 304 590 301 651 q 309 467 307 528 q 315 364 311 406 q 344 260 322 293 q 401 226 367 226 q 474 276 449 226 q 499 413 499 325 q 494 514 499 457 q 485 625 490 571 q 481 714 481 679 q 507 824 481 790 q 581 857 533 857 q 647 836 619 857 q 690 781 675 815 q 724 668 710 739 q 746 508 738 597 q 754 318 754 418 q 730 85 754 163 q 643 8 706 8 m 500 876 q 474 886 485 876 q 463 913 463 896 q 475 962 463 932 q 508 1028 488 992 q 542 1085 525 1056 q 581 1133 560 1114 q 628 1153 601 1153 q 670 1141 647 1153 q 708 1111 693 1129 q 722 1075 722 1093 q 672 999 722 1046 q 622 954 650 976 q 568 914 594 932 q 525 885 542 896 q 512 878 518 881 q 500 876 506 876 m 238 876 q 213 885 225 876 q 201 911 201 894 q 214 961 201 932 q 247 1026 226 990 q 281 1083 264 1054 q 320 1132 299 1113 q 367 1151 342 1151 q 410 1140 389 1151 q 447 1110 432 1128 q 461 1075 461 1093 q 414 997 461 1044 q 360 953 389 975 q 305 913 331 931 q 263 885 279 894 q 250 878 257 881 q 238 876 243 876 z "},"ū":{"ha":813,"x_min":57,"x_max":754,"o":"m 643 8 q 577 34 600 8 q 546 101 554 60 q 538 188 538 142 l 544 193 q 497 90 532 133 q 415 24 461 47 q 321 1 368 1 q 206 35 256 1 q 125 140 156 69 q 75 324 93 213 q 57 553 57 435 q 63 663 57 613 q 79 747 68 714 q 119 810 92 790 q 189 831 147 831 q 263 795 236 831 q 297 696 290 760 q 304 590 301 651 q 309 467 307 528 q 315 364 311 406 q 344 260 322 293 q 401 226 367 226 q 474 276 449 226 q 499 413 499 325 q 494 514 499 457 q 485 625 490 571 q 481 714 481 679 q 507 824 481 790 q 581 857 533 857 q 647 836 619 857 q 690 781 675 815 q 724 668 710 739 q 746 508 738 597 q 754 318 754 418 q 730 85 754 163 q 643 8 706 8 m 250 886 q 169 908 196 886 q 143 964 143 929 q 167 1019 143 999 q 246 1053 190 1040 q 335 1067 286 1061 q 434 1074 385 1072 q 525 1076 483 1076 q 618 1055 590 1076 q 646 999 646 1033 q 622 940 646 961 q 549 908 597 918 q 454 897 510 903 q 344 889 399 892 q 250 886 290 886 z "},"ų":{"ha":813,"x_min":57,"x_max":754,"o":"m 643 8 q 577 34 600 8 q 546 101 554 60 q 538 188 538 142 l 544 193 q 497 90 532 133 q 415 24 461 47 q 321 1 368 1 q 206 35 256 1 q 125 140 156 69 q 75 324 93 213 q 57 553 57 435 q 63 663 57 613 q 79 747 68 714 q 119 810 92 790 q 189 831 147 831 q 263 795 236 831 q 297 696 290 760 q 304 590 301 651 q 309 467 307 528 q 315 364 311 406 q 344 260 322 293 q 401 226 367 226 q 474 276 449 226 q 499 413 499 325 q 494 514 499 457 q 485 625 490 571 q 481 714 481 679 q 507 824 481 790 q 581 857 533 857 q 647 836 619 857 q 690 781 675 815 q 724 668 710 739 q 746 508 738 597 q 754 318 754 418 q 730 85 754 163 q 643 8 706 8 m 599 -293 q 482 -261 528 -293 q 436 -167 436 -229 q 473 -61 436 -112 q 594 39 510 -10 l 706 42 q 613 -51 647 -3 q 578 -126 578 -100 q 588 -147 578 -142 q 614 -153 597 -153 q 638 -151 625 -153 q 665 -150 650 -150 q 710 -166 696 -150 q 725 -210 725 -182 q 692 -272 725 -251 q 599 -293 660 -293 z "},"ů":{"ha":813,"x_min":57,"x_max":754,"o":"m 643 8 q 577 34 600 8 q 546 101 554 60 q 538 188 538 142 l 544 193 q 497 90 532 133 q 415 24 461 47 q 321 1 368 1 q 206 35 256 1 q 125 140 156 69 q 75 324 93 213 q 57 553 57 435 q 63 663 57 613 q 79 747 68 714 q 119 810 92 790 q 189 831 147 831 q 263 795 236 831 q 297 696 290 760 q 304 590 301 651 q 309 467 307 528 q 315 364 311 406 q 344 260 322 293 q 401 226 367 226 q 474 276 449 226 q 499 413 499 325 q 494 514 499 457 q 485 625 490 571 q 481 714 481 679 q 507 824 481 790 q 581 857 533 857 q 647 836 619 857 q 690 781 675 815 q 724 668 710 739 q 746 508 738 597 q 754 318 754 418 q 730 85 754 163 q 643 8 706 8 m 392 875 q 269 905 318 875 q 219 997 219 935 q 268 1102 219 1061 q 408 1143 317 1143 q 530 1105 492 1143 q 568 1014 568 1067 q 521 914 568 953 q 392 875 474 875 m 383 954 q 449 967 422 954 q 475 1008 475 981 q 456 1052 475 1036 q 394 1068 436 1068 q 333 1049 353 1068 q 313 1007 313 1029 q 332 969 313 983 q 383 954 351 954 z "},"v":{"ha":743,"x_min":26,"x_max":717,"o":"m 138 874 q 227 832 197 874 q 275 704 257 790 q 309 553 290 642 q 349 369 328 465 q 392 183 369 272 l 397 183 q 434 359 417 268 q 464 534 451 450 q 482 679 476 618 q 516 810 492 771 q 592 850 540 850 q 683 807 650 850 q 717 674 717 764 q 706 529 717 606 q 674 378 694 453 q 628 243 654 304 q 558 108 594 165 q 475 21 521 51 q 369 -10 429 -10 q 251 37 301 -10 q 150 186 201 83 q 83 358 111 267 q 41 538 56 449 q 26 699 26 626 q 52 830 26 786 q 138 874 78 874 z "},"w":{"ha":971,"x_min":26,"x_max":944,"o":"m 26 564 q 65 772 26 708 q 167 836 103 836 q 226 810 206 836 q 256 742 247 785 q 264 646 264 699 q 264 528 264 596 q 265 391 264 461 q 265 260 265 321 l 271 260 q 336 535 304 431 q 403 687 368 639 q 476 735 439 735 q 551 687 517 735 q 620 538 586 639 q 690 274 654 436 l 696 274 q 696 488 696 375 q 696 693 696 600 q 727 826 696 783 q 814 868 758 868 q 913 806 882 868 q 944 640 944 744 q 936 477 944 564 q 913 310 928 390 q 879 169 899 229 q 813 35 850 81 q 717 -11 775 -11 q 628 39 671 -11 q 549 197 585 89 q 486 475 514 304 l 481 475 q 413 210 453 313 q 328 59 374 107 q 233 11 282 11 q 132 63 174 11 q 65 221 90 114 q 44 337 53 275 q 31 458 36 399 q 26 564 26 518 z "},"ẃ":{"ha":971,"x_min":26,"x_max":944,"o":"m 26 564 q 65 772 26 708 q 167 836 103 836 q 226 810 206 836 q 256 742 247 785 q 264 646 264 699 q 264 528 264 596 q 265 391 264 461 q 265 260 265 321 l 271 260 q 336 535 304 431 q 403 687 368 639 q 476 735 439 735 q 551 687 517 735 q 620 538 586 639 q 690 274 654 436 l 696 274 q 696 488 696 375 q 696 693 696 600 q 727 826 696 783 q 814 868 758 868 q 913 806 882 868 q 944 640 944 744 q 936 477 944 564 q 913 310 928 390 q 879 169 899 229 q 813 35 850 81 q 717 -11 775 -11 q 628 39 671 -11 q 549 197 585 89 q 486 475 514 304 l 481 475 q 413 210 453 313 q 328 59 374 107 q 233 11 282 11 q 132 63 174 11 q 65 221 90 114 q 44 337 53 275 q 31 458 36 399 q 26 564 26 518 m 363 929 q 390 980 363 953 q 463 1040 418 1007 q 547 1097 508 1075 q 617 1118 586 1118 q 669 1101 647 1118 q 703 1060 690 1083 q 715 1017 715 1036 q 689 971 715 989 q 615 938 663 953 q 538 915 578 925 q 462 899 497 904 q 403 893 426 893 q 374 904 385 893 q 363 929 363 915 z "},"ŵ":{"ha":971,"x_min":26,"x_max":944,"o":"m 26 564 q 65 772 26 708 q 167 836 103 836 q 226 810 206 836 q 256 742 247 785 q 264 646 264 699 q 264 528 264 596 q 265 391 264 461 q 265 260 265 321 l 271 260 q 336 535 304 431 q 403 687 368 639 q 476 735 439 735 q 551 687 517 735 q 620 538 586 639 q 690 274 654 436 l 696 274 q 696 488 696 375 q 696 693 696 600 q 727 826 696 783 q 814 868 758 868 q 913 806 882 868 q 944 640 944 744 q 936 477 944 564 q 913 310 928 390 q 879 169 899 229 q 813 35 850 81 q 717 -11 775 -11 q 628 39 671 -11 q 549 197 585 89 q 486 475 514 304 l 481 475 q 413 210 453 313 q 328 59 374 107 q 233 11 282 11 q 132 63 174 11 q 65 221 90 114 q 44 337 53 275 q 31 458 36 399 q 26 564 26 518 m 492 1133 q 549 1119 513 1133 q 619 1082 585 1104 q 678 1033 657 1057 q 699 978 699 1008 q 675 921 699 942 q 615 900 651 900 q 538 940 576 900 q 468 1049 499 979 l 492 1057 q 410 932 449 971 q 336 893 371 893 q 290 910 308 893 q 272 953 272 926 q 294 1011 272 983 q 356 1069 317 1039 q 428 1116 393 1099 q 492 1133 463 1133 z "},"ẅ":{"ha":971,"x_min":26,"x_max":944,"o":"m 26 564 q 65 772 26 708 q 167 836 103 836 q 226 810 206 836 q 256 742 247 785 q 264 646 264 699 q 264 528 264 596 q 265 391 264 461 q 265 260 265 321 l 271 260 q 336 535 304 431 q 403 687 368 639 q 476 735 439 735 q 551 687 517 735 q 620 538 586 639 q 690 274 654 436 l 696 274 q 696 488 696 375 q 696 693 696 600 q 727 826 696 783 q 814 868 758 868 q 913 806 882 868 q 944 640 944 744 q 936 477 944 564 q 913 310 928 390 q 879 169 899 229 q 813 35 850 81 q 717 -11 775 -11 q 628 39 671 -11 q 549 197 585 89 q 486 475 514 304 l 481 475 q 413 210 453 313 q 328 59 374 107 q 233 11 282 11 q 132 63 174 11 q 65 221 90 114 q 44 337 53 275 q 31 458 36 399 q 26 564 26 518 m 336 900 q 257 929 282 900 q 232 997 232 958 q 265 1078 232 1050 q 358 1107 299 1107 q 437 1076 411 1107 q 463 1001 463 1044 q 427 926 463 951 q 336 900 392 900 m 632 1121 q 714 1089 689 1121 q 739 1015 739 1057 q 708 934 739 961 q 618 907 676 907 q 537 938 564 907 q 510 1011 510 968 q 543 1092 510 1064 q 632 1121 576 1121 z "},"ẁ":{"ha":971,"x_min":26,"x_max":944,"o":"m 26 564 q 65 772 26 708 q 167 836 103 836 q 226 810 206 836 q 256 742 247 785 q 264 646 264 699 q 264 528 264 596 q 265 391 264 461 q 265 260 265 321 l 271 260 q 336 535 304 431 q 403 687 368 639 q 476 735 439 735 q 551 687 517 735 q 620 538 586 639 q 690 274 654 436 l 696 274 q 696 488 696 375 q 696 693 696 600 q 727 826 696 783 q 814 868 758 868 q 913 806 882 868 q 944 640 944 744 q 936 477 944 564 q 913 310 928 390 q 879 169 899 229 q 813 35 850 81 q 717 -11 775 -11 q 628 39 671 -11 q 549 197 585 89 q 486 475 514 304 l 481 475 q 413 210 453 313 q 328 59 374 107 q 233 11 282 11 q 132 63 174 11 q 65 221 90 114 q 44 337 53 275 q 31 458 36 399 q 26 564 26 518 m 608 929 q 598 904 608 915 q 568 893 588 893 q 510 899 546 893 q 434 915 474 904 q 356 938 394 925 q 283 971 310 953 q 256 1017 256 989 q 268 1060 256 1036 q 303 1101 281 1083 q 354 1118 326 1118 q 424 1097 385 1118 q 508 1040 463 1075 q 581 980 554 1007 q 608 929 608 953 z "},"x":{"ha":758,"x_min":21,"x_max":739,"o":"m 140 -12 q 55 24 89 -12 q 21 113 21 60 q 52 217 21 164 q 143 319 83 269 q 286 413 203 369 l 286 418 q 85 574 149 492 q 21 736 21 657 q 39 801 21 774 q 87 843 57 828 q 150 858 117 858 q 244 821 200 858 q 325 710 288 783 q 390 529 363 638 l 396 529 q 502 791 442 711 q 631 871 563 871 q 711 838 683 871 q 739 756 739 806 q 678 594 739 678 q 497 435 618 511 l 497 429 q 661 279 608 358 q 714 129 714 200 q 682 44 714 76 q 608 13 650 13 q 521 49 560 13 q 451 157 482 86 q 397 331 421 228 l 392 331 q 318 134 360 210 q 231 23 276 58 q 140 -12 186 -12 z "},"y":{"ha":756,"x_min":26,"x_max":729,"o":"m 192 -276 q 104 -183 104 -276 q 133 -74 104 -136 q 213 57 161 -11 q 335 190 264 125 l 333 174 q 104 478 182 342 q 26 724 26 614 q 56 812 26 781 q 133 843 85 843 q 290 717 218 843 q 415 342 363 592 l 421 342 q 511 734 457 610 q 640 858 565 858 q 707 827 685 858 q 729 739 729 796 q 715 631 729 696 q 676 485 701 565 q 617 319 651 404 q 540 150 583 233 q 346 -173 429 -69 q 192 -276 263 -276 z "},"ý":{"ha":756,"x_min":26,"x_max":729,"o":"m 192 -276 q 104 -183 104 -276 q 133 -74 104 -136 q 213 57 161 -11 q 335 190 264 125 l 333 174 q 104 478 182 342 q 26 724 26 614 q 56 812 26 781 q 133 843 85 843 q 290 717 218 843 q 415 342 363 592 l 421 342 q 511 734 457 610 q 640 858 565 858 q 707 827 685 858 q 729 739 729 796 q 715 631 729 696 q 676 485 701 565 q 617 319 651 404 q 540 150 583 233 q 346 -173 429 -69 q 192 -276 263 -276 m 250 918 q 278 969 250 942 q 350 1029 306 996 q 435 1085 396 1064 q 504 1107 474 1107 q 556 1090 535 1107 q 590 1049 578 1072 q 603 1006 603 1025 q 576 960 603 978 q 503 926 550 942 q 425 903 465 914 q 349 888 385 893 q 290 882 314 882 q 261 893 272 882 q 250 918 250 904 z "},"ŷ":{"ha":756,"x_min":26,"x_max":729,"o":"m 192 -276 q 104 -183 104 -276 q 133 -74 104 -136 q 213 57 161 -11 q 335 190 264 125 l 333 174 q 104 478 182 342 q 26 724 26 614 q 56 812 26 781 q 133 843 85 843 q 290 717 218 843 q 415 342 363 592 l 421 342 q 511 734 457 610 q 640 858 565 858 q 707 827 685 858 q 729 739 729 796 q 715 631 729 696 q 676 485 701 565 q 617 319 651 404 q 540 150 583 233 q 346 -173 429 -69 q 192 -276 263 -276 m 379 1122 q 436 1108 400 1122 q 507 1071 472 1093 q 565 1022 544 1046 q 586 967 586 997 q 563 910 586 931 q 503 889 539 889 q 425 928 464 889 q 356 1038 386 968 l 379 1046 q 297 921 336 960 q 224 882 258 882 q 178 899 196 882 q 160 942 160 915 q 182 1000 160 972 q 243 1058 204 1028 q 315 1105 281 1088 q 379 1122 350 1122 z "},"ÿ":{"ha":756,"x_min":26,"x_max":729,"o":"m 192 -276 q 104 -183 104 -276 q 133 -74 104 -136 q 213 57 161 -11 q 335 190 264 125 l 333 174 q 104 478 182 342 q 26 724 26 614 q 56 812 26 781 q 133 843 85 843 q 290 717 218 843 q 415 342 363 592 l 421 342 q 511 734 457 610 q 640 858 565 858 q 707 827 685 858 q 729 739 729 796 q 715 631 729 696 q 676 485 701 565 q 617 319 651 404 q 540 150 583 233 q 346 -173 429 -69 q 192 -276 263 -276 m 224 889 q 144 918 169 889 q 119 986 119 947 q 153 1067 119 1039 q 246 1096 186 1096 q 324 1065 299 1096 q 350 990 350 1033 q 315 915 350 940 q 224 889 279 889 m 519 1110 q 601 1078 576 1110 q 626 1004 626 1046 q 595 923 626 950 q 506 896 564 896 q 424 926 451 896 q 397 1000 397 957 q 431 1081 397 1053 q 519 1110 464 1110 z "},"ỳ":{"ha":756,"x_min":26,"x_max":729,"o":"m 192 -276 q 104 -183 104 -276 q 133 -74 104 -136 q 213 57 161 -11 q 335 190 264 125 l 333 174 q 104 478 182 342 q 26 724 26 614 q 56 812 26 781 q 133 843 85 843 q 290 717 218 843 q 415 342 363 592 l 421 342 q 511 734 457 610 q 640 858 565 858 q 707 827 685 858 q 729 739 729 796 q 715 631 729 696 q 676 485 701 565 q 617 319 651 404 q 540 150 583 233 q 346 -173 429 -69 q 192 -276 263 -276 m 496 918 q 485 893 496 904 q 456 882 475 882 q 397 888 433 882 q 322 903 361 893 q 243 926 282 914 q 170 960 197 942 q 143 1006 143 978 q 156 1049 143 1025 q 191 1090 168 1072 q 242 1107 214 1107 q 311 1085 272 1107 q 396 1029 350 1064 q 469 969 442 996 q 496 918 496 942 z "},"z":{"ha":707,"x_min":40,"x_max":667,"o":"m 40 161 q 88 306 40 228 q 231 473 136 385 q 467 657 326 561 l 467 663 q 369 637 422 649 q 266 618 315 625 q 185 611 217 611 q 76 637 110 611 q 42 714 42 663 q 66 779 42 751 q 132 822 90 807 q 215 848 167 838 q 318 865 264 858 q 424 871 372 871 q 558 857 504 871 q 640 809 613 843 q 667 713 667 775 q 643 621 667 671 q 568 510 619 571 q 430 375 517 450 q 215 208 343 300 l 215 203 q 303 229 253 218 q 408 247 354 240 q 513 254 463 254 q 622 231 589 254 q 656 154 656 208 q 578 37 656 83 q 351 -10 500 -10 q 117 35 193 -10 q 40 161 40 81 z "},"ź":{"ha":707,"x_min":40,"x_max":667,"o":"m 40 161 q 88 306 40 228 q 231 473 136 385 q 467 657 326 561 l 467 663 q 369 637 422 649 q 266 618 315 625 q 185 611 217 611 q 76 637 110 611 q 42 714 42 663 q 66 779 42 751 q 132 822 90 807 q 215 848 167 838 q 318 865 264 858 q 424 871 372 871 q 558 857 504 871 q 640 809 613 843 q 667 713 667 775 q 643 621 667 671 q 568 510 619 571 q 430 375 517 450 q 215 208 343 300 l 215 203 q 303 229 253 218 q 408 247 354 240 q 513 254 463 254 q 622 231 589 254 q 656 154 656 208 q 578 37 656 83 q 351 -10 500 -10 q 117 35 193 -10 q 40 161 40 81 m 233 929 q 261 980 233 953 q 333 1040 289 1007 q 418 1097 379 1075 q 488 1118 457 1118 q 540 1101 518 1118 q 574 1060 561 1083 q 586 1017 586 1036 q 560 971 586 989 q 486 938 533 953 q 408 915 449 925 q 333 899 368 904 q 274 893 297 893 q 244 904 256 893 q 233 929 233 915 z "}}}
